<?xml version="1.0" encoding="utf-8"?>
<!-- Generator: Adobe Illustrator 27.1.1, SVG Export Plug-In . SVG Version: 6.00 Build 0)  -->
<svg version="1.1" id="Layer_1" xmlns="http://www.w3.org/2000/svg" xmlns:xlink="http://www.w3.org/1999/xlink" x="0px" y="0px"
	 viewBox="0 0 912.6 231.8" style="enable-background:new 0 0 912.6 231.8;" xml:space="preserve">
<style type="text/css">
	.st0{fill:#131B3A;}
</style>
<path class="st0" d="M121.4,116.4c0.1,7.7,6.5,10.7,13.5,10.7c5.1,0,11.5-2,11.5-8.1c0-5.3-7.3-7.2-19.9-9.9
	c-10.1-2.2-20.2-5.8-20.2-17c0-16.3,14.1-20.5,27.8-20.5c14,0,26.8,4.7,28.1,20.4h-16.7c-0.5-6.8-5.7-8.6-12-8.6
	c-3.9,0-9.8,0.7-9.8,5.9c0,6.3,9.9,7.2,19.9,9.5c10.2,2.3,20.2,6,20.2,17.9c0,16.8-14.6,22.2-29.1,22.2c-14.8,0-29.3-5.6-30-22.5
	H121.4z"/>
<path class="st0" d="M232.4,164.6l-17.5-5v-30.5h-0.2c-4.1,6.9-12.5,9.8-20.1,9.8c-11.7,0-27-8.5-27-33.2c0-17.5,9.3-34.1,28.6-34.1
	c7.9,0,15.4,2.8,19.4,9.9h0.3v-8.1h16.7V164.6z M200.2,125.7c11.4,0,15.3-9.6,15.3-20.1c0-10-3.9-20.7-14.9-20.7
	c-11.4,0-15.6,10.1-15.6,20.5C185,115.6,188.7,125.7,200.2,125.7z"/>
<path class="st0" d="M295.9,137.2h-16.7v-8.9h-0.4c-4.4,7.2-12.1,10.6-19.5,10.6c-18.6,0-23.3-10.5-23.3-26.3V73.4h17.5v36
	c0,10.5,3.1,15.7,11.2,15.7c9.5,0,13.6-5.3,13.6-18.3V73.4h17.5V137.2z"/>
<path class="st0" d="M301.5,93c1-16.4,15.7-21.4,30-21.4c12.7,0,28,2.8,28,18.1V123c0,5.8,0.6,11.6,2.2,14.2H344
	c-0.6-2-1.1-4.1-1.2-6.2c-5.6,5.8-13.7,7.9-21.5,7.9c-12.1,0-21.7-6-21.7-19.1c0-14.4,10.9-17.9,21.7-19.4C332,98.8,342,99.1,342,92
	c0-7.5-5.2-8.6-11.4-8.6c-6.7,0-11,2.7-11.6,9.6H301.5z M342,105.9c-3,2.6-9.1,2.7-14.6,3.7c-5.4,1.1-10.4,3-10.4,9.4
	c0,6.5,5.1,8.1,10.7,8.1c13.7,0,14.2-10.9,14.2-14.7V105.9z"/>
<g>
	<path class="st0" d="M365.4,73.4H382v11.8h0.2c3.2-8,11.9-13.6,20.4-13.6c1.2,0,2.7,0.2,3.8,0.6v16.3c-1.6-0.4-4.2-0.6-6.3-0.6
		c-12.8,0-17.3,9.3-17.3,20.5v28.8h-17.5V73.4z"/>
	<path class="st0" d="M425.5,109.5c0.5,11.1,5.9,16.2,15.7,16.2c7,0,12.7-4.3,13.8-8.3h15.4c-4.9,15.1-15.4,21.5-29.9,21.5
		c-20.1,0-32.6-13.8-32.6-33.6c0-19.1,13.2-33.7,32.6-33.7c21.7,0,32.2,18.3,31,37.9H425.5z M454,98.4c-1.6-8.9-5.4-13.6-14-13.6
		c-11.1,0-14.3,8.6-14.6,13.6H454z"/>
</g>
<path class="st0" d="M523.6,129h-0.3c-4.1,6.9-11.2,9.9-19.4,9.9c-19.3,0-28.6-16.5-28.6-34.2c0-17.2,9.5-33.1,28.3-33.1
	c7.5,0,14.9,3.2,18.9,9.5h0.3V49l17.5-5v93.1h-16.7V129z M508.3,84.8c-11.5,0-15.4,9.9-15.4,20.4c0,10,4.6,20.5,15.4,20.5
	c11.6,0,15.1-10.1,15.1-20.6C523.3,94.7,519.6,84.8,508.3,84.8z"/>
<path class="st0" d="M546.8,73.4h16.5V82h0.2c4.6-6.5,11.2-10.4,19.5-10.4c8,0,15.2,3,18.6,10.6c3.7-5.6,10.4-10.6,19.3-10.6
	c13.6,0,23.3,6.3,23.3,22.8v42.7h-17.5V101c0-8.5-0.7-15.6-10.7-15.6c-9.9,0-11.7,8.1-11.7,16.2v35.6h-17.5v-35.8
	c0-7.4,0.5-15.9-10.6-15.9c-3.5,0-11.9,2.2-11.9,14.7v37h-17.5V73.4z"/>
<path class="st0" d="M807.5,63.5H790V44l17.5,5V63.5z M790,73.4h17.5v63.8H790V73.4z"/>
<path class="st0" d="M816.3,93c1-16.4,15.7-21.4,30-21.4c12.7,0,28,2.8,28,18.1V123c0,5.8,0.6,11.6,2.2,14.2h-17.8
	c-0.6-2-1.1-4.1-1.2-6.2c-5.6,5.8-13.7,7.9-21.5,7.9c-12.1,0-21.7-6-21.7-19.1c0-14.4,10.9-17.9,21.7-19.4
	c10.7-1.6,20.7-1.2,20.7-8.4c0-7.5-5.2-8.6-11.4-8.6c-6.7,0-11,2.7-11.6,9.6H816.3z M856.8,105.9c-3,2.6-9.1,2.7-14.6,3.7
	c-5.4,1.1-10.4,3-10.4,9.4c0,6.5,5.1,8.1,10.7,8.1c13.7,0,14.2-10.9,14.2-14.7V105.9z"/>
<path class="st0" d="M665.7,109.5c0.5,11.1,5.9,16.2,15.7,16.2c7,0,12.7-4.3,13.8-8.3h15.4c-4.9,15.1-15.4,21.5-29.9,21.5
	c-20.1,0-32.6-13.8-32.6-33.6c0-19.1,13.2-33.7,32.6-33.7c21.7,0,32.2,18.3,31,37.9H665.7z M694.2,98.4c-1.6-8.9-5.4-13.6-14-13.6
	c-11.1,0-14.3,8.6-14.6,13.6H694.2z"/>
<path class="st0" d="M763.7,129h-0.3c-4.1,6.9-11.2,9.9-19.4,9.9c-19.3,0-28.6-16.5-28.6-34.2c0-17.2,9.5-33.1,28.3-33.1
	c7.5,0,14.9,3.2,18.9,9.5h0.2V49l17.5-5v93.1h-16.7V129z M748.4,84.8c-11.5,0-15.4,9.9-15.4,20.4c0,10,4.6,20.5,15.4,20.5
	c11.6,0,15.1-10.1,15.1-20.6C763.5,94.7,759.8,84.8,748.4,84.8z"/>
<path class="st0" d="M84.4,129h-0.3c-4.1,6.9-11.2,9.9-19.4,9.9c-19.3,0-28.6-16.5-28.6-34.2c0-17.2,9.5-33.1,28.3-33.1
	c7.5,0,14.9,3.2,18.9,9.5h0.3V49l17.5-5v93.1H84.4V129z M69.1,84.8c-11.5,0-15.4,9.9-15.4,20.4c0,10,4.6,20.5,15.4,20.5
	c11.6,0,15.1-10.1,15.1-20.6C84.2,94.7,80.5,84.8,69.1,84.8z"/>
<g>
	<path class="st0" d="M546.8,187.3v-23.9h8.9c7.5,0,12.5,4.9,12.5,11.9c0,7-5,11.9-12.4,11.9H546.8z M563.9,175.4
		c0-4.6-2.9-8.2-8.2-8.2H551v16.5h4.7C560.9,183.7,563.9,179.9,563.9,175.4z"/>
	<path class="st0" d="M571.9,187.3v-23.9h4.2v23.9H571.9z"/>
	<path class="st0" d="M579.7,175.4c0-7.5,5.6-12.3,12.5-12.3c4.7,0,7.7,2.2,9.6,4.9l-3.4,2c-1.3-1.8-3.5-3.2-6.2-3.2
		c-4.7,0-8.2,3.6-8.2,8.6c0,5,3.5,8.6,8.2,8.6c2.4,0,4.6-1.1,5.7-2.1v-3.7h-7.2v-3.7H602v8.9c-2.3,2.6-5.7,4.4-9.8,4.4
		C585.3,187.8,579.7,182.9,579.7,175.4z"/>
	<path class="st0" d="M606.3,187.3v-23.9h4.2v23.9H606.3z"/>
	<path class="st0" d="M620.4,187.3v-20.2h-7.2v-3.7h18.6v3.7h-7.2v20.2H620.4z"/>
	<path class="st0" d="M648.7,187.3l-1.8-4.6H636l-1.8,4.6h-4.8l9.4-23.9h5.2l9.4,23.9H648.7z M641.5,167.7l-4.3,11.4h8.6
		L641.5,167.7z"/>
	<path class="st0" d="M655.6,187.3v-23.9h4.2v20.2h10.5v3.7H655.6z"/>
	<path class="st0" d="M704.3,187.3v-18.4l-7.3,18.4h-1.8l-7.3-18.4v18.4h-4.2v-23.9h5.9l6.5,16.4l6.5-16.4h5.9v23.9H704.3z"/>
	<path class="st0" d="M730,187.3l-1.8-4.6h-10.9l-1.8,4.6h-4.8l9.4-23.9h5.2l9.4,23.9H730z M722.8,167.7l-4.3,11.4h8.6L722.8,167.7z
		"/>
	<path class="st0" d="M750.6,187.3l-5.3-8.9h-4.2v8.9H737v-23.9h10.5c4.7,0,7.8,3,7.8,7.5c0,4.2-2.8,6.5-5.7,7l5.9,9.4H750.6z
		 M751,170.9c0-2.3-1.7-3.8-4.1-3.8h-5.8v7.6h5.8C749.3,174.8,751,173.2,751,170.9z"/>
	<path class="st0" d="M773.3,187.3l-8-10.1l-2.1,2.5v7.6h-4.2v-23.9h4.2v11.3l9.3-11.3h5.2l-9.7,11.2l10.4,12.6H773.3z"/>
	<path class="st0" d="M780.8,187.3v-23.9h16.4v3.7H785v6.2h11.9v3.7H785v6.7h12.2v3.7H780.8z"/>
	<path class="st0" d="M806.7,187.3v-20.2h-7.2v-3.7h18.6v3.7h-7.2v20.2H806.7z"/>
	<path class="st0" d="M820.8,187.3v-23.9h4.2v23.9H820.8z"/>
	<path class="st0" d="M846.4,187.3L834,170.3v17.1h-4.2v-23.9h4.3l12.2,16.5v-16.5h4.2v23.9H846.4z"/>
	<path class="st0" d="M854.2,175.4c0-7.5,5.6-12.3,12.5-12.3c4.7,0,7.7,2.2,9.6,4.9l-3.4,2c-1.3-1.8-3.5-3.2-6.2-3.2
		c-4.7,0-8.2,3.6-8.2,8.6c0,5,3.5,8.6,8.2,8.6c2.4,0,4.6-1.1,5.7-2.1v-3.7h-7.2v-3.7h11.3v8.9c-2.3,2.6-5.7,4.4-9.8,4.4
		C859.8,187.8,854.2,182.9,854.2,175.4z"/>
</g>
</svg>
