<?xml version="1.0" encoding="UTF-8"?>
<svg width="123px" height="70px" viewBox="0 0 123 70" version="1.1" xmlns="http://www.w3.org/2000/svg" xmlns:xlink="http://www.w3.org/1999/xlink">
    <title>social-hustle-logo</title>
    <g id="Page-1" stroke="none" stroke-width="1" fill="none" fill-rule="evenodd">
        <g id="social-hustle-logo" fill-rule="nonzero">
            <path d="M26.2203916,38.0974029 C26.2203916,40.3219515 25.5262604,42.103297 24.1382599,43.4414392 C22.7502593,44.7795815 20.9617196,45.44882 18.7726406,45.4491546 C18.0097391,45.447764 17.2491164,45.3658301 16.5034203,45.2047153 C15.685453,45.0243994 14.8880849,44.7608525 14.1237757,44.4181928 L13.4406505,44.120047 L12.6255181,39.4812207 L14.586554,40.8645366 C15.0854713,41.2081905 15.7097035,41.4839168 16.4592505,41.6917153 C17.1469173,41.8910158 17.8584568,41.9960413 18.5743787,42.003915 C19.352703,42.003915 19.9807833,41.8049839 20.4586196,41.4071217 C20.9364558,41.0092594 21.1750393,40.412466 21.1743701,39.6167415 C21.1825758,38.9903216 20.9809765,38.3791629 20.6016693,37.8805696 C20.2931503,37.483042 19.8377336,37.1032492 19.235419,36.7411911 L17.3406376,35.6018127 C15.7103727,34.6250592 14.5726673,33.6394382 13.9275215,32.6449499 C13.2368674,31.5778492 12.8917077,30.2124354 12.8920423,28.5487086 C12.8920423,26.7223569 13.5278188,25.2528765 14.7993719,24.1402676 C16.0709249,23.0276587 17.6168658,22.4716888 19.4371944,22.4721438 C19.9561339,22.4702606 20.4747793,22.4974078 20.9906641,22.5536705 C21.5027254,22.6152653 22.0079826,22.7241468 22.4999641,22.8789204 L24.2185685,23.3944013 L24.2185685,27.3280177 L23.1364099,26.5967073 C22.7612069,26.3651701 22.3624399,26.1741994 21.9468386,26.0270181 C21.5040138,25.8542377 21.0337935,25.7622676 20.5585034,25.7554746 C19.9705774,25.7554746 19.4601158,25.8640585 19.0271185,26.0812264 C18.5941212,26.2983943 18.2817542,26.6877238 18.0900174,27.2492148 C18.0079153,27.4849122 17.9632047,27.7320064 17.9575081,27.981529 C17.9575081,28.6691715 18.3834784,29.3111385 19.235419,29.90743 C19.4120979,30.0345853 19.9630485,30.3692045 20.8882706,30.9112877 L22.6952145,31.9422495 C23.6940529,32.5027367 24.5093526,33.2984612 25.1411137,34.3294231 C25.8517098,35.4572914 26.2260537,36.7643611 26.2203916,38.0974029 Z" id="Path" fill="#000000"></path>
            <path d="M47.3936298,33.5674951 C47.3936298,37.2928109 46.4019829,40.240639 44.4186947,42.4109793 C42.4942995,44.5267767 39.9532011,45.5846754 36.7953995,45.5846754 C33.9454475,45.5846754 31.6098053,44.4452969 29.7884728,42.16654 C28.0554799,39.9965343 27.1889834,37.3195805 27.1889834,34.1356785 C27.1889834,30.8082249 28.1399712,28.0367412 30.0419469,25.8212273 C31.9439226,23.6057134 34.386643,22.4981237 37.370108,22.4984582 C40.3080648,22.4984582 42.7134751,23.5111835 44.5863389,25.5366336 C46.4592027,27.5620838 47.3949654,30.2390376 47.3936298,33.5674951 Z M42.039552,35.0863318 C42.039552,32.5365332 41.6502225,30.4205686 40.8715636,28.7384377 C39.96073,26.7855999 38.668096,25.8090137 36.9936614,25.8086791 C35.5246829,25.8086791 34.3789467,26.5230911 33.5564527,27.9519152 C32.792517,29.2719881 32.4105491,30.9900905 32.4105491,33.1062225 C32.4105491,35.4933961 32.8512426,37.5730545 33.7326297,39.345198 C34.6872983,41.2625661 35.8991219,42.2210829 37.3681003,42.2207485 C38.9548646,42.2207485 40.1594939,41.4974688 40.9819879,40.0509099 C41.6870306,38.8027802 42.039552,37.1479208 42.039552,35.0863318 Z" id="Shape" fill="#000000"></path>
            <path d="M110.296353,40.403264 L109.326627,45.0174958 L97.2963962,45.0174958 C97.4179915,44.9419462 97.5291904,44.8508272 97.6271673,44.7464542 C97.727553,44.6380376 97.8179002,44.5456827 97.8911818,44.4744088 C98.0528029,44.3114492 98.214424,44.0035995 98.3760451,43.5508597 C98.5313821,43.1330553 98.6133979,42.6915626 98.6184767,42.2458447 L98.6184767,25.3233139 C98.6195363,25.0448464 98.5899111,24.7671099 98.5301372,24.4951313 C98.4823898,24.2625941 98.4007054,24.0383425 98.2877056,23.8295736 C98.1562076,23.6021742 98.0091255,23.3841505 97.847514,23.1770662 C97.7079479,23.0082085 97.5354616,22.8695363 97.3405659,22.7694999 L104.853939,22.7694999 C104.720377,22.8802726 104.602215,23.0083941 104.502589,23.1504639 C104.472807,23.2046722 104.303825,23.467683 103.99564,23.9394961 C103.892912,24.1208597 103.809257,24.3885551 103.744676,24.7425822 C103.680094,25.0966094 103.646633,25.336866 103.64429,25.463352 L103.64429,41.2961954 C104.064148,41.4978964 104.508373,41.6443405 104.965869,41.7318696 C105.431968,41.8089518 105.903882,41.845395 106.376289,41.8407882 C107.375127,41.8407882 108.131534,41.7322042 108.645509,41.5150364 C108.95269,41.3895541 109.502971,41.0189633 110.296353,40.403264 Z" id="Path" fill="#000000"></path>
            <path d="M88.2300555,44.5657598 C88.0373739,44.744071 87.8082182,44.8783446 87.5584747,44.9592721 L96.1073267,44.9592721 C95.70696,44.5593521 95.3556456,44.1131744 95.0608051,43.6301645 C94.8031483,43.1951595 94.6378464,42.8966791 94.5648994,42.7347234 C94.4288143,42.4534914 94.3114424,42.1635828 94.2135492,41.8668885 L88.5939539,22.7705038 L81.7175288,22.7705038 C82.0698828,22.8973245 82.3636785,23.1504639 82.5989158,23.5299221 C82.8370604,23.9229595 82.9588881,24.3754625 82.950266,24.8349371 C82.9646546,25.0337009 82.9352082,25.2958751 82.8619265,25.6214596 L78.1864594,42.1966557 C78.8122048,42.3304897 79.419087,42.5408755 79.9934032,42.8230629 C80.0630238,42.8579816 80.1251013,42.9062452 80.1761053,42.9651088 C80.5540577,43.4042965 80.6122815,44.0763792 80.5555635,44.9632875 L82.6430856,44.9632875 C82.3934154,44.8812806 82.1617182,44.7523138 81.9604623,44.5833274 C81.7173035,44.3760902 81.5313551,44.1099559 81.4203869,43.8103569 C81.3101139,43.5106271 81.2541931,43.1936293 81.2552523,42.8742597 C81.2625332,42.4793855 81.3217678,42.0871883 81.4314293,41.707777 L82.4006539,38.181225 L87.7988986,38.181225 L88.7686251,41.7348812 C88.8771277,42.077455 88.9364452,42.4336982 88.9448022,42.7929472 C88.9365814,43.1232568 88.8694401,43.4494441 88.7465403,43.7561486 C88.6157042,44.1071642 88.4435426,44.3770346 88.2300555,44.5657598 Z M83.1696089,34.9568341 L85.0543517,28.5236122 L86.9616813,34.9483013 L83.1696089,34.9568341 Z" id="Shape" fill="#000000"></path>
            <path d="M68.0374582,23.2046722 C68.1840228,23.3889033 68.3165689,23.5838635 68.433982,23.7879136 C68.5740031,24.0365106 68.6709073,24.3070278 68.7205834,24.5879881 C68.7699526,24.8192705 68.7993401,25.0543701 68.8084209,25.2906885 L68.8084209,42.1369262 C68.8084209,42.3166167 68.8018959,42.4877744 68.7888457,42.6503994 C70.6073339,42.2990492 72.3304556,42.0480848 73.9200642,41.947699 L73.9200642,25.2916924 C73.9200642,25.2200838 73.9605532,25.0025813 74.041531,24.6391849 C74.1225089,24.2757884 74.2143619,24.0136142 74.31709,23.8526624 C74.5078229,23.509343 74.6326359,23.3013772 74.6915289,23.2287648 C74.8221146,23.0529558 74.9780736,22.8975043 75.1543073,22.7674922 L67.5305101,22.7674922 C67.7229824,22.883526 67.8943931,23.0313466 68.0374582,23.2046722 Z" id="Path" fill="#000000"></path>
            <path d="M56.7515882,45.4240582 C58.2724326,45.0812408 59.807331,44.7098134 61.3271716,44.3413977 C62.3812221,44.0859159 63.4232264,43.8339476 64.4476632,43.5935237 L65.4379688,39.9967016 L63.5211025,41.0005593 C62.7869479,41.3984216 62.1406309,41.6743151 61.5821514,41.82824 C61.0236719,41.9821648 60.3701606,42.0581234 59.6216174,42.0561156 C57.7116108,42.0561156 56.2573556,41.233287 55.2588519,39.5876296 C54.3921881,38.1591401 53.9588562,36.3053496 53.9588562,34.026258 C53.9588562,31.7301009 54.1930896,29.9939291 54.6615566,28.8177425 C55.3977189,26.9733213 56.7564402,26.0511107 58.7377207,26.0511107 C59.5899958,26.0511107 60.4640213,26.2500418 61.3597969,26.6479041 C62.1237326,26.9918927 62.6894064,27.3716855 63.0568183,27.7872826 L62.946394,23.1193443 L59.8394545,22.8206967 C56.3878571,22.8206967 53.6521777,23.810835 51.632416,25.7911116 C49.6126543,27.7713881 48.6027735,30.4705941 48.6027735,33.8887295 C48.6027735,37.4152816 49.5721654,40.2637278 51.5109492,42.4340681 C52.9468003,44.0382326 54.69368,45.034896 56.7515882,45.4240582 Z" id="Path" fill="#000000"></path>
            <path d="M78.7897779,51.8256586 C77.4420989,50.8694842 70.9355954,50.8790208 67.3016306,52.1268159 C67.2012448,52.8571224 67.1917081,53.2948043 67.425607,54.0993963 C67.5842165,53.1567739 70.2103082,52.3361202 73.0296425,53.4222942 C75.8489768,54.5084683 77.8195494,55.5981558 78.7300483,54.912521 C79.6405472,54.2268862 79.9929013,52.6799415 78.7897779,51.8256586 Z" id="Path" fill="#000000"></path>
            <path d="M73.9200642,54.4768467 C73.0296425,53.7646097 69.6536691,52.9399406 68.2588089,53.8288566 C67.2810515,54.4507464 67.9646786,55.8205102 68.9941346,55.7954138 C70.0235907,55.7703174 72.6336206,55.412944 74.1775537,56.2330958 C73.7363583,55.4546041 73.6630767,55.0440263 73.9200642,54.4768467 Z" id="Path" fill="#000000"></path>
            <path d="M49.8997576,46.5579154 C49.9950113,45.7048394 49.993159,44.8437097 49.8942364,43.9910513 C49.7622291,44.9336737 48.2940873,45.6167988 46.4344409,44.9482296 C44.7148327,44.3308572 43.7912836,43.8941791 43.2281195,44.5883466 C42.8025444,45.0959763 42.7616942,45.8231109 43.1277337,46.3752133 C43.8409746,47.3695344 48.0160187,47.1692647 49.8997576,46.5579154 Z" id="Path" fill="#000000"></path>
            <path d="M49.0896445,44.3358764 C49.6026158,43.5955314 49.5052416,42.4757282 48.9044327,42.5369635 C48.3036239,42.5981988 47.6455952,43.1181971 46.7436291,42.349744 C47.0011186,43.1156874 46.8942077,43.9559163 46.7436291,44.5331345 C47.7168691,44.8955271 48.8010354,44.7534812 49.0896445,44.3358764 Z" id="Path" fill="#000000"></path>
            <path d="M79.6927478,47.7535099 C79.8588863,45.6393856 80.2448696,43.9418623 79.7318983,43.3465747 C72.5387561,39.7442314 54.093875,48.8612669 43.5709369,47.3690324 C42.7623295,47.1406548 42.3406744,45.8391533 42.3406744,45.8391533 C42.3406744,45.8391533 42.3321765,47.0493038 42.6920595,47.9286831 C43.2085443,50.4277868 42.5655734,50.8248125 42.5705927,52.5298648 C42.5705927,53.1517546 43.0634868,54.5265377 44.1074988,54.764452 C53.8574666,56.9895025 67.2434068,48.6680243 78.4800878,50.7620714 L78.4770762,50.7906813 C79.5271113,50.9914529 80.1474954,51.6735742 80.1474954,52.4580889 C80.4356025,50.9573217 79.6034045,48.9716912 79.6927478,47.7535099 Z M51.4396753,53.2872754 C51.4396753,53.3449972 51.3749265,53.4197846 51.2810658,53.4328348 C51.0133704,53.4709813 50.745675,53.5071202 50.4779797,53.5412514 C50.4441133,53.5485701 50.4087279,53.54156 50.3802097,53.5218824 C50.3516915,53.5022048 50.3325787,53.4716112 50.327401,53.4373521 L50.327401,51.5581305 C49.7645715,51.6273967 49.2019092,51.6866243 48.6394143,51.7358133 L48.6394143,53.6150349 C48.6261896,53.6914376 48.5613011,53.7481627 48.4838164,53.7510576 C48.216121,53.7724733 47.9484256,53.7917139 47.6807302,53.8087795 C47.6079098,53.818049 47.5410255,53.7674398 47.5301516,53.6948416 L47.5301516,48.888371 C47.5384234,48.8108465 47.6027932,48.7514117 47.6807302,48.7493367 C47.9484256,48.7329404 48.216121,48.7136998 48.4838164,48.6916149 C48.5776771,48.684086 48.6429278,48.7418078 48.6429278,48.8085643 L48.6429278,50.67323 C49.2057574,50.6250448 49.7684196,50.5658172 50.3309145,50.4955472 L50.3309145,48.6313835 C50.3394328,48.5520166 50.4021263,48.4893231 50.4814932,48.4808048 C50.7491885,48.4473429 51.0168839,48.411204 51.2845793,48.3723882 C51.37844,48.359338 51.4431888,48.4150521 51.4431888,48.4798009 L51.4396753,53.2872754 Z M57.0321665,50.7239248 C57.0321665,51.8000602 56.2019762,52.6156946 55.1198176,52.8320259 C54.0592419,53.0473534 53.2004417,52.5378956 53.2004417,51.4898682 L53.2004417,48.2880641 C53.2101464,48.208149 53.2715471,48.1442923 53.3510203,48.1314623 C53.6130272,48.0849503 53.8752014,48.0367651 54.1375428,47.9869068 C54.2238746,47.9703432 54.2881215,48.0230457 54.2881215,48.0872926 L54.2881215,51.2750427 C54.3528703,51.688632 54.7137572,51.8728399 55.1178099,51.7910255 C55.5218626,51.7092111 55.9404712,51.4040384 55.9404712,50.9563179 L55.9404712,47.7545138 C55.9503987,47.6736311 56.0111194,47.6082551 56.0910499,47.5923908 C56.3557337,47.5361747 56.6202502,47.4789548 56.8845994,47.4207311 C56.9174458,47.4102383 56.953304,47.4156171 56.9816262,47.4352853 C57.0099485,47.4549535 57.0275136,47.4866742 57.0291549,47.5211169 L57.0321665,50.7239248 Z M60.2947039,51.6775896 C59.391232,51.8698283 58.6855201,51.5129569 58.6709641,50.5547748 C58.6709641,50.482497 58.728686,50.4257791 58.8215428,50.4041961 L59.6080653,50.2204902 C59.680343,50.2034246 59.7586439,50.2280191 59.7586439,50.3002969 C59.7731999,50.6079792 60.0096084,50.7018399 60.2926962,50.6365892 C60.5757841,50.5713384 60.8267485,50.3294087 60.8267485,50.0342746 C60.8267485,49.7235806 60.5306105,49.5910714 60.2926962,49.6257045 C60.0392982,49.6847421 59.776364,49.6902128 59.5207297,49.6417662 C58.9791484,49.5087551 58.6674506,49.0896445 58.6674506,48.4813067 C58.6674506,47.513086 59.4469461,46.7401156 60.2911904,46.539846 C61.1786006,46.3295378 61.8782894,46.7627024 61.8928454,47.6340509 C61.8818129,47.7137189 61.8212547,47.777507 61.7422667,47.7926604 L60.9632731,47.9778721 C60.8839684,47.9964435 60.8126945,47.9557872 60.8126945,47.8910384 C60.7981386,47.597912 60.5617301,47.5030474 60.2931981,47.5657885 C59.9970601,47.6360586 59.7591459,47.8669458 59.7591459,48.2268288 C59.7591459,48.5450517 60.0101103,48.6881014 60.2931981,48.6213449 C60.5419815,48.5642275 60.7999413,48.5596119 61.0506088,48.6077928 C61.606244,48.7287577 61.9094095,49.1769801 61.9094095,49.777287 C61.9099109,50.7595617 61.1233884,51.4813354 60.2937001,51.6780915 L60.2947039,51.6775896 Z M66.1251093,46.1453299 C66.1251093,46.2105807 66.0673875,46.2733218 65.9745307,46.2959086 C65.6954583,46.35614 65.4163858,46.4173753 65.1373134,46.4796145 L65.1373134,50.3535013 C65.1294362,50.4318012 65.0703108,50.4952378 64.9927579,50.5085973 C64.730751,50.5674903 64.4687442,50.6268852 64.2067373,50.6867821 C64.1063516,50.7098708 64.0621818,50.6546586 64.0621818,50.5969368 L64.0621818,46.7240539 C63.780767,46.7886354 63.4993523,46.8538861 63.2179375,46.9198061 C63.1311038,46.9403852 63.0673589,46.9047482 63.0673589,46.8394975 L63.0673589,46.1172219 C63.0774941,46.0357314 63.1377788,45.9694182 63.2179375,45.9515854 C64.1369692,45.7367598 65.055499,45.5264516 65.9745307,45.3281898 C66.0678895,45.3081126 66.1251093,45.3608151 66.1251093,45.425564 L66.1251093,46.1453299 Z M70.2594972,49.3511494 C70.2468637,49.4278243 70.1858703,49.4873945 70.1089186,49.4982146 C69.2671839,49.6342373 68.4254492,49.7888314 67.5837146,49.9564756 C67.4898539,49.975047 67.4331359,49.9213406 67.4331359,49.8636188 L67.4331359,45.107843 C67.4427162,45.0289887 67.5048602,44.9668447 67.5837146,44.9572643 C67.8457214,44.9050637 68.1078956,44.8548709 68.3702371,44.8066857 C68.4565688,44.790624 68.5208157,44.8362995 68.5208157,44.9010483 L68.5208157,48.7463252 C69.0501833,48.6459394 69.5793836,48.5535845 70.1084166,48.4692604 C70.1952503,48.4552064 70.2589953,48.5023877 70.2589953,48.5696462 L70.2594972,49.3511494 Z M74.9209104,44.8463381 C74.9209104,44.9040599 74.8561615,44.9728241 74.7623008,44.9788473 C74.0284809,45.0240209 73.2948282,45.0892716 72.5613429,45.1745995 L72.5613429,46.1644032 C73.1636575,46.0958063 73.7673106,46.0392556 74.3723021,45.9947513 C74.4661628,45.9882262 74.5168576,46.0449441 74.5168576,46.1076852 L74.5168576,46.8666017 C74.5108256,46.9418973 74.4478386,46.999854 74.3723021,46.9996128 C73.7699875,47.0427787 73.1663344,47.0993293 72.5613429,47.1692647 L72.5613429,48.1450144 C73.2951628,48.0613596 74.0288155,47.9961089 74.7623008,47.9492622 C74.8561615,47.9437409 74.9209104,47.999455 74.9209104,48.0626981 L74.9209104,48.8286415 C74.9209104,48.8863633 74.8561615,48.9551276 74.7623008,48.9611507 C73.7157792,49.0258995 72.6697595,49.1333123 71.6232379,49.2733504 C71.5901447,49.2812002 71.5552738,49.2743191 71.5276432,49.2544867 C71.5000126,49.2346543 71.4823358,49.2038182 71.4791843,49.1699531 L71.4791843,44.4151812 C71.485871,44.3389131 71.5468834,44.278751 71.6232379,44.2731353 C72.6697595,44.1325953 73.7157792,44.0251825 74.7623008,43.9604337 C74.8561615,43.9549124 74.9209104,44.0106266 74.9209104,44.0738696 L74.9209104,44.8463381 Z" id="Shape" fill="#000000"></path>
            <polygon id="Path" fill="#CE2121" points="61.2739671 55.9715908 61.9862041 57.4146362 63.5788243 57.6460254 62.4263957 58.7693422 62.6984412 60.3554373 61.2739671 59.6065595 59.8494931 60.3554373 60.1215385 58.7693422 58.9696118 57.6460254 60.5617301 57.4146362"></polygon>
            <g id="Group" transform="translate(35.292123, 19.599991)" fill="#000000">
                <path d="M36.8747042,0.00207364023 L36.855129,0.00207364023 C36.7160748,-0.00475553699 36.5860194,0.108629033 36.517291,0.296606608 C36.4485626,0.484584183 36.4524619,0.716246594 36.52742,0.898383528 C36.602378,1.08052046 36.73607,1.1831841 36.8747042,1.1650673 L51.9656967,0.583180468 L36.8747042,0.00207364023 Z M15.0909925,0.00207364023 L0,0.583180468 L15.0909925,1.1650673 L15.1110697,1.1650673 C15.2501004,1.17168378 15.3800629,1.05814768 15.4486841,0.870124983 C15.5173054,0.682102289 15.5133071,0.450495757 15.4382974,0.268461147 C15.3632877,0.0864265369 15.229595,-0.0161175798 15.0909925,0.00207364023 L15.0909925,0.00207364023 Z" id="Shape"></path>
            </g>
            <path d="M24.7054395,21.7591172 C25.0068399,21.8493847 25.2773434,22.0213811 25.4869427,22.2560267 L61.274469,1.81447276 L96.0355509,21.6702758 C96.3597211,21.2853051 96.8372879,21.0630529 97.3405659,21.0629419 L98.1486713,21.0629419 L61.2739671,0 L23.7055972,21.4589637 L24.7054395,21.7591172 Z" id="Path" fill="#000000"></path>
            <path d="M111.898008,41.0833776 L122.547934,35 L105.393512,25.2013452 C105.362393,25.379028 105.352354,25.4643559 105.349342,25.4934678 L105.349342,26.9907215 L119.371728,35 L111.676657,39.3958928 C111.962073,39.7867932 112.068077,40.2805031 111.968278,40.7541122 L111.898008,41.0833776 Z" id="Path" fill="#000000"></path>
            <path d="M98.8498659,46.7240539 L61.2739671,68.187535 L22.9532059,46.2974143 C22.3048233,46.5940567 21.6236718,46.8130765 20.9239076,46.9499218 L60.8814587,69.7771436 L61.2724613,70 L102.026072,46.7240539 L98.8498659,46.7240539 Z" id="Path" fill="#000000"></path>
            <path d="M10.9440564,39.7763548 C10.9236974,39.6604106 10.9156219,39.5426427 10.9199639,39.4250047 L3.17570378,35.0015058 L11.3154838,30.3521389 C11.228401,29.7766567 11.1842767,29.1954905 11.1834765,28.6134574 L0,35 L11.2321636,41.4161564 L10.9440564,39.7763548 Z" id="Path" fill="#000000"></path>
            <path d="M25.9226169,23.3944013 L25.9226169,23.7502689 L61.2739671,3.55817355 L95.6932354,23.2187262 C95.6165734,22.938189 95.6131171,22.6426815 95.6831969,22.3604279 C95.6967489,22.3057177 95.7133126,22.2525132 95.7333897,22.2003126 L61.2739671,2.51717314 L25.8066714,22.776025 C25.883209,22.9732121 25.9225219,23.1828812 25.9226169,23.3944013 Z" id="Path" fill="#000000"></path>
            <path d="M105.349342,27.6934219 L105.349342,28.7339204 L116.320001,35 L109.52539,38.8809138 C110.058797,38.6105459 110.694809,38.6391093 111.201833,38.9562031 L111.208358,38.9602186 L118.141501,35 L105.349342,27.6934219 Z" id="Path" fill="#000000"></path>
            <path d="M11.6372202,38.0908778 L6.22793306,35.0010039 L11.6849034,31.8840258 C11.5855353,31.5894944 11.5017642,31.2899291 11.433939,30.986577 L4.40693522,35.0020077 L11.0605039,38.8026129 C11.1844822,38.5173613 11.3838669,38.2712974 11.6372202,38.0908778 L11.6372202,38.0908778 Z" id="Path" fill="#000000"></path>
            <path d="M97.2963962,46.7240539 C97.0667623,46.7242281 96.8394833,46.6777819 96.6283289,46.5875292 C96.459977,46.641803 96.2842106,46.6695734 96.1073267,46.6698455 L95.8930031,46.6698455 L61.2739671,66.4458419 L24.4509616,45.4150234 C24.1788393,45.6159076 23.8949064,45.8002796 23.6006941,45.9671452 L61.0496049,67.3533292 L61.2739671,67.4813211 L97.6191364,46.7240539 L97.2963962,46.7240539 Z" id="Path" fill="#000000"></path>
            <g id="Group" transform="translate(53.345499, 16.858284)" fill="#CE2121">
                <polygon id="Path" points="3.74639687 1.36875995 2.47902654 1.14188811 1.87319843 0 1.26737032 1.14188811 0 1.36875995 0.892931408 2.30084181 0.715750527 3.58276807 1.87319843 3.01709426 3.03064634 3.58276807 2.85346546 2.30084181"></polygon>
            </g>
            <g id="Group" transform="translate(59.089573, 14.922846)" fill="#CE2121">
                <polygon id="Path" points="4.36929056 1.59563179 2.89111012 1.33161721 2.18439432 0 1.47767851 1.33161721 0 1.59563179 1.04100042 2.68331158 0.834205733 4.17805567 2.18439432 3.51852117 3.5345829 4.17805567 3.32778821 2.68331158"></polygon>
            </g>
            <g id="Group" transform="translate(65.456038, 16.858284)" fill="#CE2121">
                <polygon id="Path" points="3.74639687 1.36875995 2.47902654 1.14188811 1.87319843 0 1.26737032 1.14188811 8.82656488e-17 1.36875995 0.892931408 2.30084181 0.715750527 3.58276807 1.87319843 3.01709426 3.03064634 3.58276807 2.85346546 2.30084181"></polygon>
            </g>
        </g>
    </g>
</svg>