<?xml version="1.0" encoding="UTF-8"?>
<svg width="209px" height="160px" viewBox="0 0 209 160" version="1.1" xmlns="http://www.w3.org/2000/svg" xmlns:xlink="http://www.w3.org/1999/xlink">
    <title>OrderCloud</title>
    <g id="Page-1" stroke="none" stroke-width="1" fill="none" fill-rule="evenodd">
        <g id="OrderCloud" transform="translate(0.000000, -0.000029)" fill-rule="nonzero">
            <path d="M77.9879,57.5840293 C72.0667,57.6090293 66.3958,59.9750293 62.2132,64.1670293 C58.0307,68.3580293 55.6762,74.0340293 55.6638,79.9550293 L55.6638,133.231029 C55.6762,139.152029 58.0307,144.828029 62.2132,149.020029 C66.3958,153.211029 72.0667,155.578029 77.9879,155.603029 L131.311,155.603029 C137.242,155.594029 142.927,153.235029 147.121,149.041029 C151.314,144.847029 153.674,139.162029 153.682,133.231029 L153.682,79.9550293 C153.674,74.0250293 151.314,68.3390293 147.121,64.1460293 C142.927,59.9520293 137.242,57.5920293 131.311,57.5840293 L77.9879,57.5840293 Z M131.311,159.019029 L77.9879,159.019029 C71.1563,158.994029 64.6115,156.269029 59.7807,151.438029 C54.95,146.608029 52.2251,140.063029 52.2002,133.231029 L52.2002,79.9550293 C52.2085,73.1130293 54.9261,66.5520293 59.7586,61.7070293 C64.5911,56.8630293 71.1454,54.1296293 77.9879,54.1046293 L131.311,54.1046293 C138.164,54.1129293 144.735,56.8390293 149.581,61.6850293 C154.427,66.5310293 157.153,73.1020293 157.162,79.9550293 L157.162,133.231029 C157.137,140.074029 154.403,146.628029 149.559,151.460029 C144.714,156.293029 138.154,159.011029 131.311,159.019029 Z" id="Shape" fill="#1CA6A3"></path>
            <polygon id="Path" fill="#1CA6A3" points="85.8283 128.209029 74.005 85.8280293 67.4714 85.8280293 67.4714 82.3480293 76.6341 82.3480293 89.1659 127.280029"></polygon>
            <polygon id="Path" fill="#1CA6A3" points="114.969 131.279029 96.3447 131.279029 96.3447 134.759029 114.969 134.759029"></polygon>
            <path d="M120.952,128.256029 C120.127,128.272029 119.325,128.530029 118.647,129.000029 C117.969,129.469029 117.444,130.129029 117.139,130.895029 C116.835,131.661029 116.763,132.501029 116.933,133.308029 C117.103,134.115029 117.508,134.854029 118.097,135.432029 C118.686,136.010029 119.432,136.401029 120.242,136.556029 C121.052,136.711029 121.89,136.624029 122.651,136.305029 C123.411,135.986029 124.061,135.449029 124.518,134.762029 C124.974,134.075029 125.218,133.269029 125.218,132.444029 C125.214,131.334029 124.772,130.272029 123.987,129.487029 C123.203,128.703029 122.14,128.260029 121.031,128.256029 M121.031,140.111029 C119.514,140.111029 118.032,139.661029 116.771,138.819029 C115.51,137.976029 114.527,136.779029 113.947,135.378029 C113.367,133.977029 113.215,132.435029 113.511,130.948029 C113.807,129.461029 114.537,128.095029 115.609,127.022029 C116.681,125.950029 118.048,125.220029 119.535,124.924029 C121.022,124.628029 122.564,124.780029 123.965,125.360029 C125.366,125.941029 126.563,126.923029 127.406,128.184029 C128.248,129.445029 128.698015,130.927029 128.698015,132.444029 C128.7,133.459029 128.5,134.464029 128.111,135.401029 C127.722,136.338029 127.15,137.189029 126.43,137.903029 C125.709,138.618029 124.854,139.183029 123.914,139.564029 C122.973,139.946029 121.967,140.137029 120.952,140.127029" id="Shape" fill="#1CA6A3"></path>
            <path d="M90.3624,128.256029 C89.5341,128.256029 88.7244,128.502029 88.0358,128.962029 C87.3471,129.422029 86.8103,130.076029 86.4934,130.841029 C86.1764,131.606029 86.0935,132.448029 86.2551,133.261029 C86.4167,134.073029 86.8155,134.819029 87.4012,135.405029 C87.9868,135.991029 88.733,136.389029 89.5454,136.551029 C90.3577,136.713029 91.1997,136.630029 91.9649,136.313029 C92.7302,135.996029 93.3842,135.459029 93.8444,134.770029 C94.3045,134.082029 94.5501,133.272029 94.5501,132.444029 C94.5501,131.333029 94.1089,130.268029 93.3236,129.483029 C92.5382,128.697029 91.473,128.256029 90.3624,128.256029 Z M90.3624,140.111029 C88.846,140.111029 87.3636,139.661029 86.1028,138.819029 C84.8419,137.976029 83.8592,136.779029 83.2789,135.378029 C82.6986,133.977029 82.5468,132.435029 82.8426,130.948029 C83.1385,129.461029 83.8687,128.095029 84.9409,127.022029 C86.0132,125.950029 87.3793,125.220029 88.8666,124.924029 C90.3539,124.628029 91.8954,124.780029 93.2964,125.360029 C94.6974,125.941029 95.8948,126.923029 96.7373,128.184029 C97.5798,129.445029 98.0294,130.927029 98.0294,132.444029 C98.0294,134.479029 97.2221,136.430029 95.7847,137.871029 C94.3473,139.311029 92.3972,140.122029 90.3624,140.127029" id="Shape" fill="#1CA6A3"></path>
            <polygon id="Path" fill="#1CA6A3" points="127.816 120.936029 85.8596 120.936029 85.8596 117.456029 125.234 117.456029 131.846 95.2900293 122.935 95.2900293 122.935 91.8260293 136.506 91.8260293"></polygon>
            <polygon id="Path" fill="#1CA6A3" points="90.3621 91.8260293 79.0583 91.8260293 79.0583 95.3050293 90.3621 95.3050293"></polygon>
            <path d="M106.546,81.3250293 C103.65,81.3250293 100.819,82.1830293 98.4099,83.7910293 C96.0009,85.3990293 94.1222,87.6840293 93.0111,90.3590293 C91.8999,93.0330293 91.6059,95.9770293 92.1664,98.8190293 C92.7269,101.660029 94.1166,104.272029 96.1601,106.324029 C98.2037,108.377029 100.809,109.777029 103.648,110.350029 C106.488,110.923029 109.433,110.641029 112.112,109.542029 C114.791,108.442029 117.085,106.573029 118.703,104.171029 C120.321,101.769029 121.191,98.9410293 121.203,96.0450293 C121.199,92.1590293 119.654,88.4340293 116.906,85.6860293 C114.158,82.9380293 110.432,81.3920293 106.546,81.3880293 M106.546,114.166029 C102.959,114.166029 99.4515,113.102029 96.4686,111.108029 C93.4858,109.115029 91.1612,106.281029 89.789,102.966029 C88.4167,99.6510293 88.0585,96.0040293 88.7596,92.4850293 C89.4606,88.9670293 91.1895,85.7350293 93.7275,83.2000293 C96.2655,80.6640293 99.4986,78.9380293 103.018,78.2400293 C106.537,77.5420293 110.184,77.9030293 113.498,79.2780293 C116.812,80.6530293 119.643,82.9800293 121.634,85.9650293 C123.625,88.9490293 124.686,92.4580293 124.683006,96.0450293 C124.662,100.842029 122.742,105.435029 119.343,108.819029 C115.944,112.203029 111.343,114.103029 106.546,114.103029" id="Shape" fill="#1CA6A3"></path>
            <path d="M103.87,103.491029 C103.634,103.490029 103.401,103.440029 103.184,103.345029 C102.968,103.250029 102.773,103.113029 102.611,102.940029 L98.4546,98.6270293 C98.2928,98.4630293 98.1651,98.2690293 98.0791,98.0560293 C97.9931,97.8430293 97.9504,97.6140293 97.9533425,97.3840293 C97.9567,97.1550293 98.0056,96.9270293 98.0975,96.7170293 C98.1893,96.5060293 98.3222,96.3150293 98.4885,96.1560293 C98.6547,95.9970293 98.8509,95.8730293 99.0657,95.7910293 C99.2805,95.7090293 99.5095,95.6700293 99.7394,95.6770293 C99.9692,95.6840293 100.195,95.7370293 100.405,95.8330293 C100.614,95.9280293 100.802,96.0650293 100.958,96.2340293 L103.697,99.0990293 L111.852,88.6610293 C111.993,88.4810293 112.167,88.3310293 112.366,88.2180293 C112.565,88.1060293 112.784,88.0340293 113.01,88.0060293 C113.237,87.9780293 113.467,87.9960293 113.687,88.0570293 C113.907,88.1180293 114.113,88.2210293 114.292,88.3620293 C114.472,88.5030293 114.623,88.6770293 114.735,88.8760293 C114.848,89.0750293 114.92,89.2940293 114.947,89.5200293 C114.975,89.7470293 114.958,89.9770293 114.897,90.1970293 C114.836,90.4170293 114.732,90.6220293 114.592,90.8020293 L105.146,102.814029 C104.994,103.011029 104.802,103.172029 104.581,103.286029 C104.361,103.401029 104.118,103.465029 103.87,103.476029 L103.776,103.476029" id="Path" fill="#1CA6A3"></path>
            <path d="M161.538,120.810029 L161.538,117.330029 C184.697,117.330029 205.022,96.8640293 205.022,73.5790293 C204.997,62.3380293 200.52,51.5650293 192.572,43.6165293 C184.623,35.6679293 173.85,31.1914293 162.609,31.1665293 C158.961,30.9949293 155.311,31.4638293 151.825,32.5519293 L150.25,33.0557293 L149.684,31.4813293 C149.274,30.3321293 139.246,3.48952934 104.484,3.48952934 L103.319,3.48952934 C94.1403,3.58772934 85.1512,6.11602934 77.2669,10.8172293 C69.3827,15.5185293 62.8848,22.2247293 58.4347,30.2534293 L57.8364,31.3397293 L56.6085,31.1507293 C53.744,30.6577293 50.8525,30.3371293 47.9496,30.1904293 C42.154,30.0803293 36.3947,31.1266293 31.0083,33.2684293 C25.6219,35.4101293 20.7165,38.6041293 16.5789,42.6638293 C12.4414,46.7235293 9.15468,51.5673293 6.91101,56.9120293 C4.66734,62.2570293 3.51172,67.9950293 3.51172,73.7920293 C3.51172,79.5880293 4.66734,85.3270293 6.91101,90.6720293 C9.15468,96.0160293 12.4414,100.860029 16.5789,104.920029 C20.7165,108.979029 25.6219,112.174029 31.0083,114.315029 C36.3947,116.457029 42.154,117.503029 47.9496,117.393029 L47.9496,120.873029 C41.6944,120.987029 35.4791,119.854029 29.6669,117.539029 C23.8546,115.224029 18.5618,111.775029 14.0977,107.392029 C9.63366,103.008029 6.08778,97.7800293 3.66723,92.0110293 C1.24669,86.2420293 0,80.0480293 0,73.7920293 C0,67.5360293 1.24669,61.3420293 3.66723,55.5730293 C6.08778,49.8041293 9.63366,44.5753293 14.0977,40.1921293 C18.5618,35.8089293 23.8546,32.3593293 29.6669,30.0446293 C35.4791,27.7299293 41.6944,26.5967293 47.9496,26.7111293 C50.6404,26.8156293 53.3221,27.0891293 55.9787,27.5297293 C60.7982,19.2559293 67.6792,12.3721293 75.951,7.54912934 C84.2228,2.72622934 93.6031,0.12892934 103.178,0.0102293396 C136.554,-0.55647066 149.432,22.5863293 152.297,28.7892293 C155.663,27.9227293 159.136,27.5514293 162.609,27.6872293 C174.776,27.6997293 186.442,32.5387293 195.046,41.1425293 C203.65,49.7462293 208.489,61.4120293 208.501,73.5790293 C208.501,99.1780293 186.996,120.810029 161.538,120.810029 Z" id="Path" fill="#000000"></path>
            <path d="M135.074,36.2201293 C134.751,36.2240293 134.434,36.1394293 134.157,35.9756293 C133.879,35.8119293 133.652,35.5752293 133.499,35.2913293 C122.636,14.8248293 91.4801,22.1927293 91.1653,22.2557293 C90.944,22.3123293 90.7138,22.3246293 90.4878,22.2918293 C90.2618,22.2591293 90.0445,22.1820293 89.8484,22.0649293 C89.6523,21.9478293 89.4814,21.7932293 89.3453,21.6097293 C89.2092,21.4263293 89.1108,21.2178293 89.0556,20.9962293 C88.9561,20.5457293 89.0373,20.0740293 89.2816,19.6826293 C89.5259,19.2911293 89.9139,19.0110293 90.3623,18.9024293 C96.3752,17.5809293 102.547,17.1302293 108.688,17.5642293 C121.896,18.5718293 131.547,24.1292293 136.601,33.6855293 C136.708,33.8869293 136.774,34.1075293 136.796,34.3346293 C136.817,34.5617293 136.793,34.7909293 136.726,35.0088293 C136.659,35.2268293 136.549,35.4293293 136.403,35.6048293 C136.258,35.7802293 136.079,35.9252293 135.877,36.0312293 C135.628,36.1595293 135.353,36.2295293 135.074,36.2359293" id="Path" fill="#000000"></path>
        </g>
    </g>
</svg>