<?xml version="1.0" encoding="UTF-8"?>
<svg width="817px" height="986px" viewBox="0 0 817 986" version="1.1" xmlns="http://www.w3.org/2000/svg" xmlns:xlink="http://www.w3.org/1999/xlink">
    <title>prisma-2</title>
    <g id="Page-1" stroke="none" stroke-width="1" fill="none" fill-rule="evenodd">
        <g id="prisma-2" transform="translate(0.186049, 0.002381)" fill="#0C344B" fill-rule="nonzero">
            <path d="M735.235882,782.06557 L292.480769,913.014907 C278.954473,917.020416 265.990489,905.319708 268.83286,891.677868 L427.004252,134.174471 C429.962167,120.016537 449.542944,117.767289 455.720672,130.885332 L748.585011,752.786839 C754.107992,764.518359 747.807018,778.352772 735.235882,782.06557 Z M811.163388,751.176933 L472.06623,31.0942345 L472.06623,31.0788287 C463.48235,13.0136566 445.677359,1.11605334 425.702462,0.0977562765 C405.066387,-1.10389646 386.579422,8.84825311 376.149692,25.7869349 L8.38233241,621.452358 C-3.02370898,639.82176 -2.77148244,663.131696 9.02937619,681.249987 L188.799706,959.725306 C199.514443,976.348168 218.078438,985.969093 237.374207,985.969093 C242.843268,985.969093 248.34314,985.198803 253.750577,983.596599 L775.57598,829.261252 C791.469547,824.604605 804.563729,813.286287 811.471504,798.233962 C818.292736,783.263283 818.180042,766.049318 811.163388,751.16923 L811.163388,751.176933 Z" id="Shape"></path>
        </g>
    </g>
</svg>