<?xml version="1.0" encoding="UTF-8"?>
<svg width="51px" height="54px" viewBox="0 0 51 54" version="1.1" xmlns="http://www.w3.org/2000/svg" xmlns:xlink="http://www.w3.org/1999/xlink">
    <title>qwik</title>
    <g id="Page-1" stroke="none" stroke-width="1" fill="none" fill-rule="evenodd">
        <g id="qwik" transform="translate(-0.000000, 0.278995)" fill-rule="nonzero">
            <path d="M44.1625151,53.3456632 L34.5838205,43.8211842 L34.4374492,43.8420943 L34.4374492,43.7376512 L14.067054,23.6234596 L19.0864672,18.7776872 L16.1375929,1.85925004 L2.14602046,19.1954596 C-0.238194869,21.5974357 -0.67738948,25.5033279 1.03757076,28.3856991 L9.77968034,42.8813039 C11.1181797,45.1162141 13.5441917,46.4529566 16.1585031,46.4320464 L20.4877726,46.3902261 L44.1625151,53.3456632 Z" id="Path" fill="#18B6F6"></path>
            <path d="M49.3902756,18.8611123 L47.4661079,15.3103698 L46.4622037,13.4932321 L46.0649103,12.7830405 L46.0230899,12.8248608 L40.7526468,3.69722249 C39.4350899,1.39965722 36.9672576,-0.0206613404 34.2902157,4.4408921e-16 L29.6682037,0.125537462 L15.8857007,0.167314707 C13.2714971,0.18820333 10.8873055,1.56674465 9.56967316,3.80165483 L1.18310669,20.4276512 L16.178551,1.81738656 L35.8378923,23.4144656 L32.3451378,26.9444057 L34.4365869,43.8419866 L34.4574971,43.8001662 L34.4574971,43.8419866 L34.4156767,43.8419866 L34.4574971,43.8836991 L36.0888145,45.4711482 L44.0152815,53.2202021 C44.3499522,53.5335315 44.8937247,53.1575794 44.6636049,52.7607171 L39.7697606,43.1317949 L48.3027306,27.3621782 L48.574563,27.0488488 C48.6791139,26.9234955 48.7836648,26.79825 48.8674133,26.6728967 C50.540551,24.3961662 50.770563,21.3467291 49.3902756,18.8611123 Z" id="Path" fill="#AC7EF4"></path>
            <polygon id="Path" fill="#FFFFFF" points="35.9004073 23.3310405 16.1783354 1.83832908 18.9808384 18.673244 13.9614253 23.5399267 34.394551 43.8211842 32.5541318 26.9862261"></polygon>
        </g>
    </g>
</svg>