<?xml version="1.0" encoding="UTF-8"?>
<svg width="194px" height="196px" viewBox="0 0 194 196" version="1.1" xmlns="http://www.w3.org/2000/svg" xmlns:xlink="http://www.w3.org/1999/xlink">
    <title>Shape</title>
    <g id="Page-1" stroke="none" stroke-width="1" fill="none" fill-rule="evenodd">
        <g id="trpc" transform="translate(0.121618, 0.000000)" fill="#398CCB" fill-rule="nonzero">
            <path d="M155.257985,92.4020709 L193.744261,114.62108 L193.744261,159.084107 L155.257985,181.303116 L138.17298,171.422722 L96.6283093,195.407248 L55.3324606,171.560262 L38.4862752,181.303116 L0,159.046596 L0,114.62108 L38.4862752,92.4020709 L76.9725503,114.62108 L76.9725503,159.046596 L65.3291394,165.779818 L96.6283093,183.853863 L128.176301,165.642278 L116.77171,159.046596 L116.77171,114.62108 L155.257985,92.4020709 Z M126.774641,126.199473 L126.774641,153.319918 L150.25652,166.873889 L150.25652,139.753443 L126.774641,126.199473 Z M183.74133,126.161962 L160.259451,139.715932 L160.259451,166.873889 L183.74133,153.282407 L183.74133,126.161962 Z M10.0029305,126.161962 L10.0029305,153.282407 L33.48481,166.836378 L33.48481,139.715932 L10.0029305,126.161962 Z M66.96962,126.161962 L43.4877405,139.715932 L43.4877405,166.836378 L66.96962,153.282407 L66.96962,126.161962 Z M155.257985,103.980463 L131.776106,117.534434 L155.257985,131.100908 L178.739865,117.534434 L155.257985,103.980463 Z M38.4862752,103.942952 L15.0043958,117.534434 L38.4862752,131.063397 L61.9681547,117.534434 L38.4862752,103.942952 Z M57.6293836,35.0227606 L57.6293836,46.5636417 L22.0189508,67.1321676 L22.0189508,101.904855 L12.0160203,107.681547 L12.0160203,61.3554752 L57.6293836,35.0227606 Z M96.1156593,0 L134.626941,22.2190095 L134.626941,34.4375891 L181.240597,61.3554752 L181.240597,107.393963 L171.237667,101.617271 L171.237667,67.1321676 L134.626941,45.9909739 L134.626941,66.6570284 L96.1406663,88.8760379 L57.6543909,66.6570284 L57.6543909,22.2190095 L96.1156593,0 Z M67.6573214,33.7598906 L67.6573214,60.880336 L91.1141933,74.4343069 L91.1141933,47.3263651 L67.6573214,33.7598906 Z M124.599003,33.7598906 L101.142131,47.3263651 L101.142131,74.4218033 L124.599003,60.880336 L124.599003,33.7598906 Z M96.1156593,11.5533848 L72.6587863,25.1073557 L96.1156593,38.6613266 L119.597538,25.1073557 L96.1156593,11.5533848 Z" id="Shape"></path>
        </g>
    </g>
</svg>