<?xml version="1.0" encoding="UTF-8"?>
<svg width="98px" height="120px" viewBox="0 0 98 120" version="1.1" xmlns="http://www.w3.org/2000/svg" xmlns:xlink="http://www.w3.org/1999/xlink">
    <title>vanilla-extract</title>
    <defs>
        <radialGradient cx="49.7856159%" cy="23.3471531%" fx="49.7856159%" fy="23.3471531%" r="73.7562189%" gradientTransform="translate(0.497856,0.233472),scale(0.401911,1.000000),rotate(90.000000),translate(-0.497856,-0.233472)" id="radialGradient-1">
            <stop stop-color="#BE5D23" offset="0%"></stop>
            <stop stop-color="#B65B25" offset="15.8%"></stop>
            <stop stop-color="#9F552A" offset="40.7%"></stop>
            <stop stop-color="#7A4C33" offset="71.5%"></stop>
            <stop stop-color="#52423C" offset="99.9%"></stop>
        </radialGradient>
        <linearGradient x1="0.00311104316%" y1="50.0155703%" x2="100%" y2="50.0155703%" id="linearGradient-2">
            <stop stop-color="#FF85AE" offset="0%"></stop>
            <stop stop-color="#FF7DA9" offset="31.7%"></stop>
            <stop stop-color="#FF669A" offset="81.6%"></stop>
            <stop stop-color="#FF5C93" offset="100%"></stop>
        </linearGradient>
        <linearGradient x1="0.000559603538%" y1="49.9846677%" x2="100.005111%" y2="49.9846677%" id="linearGradient-3">
            <stop stop-color="#FFB0CB" offset="0.3%"></stop>
            <stop stop-color="#F383A9" offset="79.2%"></stop>
            <stop stop-color="#F0769F" offset="100%"></stop>
        </linearGradient>
        <linearGradient x1="32.0377981%" y1="49.9906772%" x2="105.06641%" y2="49.9906772%" id="linearGradient-4">
            <stop stop-color="#F697B7" offset="0%"></stop>
            <stop stop-color="#F78FB2" offset="33.5%"></stop>
            <stop stop-color="#F878A3" offset="86.2%"></stop>
            <stop stop-color="#F9719F" offset="100%"></stop>
        </linearGradient>
        <linearGradient x1="0.00140325893%" y1="49.9679135%" x2="99.9990376%" y2="49.9679135%" id="linearGradient-5">
            <stop stop-color="#F78FB2" offset="0%"></stop>
            <stop stop-color="#F887AD" offset="27.2%"></stop>
            <stop stop-color="#FC709F" offset="70.3%"></stop>
            <stop stop-color="#FF5C93" offset="100%"></stop>
        </linearGradient>
        <linearGradient x1="49.9948892%" y1="16.9548892%" x2="49.9948892%" y2="91.0977794%" id="linearGradient-6">
            <stop stop-color="#4FE8FF" offset="0%"></stop>
            <stop stop-color="#4BDDF3" offset="49.7%"></stop>
            <stop stop-color="#45CEE3" offset="100%"></stop>
        </linearGradient>
    </defs>
    <g id="Page-1" stroke="none" stroke-width="1" fill="none" fill-rule="evenodd">
        <g id="vanilla-extract" transform="translate(0.120041, 0.450000)">
            <path d="M94.8199592,63.66 C94.5899592,63.77 94.3599592,63.91 94.1299592,64.05 C94.1199592,62.59 93.3499592,61.88 92.8099592,61.11 C90.2099592,57.39 85.1899592,58.8 83.7099592,62.22 C83.5099592,62.69 86.7699592,66.94 86.6299592,67.4 C84.4699592,68.37 82.3899592,70.6 81.9699592,72.55 C82.3999592,70.54 80.8999592,69.6 78.6299592,70.35 C76.3599592,71.1 74.2099592,73.26 73.8999592,75.26 C74.2199592,73.26 72.5999592,72.17 70.2799592,72.73 C67.9599592,73.29 65.8899592,75.28 65.6799592,77.27 C65.8899592,75.28 64.1499592,74.03 61.8099592,74.38 C59.4699592,74.73 57.4699592,76.55 57.3699592,78.53 C57.4599592,76.54 55.6199592,75.13 53.2599592,75.26 C50.8999592,75.39 48.9899592,77.03 49.0099592,79.02 C48.9899592,77.04 47.0499592,75.44 44.6899592,75.36 C42.3299592,75.28 40.5099592,76.73 40.6399592,78.72 C40.5099592,76.73 38.4699592,74.96 36.1299592,74.66 C33.7799592,74.36 32.0699592,75.64 32.3099592,77.63 C32.0699592,75.64 29.9499592,73.69 27.6299592,73.18 C25.3099592,72.67 23.7099592,73.79 24.0599592,75.79 C23.7099592,73.8 21.5199592,71.68 19.2299592,70.97 C16.9399592,70.27 15.4599592,71.24 15.9299592,73.24 C15.4699592,71.24 10.4199592,62.79 9.86995918,61.54 C8.38995918,58.12 5.53995918,57.04 3.09995918,59.26 C2.09995918,60.17 1.47995918,61.82 1.98995918,64.25 C0.399959179,63.81 -0.390040821,64.58 0.189959179,66.27 C3.35995918,75.53 6.48995918,84.95 9.08995918,94.42 C10.1999592,98.47 11.3499592,103.72 14.6099592,106.74 C16.9499592,108.9 19.8699592,110.4 22.6799592,111.61 C31.0699592,115.21 40.3799592,116.31 49.0499592,116.37 C58.3299592,116.43 70.1299592,114.19 78.3399592,109.52 C81.4499592,107.76 84.4099592,105.71 85.7999592,102.26 C88.0899592,96.54 89.7499592,90.54 91.4999592,84.8 C93.4899592,78.28 94.9899592,71.36 97.5699592,65.27 C98.2099592,63.27 96.9899592,62.58 94.8199592,63.66 Z" id="Path" fill="#48A2AD" fill-rule="nonzero"></path>
            <ellipse id="Oval" fill="url(#radialGradient-1)" fill-rule="nonzero" cx="48.7399592" cy="71.86" rx="45.01" ry="18.09"></ellipse>
            <path d="M86.9599592,46.03 C86.1199592,45.18 85.0899592,44.38 83.8599592,43.68 C83.8599592,43.68 55.1799592,53.01 35.2199592,52 C15.2599592,50.99 18.1999592,48.81 8.05995918,55.27 C8.05995918,55.27 5.28995918,59.23 8.66995918,61.64 C13.0899592,64.79 18.6699592,67.39 24.7899592,69.37 C25.5299592,68.83 26.2699592,68.49 26.8999592,68.49 C45.9299592,61.88 82.9499592,70.26 86.9599592,46.03 L86.9599592,46.03 Z" id="Path" fill="url(#linearGradient-2)" fill-rule="nonzero"></path>
            <path d="M86.9599592,46.03 C82.9499592,70.26 45.9299592,61.88 26.9099592,68.49 C26.2799592,68.49 25.5399592,68.82 24.7999592,69.37 C40.1499592,74.33 58.9299592,75.34 71.4699592,71.17 C87.2199592,65.95 94.3299592,53.5 86.9599592,46.03 L86.9599592,46.03 Z" id="Path" fill="#EB5E8E" fill-rule="nonzero"></path>
            <path d="M78.8299592,28.18 C78.8299592,28.18 84.2599592,31.4 84.2599592,39.73 C84.2599592,48.06 77.3299592,58.86 46.5799592,55.77 C16.0999592,52.7 8.22995918,55.3 8.22995918,55.3 C8.22995918,55.3 -1.11004082,42.62 18.4099592,42.69 C35.8799592,42.75 61.8599592,44.81 67.9799592,40.93 C77.0899592,35.13 77.4299592,34.97 78.8299592,28.18 L78.8299592,28.18 Z" id="Path" fill="url(#linearGradient-3)" fill-rule="nonzero"></path>
            <path d="M43.3299592,21.99 C52.7899592,16.08 52.2799592,7.49 47.7699592,0.18 C47.2799592,0.46 46.9899592,1.05 47.2399592,1.66 C48.2299592,4.04 49.1099592,7.4 47.5099592,9.66 C44.7999592,13.48 39.7799592,14.45 31.5699592,19.03 C23.7399592,23.39 20.7299592,27.55 20.1799592,32.77 C20.1299592,33.26 20.4099592,33.73 20.8699592,33.96 C21.7499592,34.4 23.4299592,35.12 25.9699592,35.78 C28.7299592,28.95 37.0399592,25.13 43.3299592,21.99 L43.3299592,21.99 Z" id="Path" fill="#F77CA5" fill-rule="nonzero"></path>
            <path d="M63.9699592,11 C59.7399592,6.44 54.7399592,2.72 48.9499592,0.12 C48.5299592,-0.07 48.0999592,-0.01 47.7599592,0.18 C52.2699592,7.48 52.7799592,16.07 43.3199592,21.99 C37.0399592,25.13 28.7299592,28.95 25.9599592,35.78 C28.7199592,36.5 32.4999592,37.15 37.4199592,37.3 C49.4799592,37.66 65.7299592,37 68.4899592,32.27 C71.2599592,27.55 68.9499592,16.37 63.9699592,11 L63.9699592,11 Z" id="Path" fill="url(#linearGradient-4)" fill-rule="nonzero"></path>
            <path d="M77.9799592,26.55 C78.2099592,25.97 78.3799592,25.37 78.4999592,24.77 C75.2599592,19.81 67.6799592,18.29 67.6799592,18.29 C75.8999592,35.79 33.1199592,31.98 20.9999592,32.7 C15.8399592,33.01 12.8799592,35.28 11.1699592,37.8 C13.6999592,36.48 16.6599592,35.75 19.6299592,34.76 C38.7699592,30.2 69.7699592,49.35 77.9799592,26.55 Z" id="Path" fill="#F79EBC" fill-rule="nonzero"></path>
            <path d="M79.6999592,27.51 C79.4638567,26.5333216 79.0576575,25.6058335 78.4999592,24.77 C78.3799592,25.38 78.2099592,25.97 77.9799592,26.55 C69.7699592,49.35 38.7699592,30.2 19.6199592,34.76 C16.6599592,35.75 13.6899592,36.47 11.1599592,37.8 C8.84995918,41.19 8.83995918,45.01 8.83995918,45.01 C21.3099592,41.23 30.5099592,45.03 54.4799592,45.38 C78.4499592,45.71 81.4199592,34.67 79.6999592,27.51 L79.6999592,27.51 Z" id="Path" fill="url(#linearGradient-5)" fill-rule="nonzero"></path>
            <path d="M94.8399592,70.59 C92.6499592,71.61 90.3599592,73.95 89.7899592,75.9 C90.3699592,73.95 89.0199592,73.12 86.7799592,73.95 C84.5299592,74.78 82.2899592,76.93 81.8199592,78.84 C82.2899592,76.93 80.8099592,75.98 78.5199592,76.62 C76.2299592,77.26 74.0399592,79.23 73.6899592,81.11 C74.0499592,79.23 72.4499592,78.15 70.1299592,78.6 C67.8099592,79.05 65.6899592,80.85 65.4499592,82.71 C65.6999592,80.85 63.9799592,79.63 61.6399592,79.89 C59.2899592,80.15 57.2599592,81.79 57.1299592,83.63 C57.2599592,81.79 55.4499592,80.42 53.0899592,80.49 C50.7299592,80.56 48.7899592,82.04 48.7699592,83.88 C48.7899592,82.04 46.8799592,80.52 44.5199592,80.4 C42.1699592,80.28 40.3199592,81.61 40.4199592,83.46 C40.3299592,81.61 38.3299592,79.94 35.9799592,79.63 C33.6399592,79.32 31.8999592,80.51 32.1099592,82.37 C31.8999592,80.51 29.8299592,78.66 27.5099592,78.17 C25.1899592,77.68 23.5799592,78.72 23.8899592,80.61 C23.5699592,78.72 21.4299592,76.71 19.1499592,76.02 C16.8699592,75.33 15.3799592,76.26 15.8099592,78.18 C15.3799592,76.26 13.1799592,74.06 10.9499592,73.19 C8.71995918,72.32 7.35995918,73.12 7.89995918,75.08 C7.35995918,73.12 5.11995918,70.73 2.94995918,69.67 C0.779959179,68.61 -0.440040821,69.3 0.199959179,71.31 C2.77995918,77.37 4.28995918,84.16 6.27995918,90.44 C8.03995918,95.97 9.69995918,101.7 11.9999592,107.03 C13.3899592,110.25 16.3299592,111.95 19.4699592,113.37 C28.4599592,117.42 38.9599592,118.47 48.6999592,118.56 C57.4999592,118.65 66.6199592,117.88 75.0099592,115.09 C77.8299592,114.15 80.7499592,112.98 83.0899592,111.11 C86.3599592,108.5 87.5099592,103.51 88.6299592,99.65 C91.2999592,90.41 94.4499592,81.4 97.5499592,72.3 C98.2299592,70.28 97.0299592,69.57 94.8399592,70.59 Z" id="Path" fill="url(#linearGradient-6)" fill-rule="nonzero"></path>
            <circle id="Oval" fill="#B8EB96" fill-rule="nonzero" cx="21.6299592" cy="43.8" r="2"></circle>
            <circle id="Oval" fill="#EBD3DB" fill-rule="nonzero" cx="34.6299592" cy="51.05" r="2"></circle>
            <circle id="Oval" fill="#EB5E8E" fill-rule="nonzero" cx="22.1299592" cy="58.55" r="2"></circle>
            <circle id="Oval" fill="#3DC2EB" fill-rule="nonzero" cx="36.8799592" cy="29.05" r="2"></circle>
            <circle id="Oval" fill="#FFA600" fill-rule="nonzero" cx="47.6299592" cy="42.8" r="2"></circle>
            <circle id="Oval" fill="#79EB2D" fill-rule="nonzero" cx="80.3799592" cy="57.8" r="2"></circle>
            <circle id="Oval" fill="#FFF000" fill-rule="nonzero" cx="55.8799592" cy="21.8" r="2"></circle>
            <circle id="Oval" fill="#8052FF" fill-rule="nonzero" cx="66.3799592" cy="45.05" r="2"></circle>
            <circle id="Oval" fill="#5EEBB3" fill-rule="nonzero" cx="71.3799592" cy="30.05" r="2"></circle>
            <circle id="Oval" fill="#A45EEB" fill-rule="nonzero" cx="57.1299592" cy="60.3" r="2"></circle>
            <g id="Group" stroke-linecap="round" stroke-linejoin="round" transform="translate(13.379959, 80.050000)" opacity="0.56" stroke="#49A5B0" stroke-width="3">
                <line x1="0" y1="0" x2="6" y2="25.75" id="Path"></line>
                <line x1="71" y1="0.08" x2="65" y2="26" id="Path"></line>
            </g>
            <g id="Group" stroke-linecap="round" stroke-linejoin="round" transform="translate(25.839959, 83.220000)" opacity="0.56" stroke="#49A5B0" stroke-width="3">
                <line x1="7.10542736e-15" y1="0.91" x2="3.5" y2="26.41" id="Path"></line>
                <line x1="46.08" y1="0" x2="42.58" y2="25.5" id="Path"></line>
            </g>
            <g id="Group" stroke-linecap="round" stroke-linejoin="round" transform="translate(36.709959, 84.630000)" opacity="0.56" stroke="#49A5B0" stroke-width="3">
                <line x1="0" y1="0.92" x2="2.34" y2="27.09" id="Path"></line>
                <line x1="24.34" y1="1.42108547e-14" x2="22" y2="26.17" id="Path"></line>
            </g>
            <line x1="49.0499592" y1="87.22" x2="49.3799592" y2="112.38" id="Path" stroke="#49A5B0" stroke-width="3" opacity="0.56" stroke-linecap="round" stroke-linejoin="round"></line>
            <path d="M51.2299592,4.64 C55.0899592,6.84 58.6299592,9.65 61.7699592,13.05 C63.1499592,14.54 64.4199592,16.79 65.3199592,19.39 C65.6499592,20.35 66.4499592,21.07 67.4299592,21.31 C68.4699592,21.57 73.7799592,23.03 75.9899592,26.41 C76.3699592,27 76.6299592,27.59 76.7799592,28.21 C76.8699592,28.6 76.9499592,29.03 77.0099592,29.47 C77.0999592,30.17 77.4399592,30.82 77.9599592,31.3 C79.1899592,32.43 81.2599592,35.03 81.2699592,39.73 C81.2699592,40.83 81.1199592,41.89 80.8199592,42.89 C80.5099592,43.96 80.7999592,45.11 81.5999592,45.88 C81.9899592,46.26 82.4599592,46.52 82.9699592,46.65 C83.6699592,47.1 84.2999592,47.6 84.8299592,48.15 C87.9599592,51.32 86.9499592,54.98 85.5499592,57.5 C84.9999592,58.48 85.0499592,59.69 85.6799592,60.62 C86.2399592,61.46 87.1799592,61.95 88.1699592,61.95 C88.2799592,61.95 88.3999592,61.94 88.5199592,61.93 C88.5999592,61.92 88.6899592,61.92 88.7699592,61.92 C89.4099592,61.92 89.9299592,62.22 90.3599592,62.83 C90.4799592,63 90.5999592,63.16 90.7299592,63.33 C91.1399592,63.87 91.1399592,63.91 91.1499592,64.09 C91.1599592,65.17 91.7599592,66.17 92.7099592,66.69 C93.0199592,66.86 93.3499592,66.97 93.6899592,67.02 C93.4299592,67.75 93.1599592,68.52 92.8899592,69.33 C92.5399592,70.38 92.7999592,71.54 93.5699592,72.34 C93.7599592,72.54 93.9699592,72.71 94.1999592,72.85 L93.5199592,74.84 C90.8599592,82.64 88.0999592,90.7 85.7499592,98.81 C85.6399592,99.17 85.5399592,99.55 85.4299592,99.93 C84.4899592,103.24 83.4299592,107 81.2199592,108.76 C79.1499592,110.41 76.4399592,111.44 74.0699592,112.23 C67.3399592,114.47 59.4799592,115.55 50.0399592,115.55 C49.6099592,115.55 49.1699592,115.55 48.7399592,115.54 C36.8099592,115.42 27.8999592,113.85 20.7099592,110.61 C17.8199592,109.31 15.6999592,107.99 14.7599592,105.82 C12.9099592,101.55 11.4599592,96.9 10.0499592,92.39 C9.74995918,91.43 9.44995918,90.46 9.13995918,89.51 C8.48995918,87.47 7.87995918,85.31 7.27995918,83.23 C6.13995918,79.23 4.96995918,75.11 3.39995918,71.2 C3.48995918,71.11 3.56995918,71.01 3.63995918,70.9 C4.19995918,70.12 4.33995918,69.11 4.02995918,68.2 L3.63995918,67.06 C3.60995918,66.98 3.58995918,66.9 3.55995918,66.82 C3.73995918,66.71 3.90995918,66.58 4.05995918,66.44 C4.8192988,65.7184178 5.15207289,64.6558096 4.93995918,63.63 C4.69995918,62.49 4.85995918,61.73 5.13995918,61.48 C5.43995918,61.21 5.66995918,61.11 5.77995918,61.11 C5.78995918,61.11 5.82995918,61.11 5.88995918,61.14 C6.7939204,61.5087149 7.82111845,61.411598 8.63995918,60.88 C9.45995918,60.35 9.96995918,59.46 10.0099592,58.48 C10.0299592,58.03 10.2399592,57.53 10.3999592,57.22 C10.7599592,56.82 11.0099592,56.33 11.1199592,55.79 C11.2799592,54.99 11.1099592,54.15 10.6299592,53.48 C9.81995918,52.32 8.72995918,50.07 9.05995918,48.58 C9.14995918,48.16 9.37995918,47.61 10.3599592,47.05 C11.2199592,46.56 11.7799592,45.68 11.8599592,44.69 C11.9299592,43.8 12.2499592,41.51 13.6399592,39.47 C15.0899592,37.34 17.3999592,36.09 20.4899592,35.76 C21.9179446,35.6127363 23.0392117,34.4704716 23.1599592,33.04 L23.1599592,32.98 C23.5299592,29.73 25.0199592,26.1 33.0199592,21.64 C35.7999592,20.09 38.1999592,18.97 40.3199592,17.98 C44.4599592,16.05 47.7299592,14.52 49.9499592,11.39 C51.2299592,9.6 51.6499592,7.31 51.2299592,4.64 M48.4199592,-7.10542736e-15 C48.1799592,-7.10542736e-15 47.9599592,0.07 47.7599592,0.18 C47.2699592,0.46 46.9799592,1.05 47.2299592,1.66 C48.2199592,4.04 49.0999592,7.4 47.4999592,9.66 C44.7899592,13.48 39.7699592,14.45 31.5599592,19.03 C23.7399592,23.39 20.7299592,27.55 20.1799592,32.77 L20.1799592,32.79 C15.5299592,33.28 12.7799592,35.42 11.1599592,37.8 C9.37995918,40.42 8.96995918,43.29 8.86995918,44.46 C3.16995918,47.73 7.63995918,54.45 8.16995918,55.21 C8.12995918,55.23 8.09995918,55.26 8.05995918,55.28 C8.05995918,55.28 7.06995918,56.7 6.99995918,58.36 C6.59995918,58.2 6.18995918,58.12 5.76995918,58.12 C4.87995918,58.12 3.96995918,58.49 3.10995918,59.28 C2.10995918,60.19 1.48995918,61.84 1.99995918,64.27 C1.69995918,64.19 1.43995918,64.15 1.19995918,64.15 C0.159959179,64.15 -0.270040821,64.91 0.199959179,66.29 C0.529959179,67.25 0.849959179,68.22 1.17995918,69.18 C0.179959179,69.19 -0.250040821,69.93 0.179959179,71.3 C2.75995918,77.36 4.26995918,84.15 6.25995918,90.43 C8.01995918,95.96 9.67995918,101.69 11.9799592,107.02 C13.3699592,110.24 16.3099592,111.94 19.4499592,113.36 C28.4399592,117.41 38.9399592,118.46 48.6799592,118.55 C49.1199592,118.55 49.5699592,118.56 50.0099592,118.56 C58.3899592,118.56 67.0199592,117.73 74.9899592,115.09 C77.8099592,114.15 80.7299592,112.98 83.0699592,111.11 C86.3399592,108.5 87.4899592,103.51 88.6099592,99.65 C91.2799592,90.41 94.4299592,81.4 97.5299592,72.3 C97.9999592,70.92 97.5599592,70.15 96.5199592,70.15 C96.2799592,70.15 96.0099592,70.19 95.7099592,70.27 C96.2699592,68.57 96.8699592,66.91 97.5499592,65.3 C97.9899592,63.92 97.5599592,63.16 96.5499592,63.16 C96.0799592,63.16 95.4899592,63.32 94.8099592,63.66 C94.5799592,63.77 94.3499592,63.91 94.1199592,64.05 C94.1099592,62.59 93.3399592,61.88 92.7999592,61.11 C91.7199592,59.57 90.2299592,58.92 88.7499592,58.92 C88.5499592,58.92 88.3499592,58.93 88.1499592,58.95 C90.6799592,54.4 90.4999592,49.64 86.9499592,46.04 C86.1099592,45.19 85.0799592,44.39 83.8499592,43.69 L83.6799592,43.74 C84.0799592,42.38 84.2499592,41.03 84.2499592,39.73 C84.2499592,33.87 81.5599592,30.55 79.9699592,29.09 C79.8999592,28.55 79.8099592,28.02 79.6799592,27.51 C79.4438567,26.5333216 79.0376575,25.6058335 78.4799592,24.77 C75.7199592,20.55 69.8299592,18.82 68.1399592,18.4 C67.1499592,15.57 65.7299592,12.92 63.9599592,11.01 C59.7299592,6.45 54.7299592,2.73 48.9399592,0.13 C48.7799592,0.04 48.5999592,-7.10542736e-15 48.4199592,-7.10542736e-15 Z" id="Shape" fill="#424242" fill-rule="nonzero" opacity="0.2"></path>
        </g>
    </g>
</svg>