<svg xmlns="http://www.w3.org/2000/svg" height="248" width="248" viewBox="0 0 250 250">
 <path d="m193.05 228.71c-19.55 12.89-42.97 20.39-68.14 20.39-68.489 0-124-55.52-124-124-0.0025-68.485 55.511-124 124-124 68.485 0 124 55.518 124 124 0 33.646-13.401 64.164-35.156 86.502l2.0419 13.711c0.0263 0.1524 0.041 0.27531 0.041 0.43426 0 1.5912-1.2766 2.8875-2.8219 2.9645h-19.96z" fill="#fff"/>
 <path d="m136.54 102.08c-1.7666 4.5558 5.8995 6.0749 6.3665 10.965 0.27859 2.8924-0.33923 5.7012-2.9382 7.8021h-29.011c-4.1492-2.958-5.1915-7.0056-5.0605-9.041 0.20321-3.1349 2.5581-6.3485 8.3888-10.298 7.6694-5.1949 4.3852-10.195 4.3852-10.195 4.9932 1.3454 2.7548 7.7431 2.7548 7.7431 7.7742-4.7884-0.53096-12.227-0.53096-12.227s7.2368 1.0947 8.4019 8.2118c1.1652 7.1155-8.1905 7.2777-7.5858 15.335 0.51621 6.8401 7.3105 7.4792 7.3105 7.4792s-7.748-4.1001-1.6322-12.482c4.1444-5.6782 7.9119-9.1901 5.675-14.902 0 0 7.0761 2.3155 3.4758 11.609" fill-rule="evenodd" fill="#c00"/>
 <path d="m124.06 7.623c-64.309 0-116.44 52.132-116.44 116.45-0.0048 64.31 52.131 116.45 116.44 116.45 64.32 0 116.45-52.14 116.45-116.45 0-64.315-52.13-116.45-116.45-116.45zm0 5.395c61.34 0 111.06 49.719 111.06 111.05 0 61.34-49.72 111.05-111.06 111.05-61.331 0-111.05-49.71-111.05-111.05 0-61.333 49.719-111.05 111.05-111.05z" fill-rule="evenodd" transform="scale(1.0081)" fill="#ccc"/>
 <path d="m124.06 18.35c-58.383 0-105.72 47.33-105.72 105.72 0.004 58.39 47.337 105.72 105.72 105.72 58.39 0 105.72-47.33 105.72-105.72 0-58.389-47.33-105.72-105.72-105.72zm2 7.115v0.002l0.06 0.969-0.12 0.005c-0.74 0.061-1.2 0.154-1.4 0.258-0.07 0.038-0.12 0.096-0.14 0.176-0.05 0.114-0.07 0.484-0.06 1.139 0.03 0.99 0.06 1.837 0.12 2.545l0.37 5.406c0.08 1.094 0.24 3.131 0.49 6.119l0.01 0.174-1.29-0.299-0.26-0.037c-0.06-0.016-0.12-0.046-0.17-0.08-0.07-0.046-0.22-0.197-0.46-0.436-0.64-0.665-1.11-1.17-1.42-1.511l-1.5-1.735-7.98-8.713 0.58 8.252c0.05 0.73 0.13 1.591 0.25 2.582 0.07 0.628 0.15 0.98 0.21 1.09 0.04 0.076 0.1 0.122 0.17 0.149 0.21 0.078 0.67 0.104 1.42 0.06l0.12-0.008 0.07 0.973-0.13-0.004c-0.63-0.007-1.32 0.014-2.07 0.066-0.82 0.059-1.72 0.149-2.68 0.268l-0.13 0.016-0.07-0.967 0.13-0.012c0.75-0.058 1.21-0.152 1.41-0.266 0.06-0.039 0.11-0.091 0.14-0.16 0.04-0.125 0.07-0.497 0.06-1.144-0.03-0.99-0.07-1.844-0.12-2.561l-0.64-9.154c-0.02-0.25-0.04-0.385-0.07-0.432-0.05-0.105-0.17-0.243-0.38-0.416-0.12-0.091-0.25-0.146-0.4-0.162-0.15-0.023-0.51-0.022-1.09 0.012l-0.13 0.004-0.06-0.963 0.13-0.008c1.19-0.052 1.93-0.09 2.24-0.109 0.52-0.038 1.03-0.087 1.54-0.151l1.57 1.789 2.41 2.707 3.51 3.866c1.12 1.225 2.02 2.196 2.7 2.898 0.32 0.346 0.6 0.637 0.84 0.869l-0.55-7.883c-0.05-0.731-0.14-1.588-0.26-2.57-0.07-0.629-0.14-0.981-0.2-1.103-0.04-0.069-0.1-0.111-0.17-0.139-0.21-0.078-0.68-0.104-1.42-0.059l-0.13 0.008-0.07-0.969 0.14-0.004c0.83-0.027 1.68-0.074 2.54-0.134 0.81-0.057 1.54-0.121 2.2-0.198l0.14-0.015zm2.35 0.234l0.14 0.024c0.77 0.123 1.97 0.309 3.62 0.554 1.33 0.195 2.22 0.322 2.67 0.375 0.48 0.059 1.6 0.171 3.34 0.342 1.27 0.125 2.2 0.209 2.78 0.25l0.15 0.01-0.03 0.15c-0.19 0.821-0.39 2.045-0.62 3.67l-0.02 0.119-0.93-0.109 0.06-1.203c0.02-0.659 0.03-1.022 0.02-1.102-0.01-0.079-0.03-0.119-0.04-0.133-0.19-0.104-0.53-0.174-1.14-0.287-0.6-0.11-1.08-0.188-1.43-0.232l-1.18-0.145c-0.15 0.693-0.29 1.614-0.43 2.758l-0.8 6.539c-0.13 1.01-0.24 1.999-0.34 2.959-0.06 0.73-0.06 1.113-0.02 1.217 0.06 0.117 0.16 0.208 0.31 0.287 0.15 0.073 0.63 0.169 1.48 0.291l0.12 0.016-0.12 0.974-0.13-0.023c-1.26-0.215-2.2-0.361-2.84-0.438-0.28-0.032-1.38-0.141-3.32-0.318l-0.13-0.012 0.12-0.97 0.12 0.011c0.86 0.088 1.35 0.113 1.52 0.081 0.18-0.04 0.28-0.106 0.33-0.176 0.09-0.106 0.18-0.425 0.28-1.004l0.43-3.166 0.8-6.516c0.04-0.312 0.07-0.655 0.1-1.029l0.16-1.77-1.46-0.181c-0.91-0.109-1.63-0.163-2.17-0.155-0.17 0.004-0.23 0.037-0.25 0.061-0.07 0.088-0.18 0.446-0.34 1.137l-0.28 1.23-0.9-0.113 0.02-0.125c0.21-1.779 0.32-3.011 0.34-3.703l0.01-0.145zm14.98 1.963l0.12 0.035c1.31 0.382 2.33 0.661 3.05 0.84 0.69 0.174 1.71 0.401 3.06 0.686l0.14 0.029-0.24 0.947-0.13-0.027c-0.83-0.195-1.32-0.27-1.49-0.254-0.17 0.015-0.28 0.06-0.35 0.125-0.09 0.098-0.23 0.403-0.39 0.969-0.04 0.141-0.31 1.171-0.81 3.086l-1.26 5.058c-0.25 0.992-0.48 1.955-0.69 2.901-0.15 0.712-0.2 1.092-0.17 1.205 0.04 0.12 0.12 0.224 0.26 0.32 0.15 0.091 0.62 0.246 1.44 0.469l0.13 0.033-0.24 0.951-0.13-0.037c-1.46-0.427-2.42-0.699-2.88-0.812l-3.36-0.741 0.24-0.951 0.12 0.031c0.84 0.191 1.31 0.275 1.49 0.262 0.18-0.019 0.29-0.066 0.36-0.131 0.09-0.099 0.22-0.403 0.38-0.968 0.05-0.15 0.32-1.182 0.82-3.09l1.26-5.059c0.25-0.99 0.48-1.957 0.69-2.91 0.16-0.717 0.19-1.093 0.15-1.195-0.03-0.113-0.11-0.22-0.25-0.311s-0.61-0.254-1.44-0.478l-0.12-0.03 0.24-0.953zm-46.249 1.693v0.002l7.609 9.623c1.23 1.553 2.02 2.513 2.38 2.885 0.19 0.207 0.36 0.312 0.49 0.336 0.15 0.029 0.48-0.022 1.03-0.174l0.12-0.033 0.29 0.986-0.13 0.032c-1.09 0.24-1.84 0.419-2.26 0.543l-3.4 1.115-0.29-0.986 0.12-0.034c0.77-0.242 1.21-0.398 1.35-0.474 0.15-0.083 0.21-0.15 0.23-0.188 0.03-0.06 0.03-0.124 0.01-0.197-0.04-0.137-0.14-0.312-0.3-0.533l-2.18-2.867-5.774 1.689-0.299 3.02c-0.052 0.556-0.041 0.926 0.017 1.13 0.021 0.077 0.062 0.123 0.104 0.151 0.071 0.054 0.176 0.081 0.324 0.072 0.255-0.015 0.699-0.11 1.338-0.287l0.123-0.037 0.289 0.99-0.131 0.029c-1.174 0.275-2.045 0.494-2.619 0.659-0.662 0.195-1.377 0.438-2.143 0.732l-0.127 0.049-0.291-0.992 0.124-0.034c0.544-0.167 0.852-0.28 0.955-0.343 0.107-0.072 0.191-0.164 0.261-0.291 0.069-0.122 0.145-0.439 0.223-0.977 0.044-0.301 0.19-1.442 0.443-3.422l0.785-6.847c0.087-0.751 0.248-2.413 0.489-4.994l0.84-0.333zm60.129 2.549c1.17 0.021 2.4 0.282 3.69 0.778 0.61 0.234 1.16 0.49 1.65 0.769 0.5 0.272 1.08 0.654 1.74 1.154 0.67 0.487 1.07 0.78 1.22 0.877l0.14 0.082-0.11 0.11c-0.29 0.323-0.54 0.654-0.75 0.99-0.33 0.553-0.67 1.208-1 1.971l-0.05 0.113-0.87-0.332 0.51-1.355c0.19-0.667 0.03-1.268-0.47-1.831-0.5-0.56-1.37-1.093-2.63-1.574-0.94-0.344-1.78-0.518-2.51-0.527-0.74-0.011-1.45 0.141-2.14 0.465-0.68 0.32-1.33 0.81-1.95 1.486-0.61 0.66-1.15 1.587-1.62 2.787-0.8 2.099-0.84 4.013-0.12 5.744 0.71 1.727 2.07 2.975 4.07 3.739 0.9 0.344 1.78 0.535 2.64 0.566 0.59 0.024 1.22-0.061 1.88-0.248l0.12-0.033 0.15 0.474-0.85 0.918c-0.99 0.121-1.88 0.127-2.71 0.02-0.82-0.096-1.69-0.315-2.57-0.656-1.05-0.402-1.96-0.913-2.76-1.534-0.78-0.621-1.42-1.318-1.91-2.093-0.46-0.776-0.79-1.567-0.97-2.373-0.18-0.805-0.24-1.625-0.17-2.457 0.06-0.842 0.27-1.71 0.61-2.604 0.87-2.264 2.34-3.857 4.42-4.769 1.04-0.46 2.15-0.678 3.32-0.657zm-60.067 1.108l-0.662 6.773 4.829-1.41-4.167-5.363zm-17.141 3.193l0.452 0.871-0.114 0.061c-0.754 0.405-1.172 0.669-1.289 0.795-0.117 0.123-0.167 0.228-0.177 0.322-0.005 0.136 0.097 0.451 0.347 0.982 0.062 0.139 0.538 1.091 1.426 2.858l3.471 6.722c0.331 0.647 0.619 1.175 0.859 1.588 0.707-0.312 1.398-0.64 2.072-0.988 1.746-0.902 2.907-1.645 3.498-2.23-0.024-0.223-0.067-0.466-0.13-0.729l-0.502-1.955 0.857-0.441 0.051 0.138c0.372 1.065 0.835 2.301 1.394 3.707l-0.037 0.147c-0.239 0.193-0.43 0.335-0.58 0.431-0.318 0.191-0.829 0.464-1.515 0.819l-5.668 2.828c-0.605 0.309-1.205 0.648-1.801 1.027l-0.119 0.076-0.369-0.714h0.001c0.343-0.465 0.501-0.731 0.541-0.875 0.025-0.07 0.03-0.151 0.01-0.237-0.037-0.196-0.197-0.604-0.496-1.228-0.445-0.927-0.711-1.477-0.801-1.649l-2.781-5.383c-0.466-0.903-0.932-1.787-1.398-2.642-0.356-0.641-0.58-0.948-0.674-1-0.099-0.062-0.237-0.089-0.402-0.063-0.163 0.02-0.619 0.206-1.389 0.586l-0.111 0.053-0.45-0.867 0.121-0.059c1.571-0.743 2.539-1.211 2.907-1.398 0.406-0.21 1.296-0.705 2.681-1.487l0.115-0.066zm94.548 3.145c1 0.816 1.86 1.476 2.67 2.058 0.81 0.595 1.64 1.161 2.48 1.696l0.12 0.076-0.58 0.791c-0.8-0.558-1.22-0.811-1.39-0.858-0.17-0.055-0.29-0.049-0.36-0.013-0.13 0.05-0.37 0.282-0.74 0.744-0.09 0.117-0.73 0.971-1.91 2.556l-2.45 3.371c-0.94 1.309-1.47 2.21-1.62 2.715-0.13 0.509-0.13 1.012 0.01 1.514 0.11 0.38 0.34 0.791 0.69 1.238 0.35 0.438 0.8 0.855 1.35 1.25 0.63 0.467 1.25 0.793 1.86 0.987 0.62 0.191 1.12 0.258 1.51 0.203 0.42-0.052 0.78-0.183 1.11-0.385 0.33-0.197 0.7-0.528 1.12-1.004 0.44-0.476 0.94-1.109 1.52-1.9l2.03-2.805c0.6-0.824 1.18-1.641 1.73-2.449 0.42-0.6 0.6-0.938 0.6-1.045 0.01-0.116-0.03-0.245-0.13-0.383-0.09-0.143-0.46-0.468-1.14-0.978l0.48-0.872c1.02 0.825 1.69 1.352 2.13 1.672 0.39 0.288 1.13 0.783 2.2 1.489l0.11 0.074-0.57 0.793c-0.81-0.564-1.23-0.822-1.4-0.867-0.16-0.049-0.28-0.049-0.37-0.016-0.12 0.057-0.36 0.29-0.72 0.75-0.1 0.119-0.73 0.972-1.91 2.56l-2.22 3.051c-1.09 1.499-1.96 2.49-2.61 2.951-0.65 0.469-1.42 0.736-2.3 0.809-0.67 0.052-1.39-0.061-2.17-0.334-0.78-0.27-1.55-0.685-2.32-1.246-0.9-0.65-1.6-1.326-2.1-2.031-0.5-0.711-0.79-1.387-0.87-2.018-0.08-0.626-0.04-1.185 0.11-1.676 0.2-0.637 0.74-1.544 1.59-2.716l2.93-4.028c0.6-0.826 1.17-1.637 1.73-2.437 0.41-0.607 0.58-0.944 0.59-1.051 0.01-0.119-0.02-0.253-0.13-0.391-0.08-0.135-0.46-0.456-1.14-0.974l0.48-0.871zm-102.08 0.894v0.002l0.075 0.133c0.408 0.735 1.073 1.781 1.988 3.141l-0.692 0.638-0.763-0.929c-0.428-0.506-0.664-0.775-0.723-0.831-0.062-0.055-0.105-0.069-0.123-0.07-0.02-0.005-0.062-0.005-0.129 0.018-0.081 0.034-0.374 0.205-0.904 0.529-0.52 0.322-0.928 0.578-1.221 0.781l-0.969 0.684c0.35 0.618 0.858 1.391 1.52 2.336l3.777 5.402c0.585 0.834 1.165 1.641 1.739 2.42 0.434 0.585 0.696 0.866 0.8 0.916 0.117 0.05 0.248 0.058 0.412 0.016 0.163-0.049 0.587-0.3 1.299-0.782l0.666 0.735-0.113 0.072c-1.079 0.681-1.881 1.203-2.404 1.572-0.23 0.158-1.117 0.821-2.676 1.985l-0.672-0.721c0.797-0.579 1.179-0.893 1.281-1.029 0.104-0.15 0.137-0.262 0.127-0.35-0.006-0.135-0.146-0.437-0.465-0.93l-1.797-2.642-3.767-5.379c-0.181-0.259-0.381-0.535-0.606-0.832l-1.072-1.422-1.205 0.842c-0.751 0.525-1.323 0.972-1.717 1.338-0.123 0.113-0.146 0.182-0.146 0.213 0.006 0.11 0.16 0.456 0.512 1.072l0.611 1.099-0.74 0.518c-1.109-1.565-1.846-2.559-2.293-3.086l-0.096-0.111 0.125-0.078c0.653-0.423 1.673-1.091 3.059-2.008 1.121-0.746 1.864-1.249 2.23-1.506 0.398-0.278 1.305-0.943 2.721-1.986 1.027-0.76 1.77-1.313 2.23-1.672l0.121-0.098zm51.531 7.856c41.96 0 75.97 34.012 75.97 75.97 0 41.96-34.01 75.97-75.97 75.97-41.953 0-75.964-34.01-75.964-75.97 0-41.958 34.011-75.97 75.964-75.97zm65.99 2.699c0.87 0.985 1.37 1.543 1.58 1.765 0.36 0.382 0.72 0.747 1.09 1.1l-0.4 2.352-0.59 3.576-0.8 5.158c-0.25 1.643-0.44 2.953-0.55 3.924-0.07 0.463-0.12 0.864-0.15 1.201l5.78-5.391c0.54-0.499 1.15-1.104 1.84-1.818 0.44-0.449 0.67-0.724 0.73-0.848 0.02-0.076 0.02-0.148 0-0.224-0.08-0.213-0.35-0.59-0.85-1.143l0.62-0.756c0.64 0.735 1.21 1.37 1.8 2 0.55 0.592 1.06 1.123 1.54 1.584l-0.62 0.758c-0.6-0.634-0.96-0.928-1.17-1.019-0.06-0.027-0.14-0.028-0.22 0-0.12 0.037-0.42 0.246-0.92 0.671-0.75 0.646-1.39 1.208-1.91 1.694l-3.96 3.695c-0.8 0.746-2.29 2.155-4.45 4.221l-0.13 0.121-0.58-1.188-0.13-0.23c-0.03-0.055-0.05-0.118-0.05-0.18-0.01-0.081 0.02-0.297 0.06-0.631 0.11-0.913 0.2-1.6 0.27-2.048l0.41-2.258 1.74-11.692-6.04 5.643c-0.54 0.499-1.16 1.107-1.85 1.82-0.44 0.457-0.67 0.732-0.72 0.848-0.03 0.081-0.03 0.157-0.01 0.23 0.07 0.213 0.35 0.588 0.85 1.141l-0.63 0.758-0.08-0.112c-0.39-0.492-0.84-1.012-1.35-1.56-0.57-0.605-1.2-1.241-1.9-1.914l0.62-0.756c0.61 0.637 0.97 0.935 1.18 1.018 0.07 0.027 0.14 0.033 0.21 0.007 0.13-0.039 0.43-0.252 0.92-0.671 0.76-0.644 1.4-1.214 1.92-1.704l6.72-6.255c0.18-0.173 0.27-0.274 0.29-0.323 0.05-0.107 0.08-0.287 0.08-0.556 0-0.153-0.04-0.291-0.12-0.416-0.08-0.13-0.3-0.413-0.7-0.842l0.63-0.75zm-134.24 3.189l11.297 4.791c1.814 0.769 2.971 1.23 3.468 1.389 0.273 0.086 0.466 0.097 0.598 0.053 0.141-0.044 0.41-0.246 0.818-0.641l0.815 0.637c-0.94 0.822-1.509 1.342-1.822 1.652l-2.444 2.613-0.724-0.726c0.645-0.668 0.958-1.02 1.044-1.156 0.092-0.143 0.114-0.229 0.11-0.276-0.005-0.065-0.029-0.121-0.084-0.178-0.101-0.099-0.27-0.208-0.522-0.32l-3.287-1.471-4.258 4.258 1.19 2.789c0.221 0.512 0.407 0.834 0.558 0.987 0.057 0.057 0.112 0.079 0.165 0.086 0.087 0.008 0.193-0.016 0.322-0.094 0.213-0.138 0.555-0.437 1.031-0.899l0.816 0.641c-0.998 0.893-1.655 1.505-2.08 1.926-0.486 0.488-0.995 1.045-1.525 1.67l-0.09 0.103-0.728-0.728c0.484-0.499 0.701-0.748 0.759-0.854 0.059-0.112 0.091-0.236 0.092-0.379 0-0.139-0.085-0.454-0.275-0.963-0.104-0.287-0.524-1.354-1.252-3.212l-2.6-6.385c-0.287-0.701-0.943-2.237-1.972-4.617l0.58-0.696zm1.81 3.176l2.674 6.26 3.553-3.549-6.227-2.711zm145.66 8.76l0.07 0.109c0.73 1.143 1.32 2.019 1.74 2.625 0.41 0.582 1.03 1.427 1.87 2.528l-0.73 0.671c-0.58-0.798-0.89-1.178-1.04-1.277-0.13-0.101-0.24-0.14-0.34-0.135-0.13 0.015-0.43 0.16-0.92 0.477-0.13 0.079-1.01 0.68-2.64 1.797l-4.27 2.99c-0.84 0.585-1.65 1.164-2.43 1.734-0.58 0.439-0.86 0.7-0.91 0.801-0.05 0.12-0.06 0.254-0.02 0.416 0.05 0.163 0.31 0.589 0.78 1.299l-0.73 0.664-0.07-0.111c-0.82-1.276-1.37-2.108-1.64-2.498l-2.05-2.764 0.8-0.561c0.58 0.789 0.89 1.17 1.03 1.272 0.14 0.104 0.26 0.142 0.35 0.139 0.14-0.013 0.44-0.16 0.93-0.475 0.13-0.086 1.01-0.685 2.64-1.799l4.27-2.988c0.83-0.587 1.64-1.171 2.43-1.746 0.59-0.438 0.86-0.699 0.9-0.801 0.05-0.104 0.06-0.244 0.01-0.408-0.04-0.158-0.29-0.583-0.77-1.295l0.74-0.664zm5.38 7.638l0.05 0.127c0.51 1.184 0.9 2.049 1.17 2.6 0.26 0.519 0.71 1.384 1.37 2.6l0.07 0.117-0.95 0.467-0.06-0.116c-0.4-0.782-0.64-1.213-0.71-1.324-0.07-0.099-0.13-0.139-0.17-0.15-0.05-0.011-0.09-0.008-0.14 0.015-0.05 0.026-0.19 0.143-0.43 0.373-0.76 0.711-1.37 1.301-1.81 1.772l-6.3 6.662 7.52-0.691c1.13-0.098 2.33-0.256 3.61-0.467 0.56-0.093 0.87-0.166 0.96-0.213 0.11-0.054 0.15-0.131 0.13-0.275-0.01-0.13-0.19-0.633-0.54-1.536l-0.05-0.109 0.88-0.426 0.05 0.121c0.43 0.984 0.76 1.723 1 2.207 0.25 0.499 0.6 1.178 1.07 2.034l0.06 0.115-0.87 0.431-0.06-0.111c-0.27-0.486-0.43-0.731-0.5-0.781-0.07-0.052-0.17-0.094-0.34-0.106-0.13-0.007-0.79 0.023-1.97 0.088l-9.23 0.791-2.36 0.233c-0.47 0.04-0.88 0.083-1.21 0.127-0.34 0.047-0.72 0.104-1.16 0.174l-0.65-1.122c0.56-0.543 1.49-1.496 2.87-2.921l6.92-7.422c0.74-0.794 1.15-1.248 1.24-1.391 0.04-0.075 0.06-0.16 0.06-0.26 0-0.144-0.11-0.5-0.35-1.091l-0.04-0.112 0.87-0.43zm-168.97 0.667l12.119 1.914c1.947 0.307 3.181 0.478 3.701 0.509 0.286 0.02 0.475-0.018 0.594-0.09 0.126-0.081 0.337-0.341 0.638-0.826l0.065-0.103 0.883 0.527-0.079 0.11c-0.635 0.913-1.065 1.555-1.293 1.935l-1.738 3.123-0.879-0.525 0.065-0.112c0.4-0.695 0.616-1.112 0.668-1.261 0.055-0.163 0.055-0.253 0.041-0.293-0.021-0.065-0.058-0.114-0.123-0.153-0.124-0.076-0.315-0.142-0.584-0.189l-3.545-0.631-3.102 5.16 1.83 2.42c0.337 0.444 0.597 0.71 0.778 0.818 0.069 0.043 0.128 0.054 0.181 0.045 0.086-0.011 0.183-0.059 0.287-0.168 0.178-0.185 0.44-0.555 0.787-1.119l0.067-0.109 0.881 0.531-0.076 0.112c-0.678 0.994-1.171 1.748-1.477 2.261-0.356 0.59-0.714 1.253-1.076 1.987l-0.063 0.125-0.886-0.532 0.068-0.107c0.284-0.491 0.434-0.786 0.467-0.904 0.029-0.124 0.028-0.251-0.006-0.387-0.034-0.14-0.191-0.425-0.498-0.867-0.171-0.256-0.837-1.197-1.996-2.825l-4.065-5.562c-0.448-0.61-1.457-1.942-3.029-4l0.395-0.814zm2.525 2.644l4.107 5.426 2.586-4.305-6.693-1.121zm-3.742 7.893c1.029-0.061 2.109 0.125 3.238 0.558 1.076 0.415 2.026 0.968 2.846 1.662 0.817 0.694 1.472 1.457 1.966 2.301 0.483 0.837 0.813 1.662 0.975 2.473 0.163 0.804 0.214 1.606 0.152 2.406-0.066 0.793-0.337 1.81-0.808 3.037-0.158 0.41-0.386 0.956-0.68 1.641-0.375 0.891-0.615 1.476-0.722 1.756-0.157 0.4-0.4 1.12-0.735 2.16l-0.039 0.13-0.701-0.27c-0.088-0.51-0.169-0.89-0.254-1.21-0.457-0.22-1.086-0.5-1.889-0.84-1.425-0.596-2.415-1.002-2.972-1.218l-4.293-1.651c-0.685-0.262-1.498-0.546-2.434-0.863-0.601-0.197-0.951-0.28-1.086-0.27-0.081 0.01-0.142 0.039-0.201 0.096-0.161 0.161-0.38 0.57-0.654 1.264l-0.045 0.117-0.908-0.346 0.052-0.121c0.416-0.954 0.767-1.806 1.053-2.551 0.218-0.572 0.502-1.352 0.852-2.347 0.352-1.005 0.637-1.782 0.845-2.325 0.631-1.643 1.363-2.888 2.203-3.728 0.836-0.844 1.912-1.416 3.227-1.719 0.332-0.076 0.669-0.122 1.012-0.142zm0.111 1.88c-0.283-0.014-0.56-0.009-0.83 0.012-1.081 0.078-2.03 0.457-2.85 1.143-0.817 0.681-1.522 1.786-2.119 3.334-0.299 0.782-0.543 1.599-0.73 2.453 0.348 0.153 0.919 0.392 1.711 0.709l1.507 0.625 4.194 1.607 3.269 1.223c0.478 0.177 1.088 0.389 1.832 0.641 0.391-0.654 0.734-1.363 1.03-2.133 0.318-0.833 0.521-1.591 0.609-2.276 0.094-0.697 0.087-1.315-0.016-1.859-0.1-0.549-0.339-1.136-0.714-1.76-0.376-0.619-0.931-1.199-1.682-1.744-0.756-0.558-1.586-1.007-2.486-1.353-0.967-0.371-1.875-0.578-2.725-0.622zm177.53 2.276l0.86 3.057 1 3.072c0.47 1.474 0.81 2.545 1.02 3.213 0.21 0.682 0.36 1.335 0.47 1.966l0.02 0.15h-0.14c-0.44 0.01-0.82 0.05-1.13 0.1-0.05 0-0.81 0.17-2.28 0.5l-0.12 0.02-0.27-0.88 0.13-0.04c0.7-0.201 1.32-0.44 1.87-0.703 0.04-0.392 0.03-0.802-0.05-1.232-0.13-0.789-0.31-1.564-0.54-2.323-0.05-0.161-0.17-0.521-0.37-1.074-0.18-0.481-0.32-0.845-0.41-1.086-0.76 0.207-1.48 0.404-2.15 0.594l-3.53 1.037c0.19 0.759 0.38 1.46 0.58 2.096 0.24 0.803 0.49 1.475 0.74 2.019 0.1 0.21 0.18 0.287 0.23 0.303 0.06 0.021 0.33-0.001 0.86-0.109l0.89-0.196 0.26 0.854-0.33 0.1-2.25 0.63-2.62 0.86-0.29-0.96 0.83-0.3c0.55-0.18 0.82-0.32 0.9-0.41 0.07-0.08 0.12-0.21 0.11-0.424-0.04-0.4-0.22-1.154-0.56-2.276-0.13-0.434-0.34-1.034-0.61-1.808-0.72 0.188-1.75 0.485-3.09 0.894-1.26 0.386-2.23 0.697-2.9 0.936 0.22 0.974 0.51 2.048 0.86 3.218 0.27 0.87 0.48 1.47 0.65 1.81 0.16 0.32 0.34 0.61 0.55 0.87 0.23 0 0.54-0.01 0.91-0.04 0.67-0.04 1.18-0.09 1.52-0.14l0.11-0.02 0.28 0.92-0.14 0.03c-1.5 0.26-2.72 0.54-3.68 0.83l-0.15-0.07c-0.27-0.56-0.54-1.27-0.8-2.11l-1.78-6.134-0.95-2.777 0.93-0.284 0.04 0.124c0.22 0.715 0.42 1.143 0.57 1.31 0.06 0.059 0.12 0.091 0.19 0.1 0.14 0.021 0.5-0.037 1.13-0.198 0.96-0.248 1.78-0.476 2.46-0.687l5.51-1.686c0.98-0.297 1.93-0.595 2.85-0.904 0.7-0.232 1.04-0.402 1.1-0.486 0.09-0.081 0.14-0.212 0.14-0.383 0.01-0.164-0.09-0.645-0.33-1.469l-0.04-0.123 0.94-0.281zm-187.35 11.598l0.961 0.2-0.026 0.13c-0.164 0.84-0.225 1.33-0.201 1.5 0.02 0.17 0.072 0.27 0.139 0.34 0.099 0.09 0.409 0.21 0.978 0.35 0.145 0.04 1.182 0.28 3.114 0.71l5.101 1.09c0.998 0.21 1.971 0.4 2.92 0.58 0.719 0.14 1.101 0.16 1.211 0.13 0.119-0.05 0.222-0.13 0.313-0.27 0.084-0.15 0.224-0.63 0.416-1.46l0.029-0.12 0.959 0.2-0.033 0.13c-0.373 1.47-0.61 2.44-0.709 2.9l-0.625 3.38-0.957-0.2 0.025-0.12c0.163-0.83 0.225-1.32 0.209-1.49-0.026-0.18-0.076-0.29-0.143-0.36-0.102-0.09-0.409-0.21-0.98-0.35-0.151-0.04-1.191-0.28-3.117-0.71l-5.096-1.08c-1-0.21-1.976-0.41-2.936-0.59-0.718-0.13-1.098-0.15-1.199-0.11-0.11 0.03-0.218 0.12-0.304 0.27-0.088 0.14-0.231 0.61-0.426 1.45l-0.028 0.12-0.957-0.21 0.034-0.13c0.335-1.32 0.576-2.34 0.73-3.06 0.148-0.7 0.339-1.73 0.574-3.09l0.024-0.13zm191.67 3.36l0.15 1.39 0.23 2.04c0.06 0.4 0.16 1.02 0.31 1.86 0.2 1.1 0.32 1.74 0.34 1.91 0.19 1.35 0.2 2.38 0.03 3.05-0.17 0.69-0.53 1.25-1.08 1.69-0.53 0.43-1.15 0.69-1.84 0.79-0.64 0.09-1.31 0.02-1.99-0.22s-1.28-0.64-1.79-1.21c-0.47-0.52-0.88-1.22-1.23-2.08-0.27 0.26-0.75 0.71-1.43 1.37l-3.32 3.19c-0.93 0.91-1.43 1.42-1.52 1.55-0.04 0.06-0.06 0.12-0.07 0.17-0.02 0.08-0.01 0.29 0.05 0.66l0.01 0.12-0.98 0.14-0.01-0.14c-0.02-0.54-0.07-1.01-0.13-1.41-0.05-0.41-0.15-0.91-0.28-1.51l0.04-0.12c0.49-0.54 1.48-1.46 2.95-2.77 0.81-0.73 1.49-1.36 2.02-1.9 0.89-0.88 1.7-1.72 2.41-2.5l0.56 0.04c0.04 0.46 0.07 0.74 0.09 0.93 0.18 1.27 0.63 2.16 1.33 2.71 0.69 0.54 1.55 0.75 2.57 0.61 0.89-0.12 1.54-0.5 1.97-1.11s0.59-1.48 0.43-2.62c-0.1-0.68-0.3-1.34-0.6-1.97-0.37 0.02-0.72 0.05-1.05 0.08-0.1 0.01-1.19 0.14-3.25 0.39l-4.95 0.69c-1.01 0.14-1.99 0.3-2.94 0.46-0.72 0.11-1.09 0.22-1.18 0.29-0.1 0.08-0.17 0.19-0.21 0.36-0.02 0.18 0.01 0.66 0.11 1.51l0.01 0.12-0.97 0.14-0.01-0.13c-0.09-1.01-0.18-1.94-0.3-2.78-0.09-0.67-0.28-1.81-0.57-3.4l-0.02-0.13 0.97-0.14 0.02 0.13c0.13 0.84 0.23 1.31 0.31 1.47 0.09 0.16 0.17 0.24 0.26 0.28 0.12 0.05 0.46 0.06 1.04 0 0.16-0.02 1.21-0.15 3.17-0.4l5.16-0.73c1.01-0.14 2-0.29 2.96-0.45 0.72-0.12 1.09-0.23 1.17-0.3 0.09-0.08 0.16-0.19 0.19-0.36 0.03-0.16 0.01-0.65-0.1-1.51l-0.01-0.12 0.97-0.13zm-178.36 6.32l0.987 0.09-0.026 0.13c-0.092 0.53-0.155 1-0.187 1.4-0.039 0.42-0.062 0.93-0.069 1.55-0.66 0.51-1.827 1.19-3.558 2.14-0.954 0.52-1.757 0.99-2.401 1.4-1.064 0.65-2.033 1.29-2.906 1.89l-0.539-0.16c0.069-0.47 0.103-0.74 0.119-0.93 0.111-1.28-0.122-2.25-0.679-2.94-0.56-0.69-1.344-1.08-2.369-1.17-0.893-0.08-1.609 0.13-2.168 0.63-0.563 0.5-0.905 1.31-1.004 2.46-0.062 0.69-0.017 1.38 0.134 2.06 0.368 0.06 0.716 0.11 1.039 0.15 0.106 0.01 1.191 0.13 3.254 0.36l4.979 0.43c1.018 0.09 2.009 0.16 2.976 0.22 0.727 0.05 1.111 0.03 1.213-0.02 0.111-0.05 0.206-0.15 0.28-0.31 0.066-0.16 0.148-0.64 0.236-1.49l0.012-0.12 0.978 0.08-0.019 0.14c-0.148 1-0.258 1.92-0.332 2.77-0.059 0.68-0.13 1.82-0.211 3.44l-0.008 0.13-0.975-0.08 0.01-0.13c0.059-0.84 0.064-1.33 0.025-1.5-0.047-0.18-0.112-0.28-0.185-0.34-0.112-0.07-0.434-0.15-1.016-0.23-0.157-0.02-1.217-0.13-3.179-0.32l-5.194-0.46c-1.016-0.08-2.009-0.16-2.982-0.22-0.732-0.04-1.111-0.02-1.205 0.03-0.106 0.05-0.201 0.15-0.268 0.31-0.07 0.15-0.157 0.63-0.248 1.48l-0.01 0.13-0.976-0.08 0.158-1.4 0.236-2.04c0.034-0.4 0.077-1.03 0.119-1.88 0.053-1.12 0.087-1.77 0.102-1.94 0.119-1.36 0.334-2.36 0.656-2.98 0.32-0.63 0.801-1.09 1.432-1.4 0.618-0.3 1.275-0.42 1.971-0.36 0.651 0.06 1.282 0.28 1.89 0.67 0.613 0.38 1.102 0.91 1.471 1.57 0.345 0.62 0.586 1.39 0.732 2.31 0.324-0.19 0.889-0.52 1.694-1.01l3.959-2.36c1.113-0.68 1.715-1.07 1.836-1.18 0.048-0.04 0.078-0.09 0.099-0.13 0.036-0.08 0.075-0.3 0.106-0.67l0.011-0.12zm164.72 10.69c0.71 0.13 1.87 0.22 3.47 0.28l0.13 0.01-0.02 0.97h-0.13c-1.11 0.02-1.72 0.06-1.9 0.12-0.17 0.07-0.36 0.24-0.59 0.54s-0.43 0.7-0.62 1.22c-0.18 0.51-0.27 1-0.28 1.48-0.02 0.7 0.13 1.35 0.45 1.94 0.33 0.59 0.76 1.02 1.29 1.3 0.55 0.28 1.13 0.43 1.76 0.45 0.48 0.01 0.9-0.05 1.24-0.18 0.34-0.12 0.62-0.31 0.83-0.57 0.21-0.27 0.37-0.59 0.47-1 0.05-0.26 0.13-0.78 0.26-1.57 0.12-0.79 0.25-1.47 0.39-2.03 0.26-0.74 0.57-1.31 0.92-1.67 0.34-0.35 0.79-0.64 1.33-0.85 0.55-0.21 1.14-0.31 1.76-0.29 0.91 0.01 1.76 0.26 2.55 0.72 0.8 0.48 1.42 1.16 1.84 2.05s0.62 1.85 0.6 2.87c-0.01 0.62-0.12 1.28-0.31 2-0.18 0.73-0.44 1.4-0.78 2.03l-0.15 0.06c-0.46-0.11-0.9-0.19-1.31-0.24-0.4-0.05-1-0.1-1.79-0.14h-0.12l0.03-0.98h0.12c1.13 0 1.73-0.02 1.84-0.05 0.26-0.16 0.48-0.38 0.69-0.66 0.44-0.71 0.67-1.44 0.69-2.21 0.02-1.01-0.29-1.81-0.91-2.41-0.62-0.61-1.44-0.93-2.47-0.95-0.63-0.01-1.1 0.09-1.43 0.28-0.31 0.19-0.59 0.55-0.8 1.11-0.15 0.37-0.3 1-0.45 1.89-0.14 0.89-0.29 1.7-0.44 2.41-0.23 0.67-0.51 1.19-0.82 1.52s-0.71 0.59-1.2 0.79c-0.49 0.21-1.07 0.3-1.71 0.29-1.53-0.04-2.85-0.67-3.96-1.89-1.11-1.24-1.63-2.81-1.59-4.7 0.03-1.43 0.36-2.72 0.98-3.88l0.14-0.06zm-104.18 0.95l2.29 6.36h3.07c1.79 4.08 8 7.09 15.38 7.09s13.59-3.01 15.38-7.09h3.06l2.13-6.36h-41.31zm32.73 1.82h4.91l-1 3.12h-5.14l1.23-3.12zm-101.3 0.08c2.156-0.01 4.043 0.64 5.656 1.94 1.844 1.48 2.876 3.47 3.092 5.95 0.099 1.13 0 2.21-0.301 3.22-0.302 1.02-0.807 1.91-1.511 2.65-0.709 0.75-1.594 1.35-2.649 1.8-1.056 0.44-2.116 0.71-3.18 0.81-1.191 0.1-2.31 0.03-3.357-0.22-1.05-0.26-2.02-0.75-2.902-1.47-0.883-0.72-1.573-1.57-2.073-2.54-0.507-0.96-0.815-2.1-0.927-3.38-0.103-1.18-0.021-2.28 0.252-3.29 0.265-1 0.662-1.84 1.197-2.52 0.523-0.68 1.112-1.23 1.777-1.65 0.496-0.32 1.087-0.59 1.768-0.81 0.684-0.23 1.422-0.38 2.217-0.45 0.318-0.02 0.633-0.04 0.941-0.04zm39.186 0.63c-10.057 0.03-16.946 3.57-20.241 5.76 0.443 5.15 1.43 10.15 2.905 14.93 8.95-5.25 15.041-8.52 40.152 0.86 30.639 11.46 42.619-10.65 42.619-10.65-22.38 10.65-35.38-5.14-54.338-9.59-4.04-0.95-7.743-1.33-11.095-1.31h-0.002zm109.5 0.94c-5.16 0.1-11.06 1.03-17.42 3.47-17.47 6.68-26.38 18.48-41.56 23.27-11.89 3.76-25.035-1.07-25.035-1.07s16.475 19.88 42.355 5.87c12.78-6.93 17.04-16.78 39.15-18.91 6.02-0.58 10.64-0.09 14.01 0.7 0.8-3.84 1.3-7.78 1.46-11.82-3.39-0.88-7.81-1.61-12.96-1.51zm-147.66 0.87c-0.327 0.01-0.662 0.02-1.006 0.05-1.179 0.11-2.249 0.35-3.213 0.73-0.587 0.24-1.11 0.52-1.567 0.86-0.463 0.34-0.857 0.74-1.179 1.19-0.324 0.44-0.584 0.99-0.778 1.68-0.19 0.68-0.254 1.4-0.187 2.17 0.097 1.11 0.443 2.06 1.033 2.84 0.587 0.78 1.392 1.35 2.416 1.68 1.023 0.34 2.159 0.45 3.416 0.34 0.704-0.06 1.411-0.19 2.123-0.39 0.715-0.2 1.327-0.42 1.832-0.67 0.854-0.41 1.557-0.91 2.111-1.5 0.547-0.6 0.927-1.24 1.155-1.92 0.219-0.69 0.292-1.43 0.222-2.24-0.097-1.12-0.466-2.06-1.105-2.84-0.647-0.77-1.504-1.31-2.58-1.63-0.816-0.24-1.714-0.35-2.693-0.35zm95.949 2h4.15c-1.54 1.99-4.85 3.99-9.68 4.68 2.44-0.98 4.55-2.9 5.53-4.68zm74.77 3.32l0.97 0.14-0.01 0.12c-0.11 0.84-0.14 1.33-0.11 1.5 0.04 0.18 0.1 0.28 0.17 0.35 0.11 0.08 0.42 0.17 1 0.28 0.16 0.03 1.21 0.19 3.16 0.49l5.16 0.72c1.01 0.14 2 0.27 2.97 0.38 0.73 0.08 1.11 0.08 1.2 0.03 0.11-0.04 0.21-0.13 0.29-0.29 0.08-0.14 0.19-0.62 0.32-1.47l0.02-0.13 0.97 0.14-0.02 0.13c-0.24 1.34-0.41 2.38-0.52 3.11-0.1 0.71-0.22 1.75-0.36 3.12l-0.01 0.13-0.97-0.13 0.01-0.12c0.11-0.86 0.13-1.35 0.1-1.52s-0.09-0.27-0.16-0.33c-0.11-0.08-0.42-0.18-1-0.28-0.15-0.03-1.2-0.19-3.16-0.49l-5.16-0.73c-1.01-0.14-2-0.27-2.96-0.38-0.72-0.08-1.11-0.08-1.21-0.04-0.12 0.05-0.21 0.14-0.29 0.29-0.08 0.16-0.19 0.64-0.32 1.48l-0.02 0.13-0.97-0.14 0.02-0.13c0.28-1.49 0.44-2.47 0.51-2.95l0.38-3.41zm-162.56 8.37l0.138 0.08c0.134 0.27 0.229 0.49 0.288 0.65 0.113 0.36 0.269 0.91 0.462 1.66l1.5 6.15c0.169 0.66 0.374 1.33 0.608 1.99l0.045 0.13-0.78 0.2c-0.377-0.43-0.6-0.64-0.73-0.72-0.062-0.04-0.139-0.06-0.229-0.06-0.198-0.01-0.63 0.06-1.308 0.21-1 0.23-1.593 0.37-1.781 0.42l-5.868 1.52c-0.986 0.25-1.95 0.51-2.888 0.78-0.702 0.2-1.054 0.35-1.125 0.43-0.082 0.09-0.139 0.21-0.149 0.38-0.018 0.16 0.062 0.65 0.262 1.49l0.031 0.12-0.949 0.24-0.027-0.13c-0.379-1.7-0.617-2.74-0.721-3.15-0.114-0.44-0.402-1.42-0.857-2.94l-0.037-0.13 0.951-0.24 0.033 0.12c0.229 0.82 0.393 1.29 0.49 1.43 0.091 0.14 0.186 0.22 0.274 0.25 0.131 0.03 0.461 0 1.035-0.12 0.146-0.03 1.181-0.29 3.101-0.76l7.326-1.89c0.703-0.18 1.284-0.35 1.739-0.49-0.148-0.76-0.314-1.51-0.506-2.25-0.491-1.9-0.959-3.19-1.402-3.89-0.222-0.03-0.463-0.05-0.735-0.04l-2.019 0.06-0.243-0.94 0.147-0.02c1.122-0.12 2.428-0.3 3.924-0.54zm161.04 1.67l0.94 0.25-0.02 0.12c-0.21 0.83-0.3 1.32-0.29 1.49 0.01 0.18 0.06 0.29 0.12 0.35 0.1 0.1 0.4 0.24 0.96 0.41l3.07 0.87 6.34 1.7c0.31 0.08 0.64 0.17 1.01 0.25l1.73 0.4 0.38-1.42c0.23-0.88 0.39-1.59 0.46-2.13 0.02-0.17-0.01-0.23-0.02-0.25-0.08-0.09-0.42-0.25-1.09-0.5l-1.17-0.44 0.23-0.88 0.13 0.03c1.72 0.46 2.93 0.74 3.61 0.86l0.14 0.02-0.04 0.14c-0.23 0.75-0.58 1.92-1.05 3.51-0.38 1.29-0.63 2.15-0.74 2.59-0.13 0.47-0.39 1.56-0.81 3.27-0.3 1.24-0.51 2.14-0.63 2.71l-0.04 0.15-0.13-0.05c-0.79-0.3-1.97-0.68-3.55-1.13l-0.12-0.03 0.24-0.9 1.18 0.21c0.65 0.12 1.01 0.18 1.09 0.18s0.12-0.02 0.14-0.03c0.13-0.17 0.24-0.49 0.44-1.08 0.19-0.58 0.34-1.04 0.43-1.38l0.31-1.15c-0.67-0.24-1.56-0.52-2.67-0.81l-6.37-1.71c-0.98-0.26-1.94-0.51-2.88-0.74-0.71-0.17-1.09-0.22-1.21-0.19-0.12 0.04-0.22 0.12-0.32 0.26-0.09 0.14-0.26 0.61-0.5 1.43l-0.03 0.12-0.95-0.25 0.04-0.13c0.39-1.22 0.66-2.13 0.83-2.75 0.08-0.27 0.33-1.35 0.78-3.25l0.03-0.12zm-19.3 1.1c-1.98-0.02-4.18 0.06-6.62 0.26-21.32 1.72-33.3 25.54-47.16 27.38 14.54 8.66 30.64-18.29 52.22-15.35 1.86 0.25 3.45 0.59 4.8 0.98 2-3.99 3.64-8.2 4.86-12.58-2.14-0.39-4.81-0.67-8.1-0.69zm-113.6 3.38c-6.854 0.06-11.139 3.22-13.224 5.3 3.562 8.59 8.754 16.35 15.187 22.87 3.362-3.13 12.012-9.46 23.51-5.36 23.898 8.54 35.028 1.45 36.908-4.38-28.53 8.52-34.78-15.33-59.285-18.26-1.085-0.13-2.115-0.18-3.094-0.17h-0.002zm128.97 8.14l0.9 0.39-0.05 0.12c-0.33 0.78-0.5 1.24-0.51 1.41-0.02 0.19 0.02 0.3 0.07 0.37 0.07 0.12 0.35 0.3 0.88 0.56 0.14 0.07 1.1 0.52 2.9 1.34l1.18 0.53c0.35 0 0.68-0.02 0.97-0.04 0.21-0.01 0.95-0.08 2.21-0.21l1.4-0.15c1.09-0.11 1.89-0.21 2.37-0.29 0.92-0.16 1.6-0.32 2.03-0.5 0.23-0.08 0.42-0.2 0.56-0.34 0.13-0.14 0.28-0.39 0.45-0.78l0.06-0.12 0.84 0.38-0.6 2.7c-0.24 0.25-0.42 0.4-0.58 0.47-0.14 0.07-0.51 0.16-1.08 0.28-0.87 0.17-1.99 0.31-3.39 0.42-1.34 0.1-2.84 0.17-4.5 0.21 0.78 1.13 1.63 2.31 2.57 3.54l2.85 3.81-0.75 1.68-0.44-0.2c-0.28-0.58-0.89-1.64-1.86-3.22-0.56-0.91-1.42-2.15-2.56-3.72-0.71-0.98-1.15-1.54-1.32-1.7-0.18-0.16-0.36-0.28-0.53-0.36l-0.79-0.35c-0.94-0.41-1.84-0.81-2.74-1.18-0.67-0.28-1.04-0.38-1.16-0.37-0.12 0.02-0.24 0.07-0.36 0.2-0.11 0.12-0.34 0.55-0.71 1.33l-0.05 0.11-0.9-0.39 0.06-0.12c0.53-1.04 0.96-1.94 1.31-2.71 0.33-0.75 0.74-1.74 1.22-2.98l0.05-0.12zm-157.95 1.04l0.365 0.85-0.73 0.41c-0.743 0.41-1.081 0.62-1.1 0.65-0.037 0.05-0.067 0.16-0.031 0.37 0.07 0.39 0.383 1.24 0.955 2.56 0.188 0.42 0.389 0.86 0.607 1.3l1.975-0.87c0.938-0.4 1.84-0.81 2.717-1.22 0.661-0.3 0.994-0.5 1.062-0.59 0.07-0.11 0.103-0.24 0.092-0.42-0.018-0.16-0.175-0.63-0.5-1.41l-0.049-0.12 0.902-0.39 0.047 0.13c0.306 0.85 0.633 1.69 0.991 2.51 0.321 0.74 0.818 1.8 1.49 3.19l0.056 0.13-0.898 0.38-0.053-0.11c-0.353-0.77-0.581-1.21-0.695-1.33-0.125-0.14-0.23-0.19-0.324-0.21-0.134-0.01-0.452 0.07-1 0.28-0.148 0.06-1.132 0.47-2.948 1.24l-4.779 2.07c-0.933 0.41-1.846 0.82-2.732 1.23-0.662 0.31-0.981 0.51-1.041 0.6-0.069 0.1-0.104 0.23-0.086 0.4 0.008 0.17 0.16 0.63 0.488 1.42l0.049 0.12-0.899 0.39-0.046-0.12c-0.391-1.01-0.735-1.86-1.038-2.56-0.212-0.49-0.61-1.36-1.187-2.62-0.58-1.25-0.967-2.11-1.16-2.55-0.208-0.48-0.391-0.92-0.549-1.32-0.167-0.4-0.308-0.77-0.42-1.11l-0.049-0.14 0.153-0.02c0.64-0.09 1.714-0.43 3.236-1.04l0.115-0.05 0.367 0.84c-0.874 0.46-1.452 0.8-1.845 1.09 0.027 0.36 0.116 0.79 0.269 1.28 0.153 0.52 0.372 1.11 0.658 1.77 0.272 0.62 0.592 1.25 0.957 1.89 0.35-0.11 0.672-0.23 0.971-0.34l2.383-0.98 2.174-0.95c-0.278-0.69-0.533-1.3-0.762-1.84-0.361-0.82-0.691-1.46-0.992-1.91-0.114-0.17-0.198-0.23-0.24-0.24-0.07-0.01-0.349 0.04-0.897 0.2l-0.783 0.23-0.367-0.84 2.502-1.01 2.619-1.22zm137.88 4.54c-0.67-0.02-1.36 0-2.07 0.04-7.99 0.54-19.97 7.05-31.96 13.33-10.69 5.59-22.37 2.38-22.37 2.38s11.17 11.34 33.03 9.87c1.68-0.11 3.25-0.27 4.73-0.45 9.87-6.08 18.16-14.48 24.09-24.45-1.6-0.39-3.44-0.68-5.45-0.72zm-82.688 14.87c-9.2 0.18-14.935 3.62-17.51 5.63 12.162 9.56 27.498 15.27 44.168 15.27 9.76 0 19.05-1.96 27.53-5.49-22.17-0.9-30.66-11.67-44.53-14.48-2.8-0.57-5.39-0.86-7.771-0.92-0.644-0.02-1.273-0.02-1.887-0.01zm-17.263 20.36l2.773 1.55 2.877 1.47c1.377 0.7 2.371 1.22 2.99 1.55 0.629 0.33 1.203 0.69 1.725 1.06l0.119 0.08-0.102 0.11c-0.297 0.32-0.54 0.61-0.722 0.86-0.036 0.05-0.458 0.7-1.264 1.97l-0.875-0.33 0.061-0.11c0.349-0.65 0.625-1.26 0.828-1.83-0.251-0.31-0.551-0.58-0.908-0.84-0.652-0.46-1.329-0.88-2.03-1.25-0.151-0.08-0.49-0.25-1.023-0.5-0.464-0.22-0.814-0.38-1.055-0.48-0.395 0.69-0.757 1.33-1.096 1.94l-1.767 3.23c0.674 0.41 1.303 0.76 1.887 1.07 0.742 0.4 1.396 0.7 1.961 0.91 0.212 0.08 0.323 0.07 0.371 0.05 0.06-0.03 0.232-0.24 0.535-0.69l0.488-0.77 0.785 0.42-0.16 0.3-1.15 2.04-1.241 2.46-0.884-0.47 0.386-0.81c0.252-0.5 0.35-0.8 0.34-0.92-0.005-0.1-0.066-0.23-0.23-0.37-0.304-0.26-0.965-0.66-2-1.21-0.402-0.22-0.973-0.5-1.711-0.85-0.379 0.64-0.898 1.58-1.555 2.82-0.618 1.16-1.081 2.06-1.387 2.71 0.841 0.53 1.806 1.09 2.889 1.66 0.8 0.43 1.375 0.7 1.732 0.83 0.34 0.11 0.674 0.19 1.002 0.22 0.171-0.16 0.375-0.38 0.618-0.67 0.448-0.51 0.777-0.9 0.978-1.18l0.914 0.37-0.084 0.11c-0.873 1.25-1.543 2.31-2.012 3.19l-0.152 0.06c-0.595-0.2-1.278-0.51-2.06-0.93l-5.594-3.07-2.635-1.3 0.455-0.85 0.112 0.06c0.668 0.34 1.108 0.51 1.335 0.52 0.078 0 0.147-0.02 0.206-0.07 0.108-0.08 0.325-0.37 0.654-0.93 0.502-0.86 0.921-1.6 1.258-2.24l2.703-5.08c0.479-0.9 0.936-1.78 1.377-2.65 0.323-0.66 0.446-1.02 0.435-1.12-0.003-0.12-0.057-0.25-0.176-0.37-0.108-0.12-0.52-0.39-1.271-0.81l-0.109-0.06 0.459-0.86zm80.141 3.95c1.38 3.24 2.16 5.05 2.38 5.52l1.77 3.78c0.69 1.51 1.24 2.64 1.64 3.4 0.23 0.46 0.4 0.69 0.5 0.75 0.12 0.05 0.26 0.08 0.43 0.05 0.18-0.03 0.75-0.24 1.72-0.64l0.11-0.05 0.4 0.85-0.12 0.06c-1.66 0.71-2.69 1.15-3.11 1.35-0.31 0.14-1.39 0.68-3.24 1.61l-0.12 0.06-0.4-0.85c1.07-0.58 1.6-0.88 1.72-0.98 0.13-0.11 0.19-0.2 0.22-0.28s0.04-0.19 0.01-0.32c-0.04-0.22-0.28-0.83-0.7-1.86-0.43-1.02-0.77-1.79-1.01-2.3l-1.87-4.03c-0.77-1.63-1.25-2.66-1.45-3.07-0.09-0.2-0.15-0.25-0.16-0.26-0.05 0.02-0.15 0.12-0.35 0.35-0.86 1.03-1.42 1.72-1.69 2.07l-0.36 0.1-0.56-0.92 0.08-0.24c0.61-0.55 1.22-1.18 1.86-1.93 0.95-1.09 1.55-1.81 1.81-2.16l0.49-0.06zm-65.126 3.23c0.732-0.02 1.465 0.08 2.196 0.32 0.588 0.19 1.199 0.48 1.832 0.87 0.64 0.38 1.208 0.83 1.708 1.34l0.02 0.15c-0.24 0.42-0.44 0.81-0.61 1.19-0.16 0.37-0.38 0.92-0.642 1.67l-0.041 0.12-0.93-0.3 0.036-0.12c0.333-1.09 0.484-1.66 0.488-1.77-0.081-0.29-0.225-0.58-0.438-0.87-0.549-0.62-1.191-1.05-1.925-1.29-0.956-0.31-1.808-0.24-2.569 0.18-0.754 0.42-1.291 1.11-1.611 2.1-0.192 0.59-0.235 1.07-0.143 1.44 0.095 0.36 0.362 0.73 0.828 1.09 0.317 0.25 0.874 0.57 1.682 0.97 0.813 0.39 1.543 0.77 2.182 1.12 0.577 0.41 0.993 0.82 1.222 1.22 0.228 0.39 0.366 0.85 0.416 1.38 0.057 0.53-0.018 1.1-0.216 1.71-0.475 1.46-1.463 2.54-2.955 3.25-1.496 0.71-3.151 0.77-4.954 0.18-1.36-0.44-2.505-1.13-3.431-2.05l-0.026-0.15c0.332-0.65 0.755-1.73 1.272-3.25l0.041-0.12 0.928 0.3-0.034 0.12c-0.31 1.06-0.446 1.67-0.435 1.86 0.018 0.18 0.125 0.41 0.351 0.72 0.22 0.3 0.544 0.61 0.985 0.94 0.439 0.32 0.886 0.55 1.34 0.7 0.663 0.22 1.324 0.25 1.984 0.12 0.665-0.15 1.202-0.43 1.621-0.86 0.428-0.45 0.738-0.96 0.932-1.56 0.149-0.46 0.21-0.87 0.187-1.24-0.018-0.36-0.124-0.68-0.312-0.95-0.19-0.29-0.459-0.53-0.817-0.74-0.235-0.13-0.709-0.36-1.427-0.7-0.724-0.35-1.338-0.67-1.832-0.96-0.639-0.47-1.091-0.92-1.336-1.36-0.246-0.43-0.389-0.95-0.438-1.53-0.042-0.58 0.035-1.17 0.229-1.76 0.279-0.87 0.756-1.61 1.427-2.23 0.683-0.63 1.513-1.03 2.485-1.18 0.244-0.04 0.486-0.06 0.73-0.07zm56.516 0.21l1.03 0.12 0.1 0.31c-0.77 0.46-1.43 1.06-2.07 1.85-0.64 0.78-1.11 1.59-1.41 2.42-0.3 0.84-0.46 1.64-0.49 2.42-0.02 0.7 0.07 1.46 0.24 2.29 0.22-0.3 0.38-0.54 0.49-0.71 0.36-0.56 0.6-0.9 0.72-1.04 0.13-0.13 0.3-0.27 0.53-0.41 0.23-0.15 0.52-0.28 0.87-0.39 1.2-0.39 2.27-0.34 3.19 0.18 0.91 0.52 1.58 1.47 2.02 2.83 0.3 0.93 0.4 1.8 0.31 2.6-0.11 0.81-0.3 1.47-0.58 1.97-0.27 0.49-0.62 0.95-1.05 1.37s-1.02 0.75-1.76 0.99c-1.28 0.41-2.51 0.25-3.67-0.49-1.17-0.75-2.06-2.1-2.68-4-0.43-1.31-0.63-2.59-0.61-3.83 0.03-1.24 0.25-2.37 0.67-3.39 0.41-1.02 0.98-1.98 1.71-2.89 0.74-0.9 1.55-1.64 2.44-2.2zm-48.92 2.23l0.14 0.03c0.76 0.18 1.94 0.45 3.56 0.81 1.32 0.29 2.2 0.47 2.64 0.56 0.48 0.09 1.58 0.28 3.32 0.57 1.26 0.22 2.17 0.37 2.75 0.45l0.15 0.02-0.04 0.14c-0.25 0.81-0.54 2.01-0.88 3.62l-0.02 0.12-0.92-0.18 0.14-1.19c0.07-0.66 0.1-1.02 0.1-1.1s-0.03-0.12-0.04-0.13c-0.18-0.12-0.51-0.21-1.11-0.37-0.59-0.15-1.06-0.26-1.41-0.33l-1.17-0.23c-0.19 0.68-0.4 1.59-0.62 2.72l-1.26 6.47c-0.19 1-0.37 1.98-0.54 2.93-0.11 0.72-0.14 1.1-0.1 1.21 0.05 0.12 0.13 0.22 0.28 0.31 0.14 0.08 0.62 0.21 1.46 0.39l0.12 0.03-0.18 0.96-0.14-0.03c-1.23-0.3-2.17-0.51-2.8-0.64-0.27-0.05-1.37-0.23-3.29-0.54l-0.13-0.03 0.19-0.96 0.12 0.03c0.85 0.14 1.34 0.2 1.51 0.18 0.18-0.03 0.28-0.09 0.34-0.15 0.09-0.1 0.21-0.41 0.35-0.98l0.65-3.14 1.25-6.44c0.06-0.3 0.12-0.64 0.18-1.01l0.27-1.76-1.44-0.28c-0.89-0.18-1.61-0.28-2.15-0.31-0.17-0.01-0.24 0.02-0.26 0.04-0.07 0.09-0.21 0.44-0.41 1.12l-0.37 1.2-0.89-0.17 0.02-0.13c0.34-1.76 0.54-2.98 0.61-3.67l0.02-0.14zm35.54 1.47c0.65-0.01 1.28 0.12 1.88 0.39 0.79 0.35 1.46 0.94 2 1.77 0.56 0.84 0.94 1.96 1.16 3.36 0.28 1.73 0.22 3.31-0.18 4.72-0.48 1.7-1.36 3.19-2.64 4.44-1.07 1.06-2.25 1.8-3.53 2.22l-0.91-0.27-0.06-0.39c1.3-0.56 2.32-1.23 3.16-2.06 0.85-0.83 1.46-1.88 1.84-3.14 0.27-0.91 0.39-1.93 0.34-3.06-0.23 0.24-0.48 0.54-0.76 0.9-0.22 0.28-0.39 0.48-0.52 0.6-0.19 0.18-0.42 0.33-0.68 0.46-0.33 0.17-0.7 0.28-1.1 0.34-1.17 0.19-2.2-0.07-3.08-0.78-0.88-0.72-1.43-1.79-1.65-3.2-0.26-1.62 0-3.01 0.77-4.16 0.77-1.16 1.87-1.85 3.29-2.08 0.23-0.03 0.45-0.05 0.67-0.06zm-9.32 0.88l0.47 0.13v0.09c0.01 3.44 0.02 5.41 0.04 5.92l0.15 4.18c0.05 1.66 0.12 2.92 0.18 3.77 0.04 0.51 0.11 0.78 0.18 0.88 0.08 0.1 0.2 0.18 0.37 0.22 0.18 0.04 0.77 0.07 1.83 0.08h0.13l0.03 0.94h-0.14c-1.8 0-2.93 0.01-3.38 0.03-0.34 0.01-1.55 0.09-3.62 0.21l-0.13 0.01-0.04-0.93 0.13-0.01c1.08-0.11 1.69-0.18 1.84-0.22 0.16-0.05 0.25-0.11 0.31-0.17s0.11-0.16 0.13-0.29c0.05-0.22 0.08-0.88 0.08-1.99 0.01-1.11 0-1.95-0.02-2.51l-0.16-4.44c-0.06-1.81-0.1-2.94-0.13-3.4 0-0.21-0.03-0.28-0.04-0.29-0.06-0.01-0.19 0.04-0.46 0.18-1.19 0.61-1.98 1.03-2.36 1.25l-0.38-0.06-0.15-1.06 0.16-0.18c0.78-0.27 1.6-0.62 2.47-1.06 1.3-0.63 2.14-1.06 2.51-1.28zm9.28 0.2c-0.2-0.02-0.41-0.01-0.63 0.02-0.76 0.13-1.35 0.53-1.76 1.23-0.42 0.69-0.54 1.65-0.34 2.91 0.1 0.62 0.3 1.22 0.6 1.81 0.3 0.57 0.69 0.97 1.17 1.23 0.48 0.25 0.99 0.33 1.57 0.24 0.79-0.13 1.38-0.5 1.77-1.14 0.4-0.63 0.52-1.51 0.33-2.68-0.18-1.14-0.57-2.07-1.16-2.77-0.44-0.52-0.95-0.8-1.55-0.85zm13.85 3.72c-0.23 0.01-0.46 0.05-0.69 0.12-0.56 0.19-1.06 0.57-1.48 1.16-0.3 0.42-0.44 0.79-0.44 1.13s0.11 0.85 0.33 1.53c0.18 0.56 0.42 1.09 0.71 1.6 0.18 0.29 0.38 0.58 0.61 0.84 0.23 0.27 0.48 0.48 0.76 0.65 0.29 0.18 0.59 0.28 0.9 0.32 0.33 0.04 0.65 0 0.98-0.11 0.45-0.14 0.81-0.4 1.11-0.77 0.3-0.38 0.48-0.9 0.53-1.56 0.05-0.67-0.05-1.39-0.3-2.15-0.23-0.74-0.56-1.33-0.97-1.8s-0.85-0.76-1.34-0.87c-0.24-0.07-0.48-0.09-0.71-0.09zm47.73 7.22c-2.4 0-4.35 1.95-4.35 4.39 0 2.48 1.95 4.41 4.35 4.41 2.42 0 4.32-1.93 4.32-4.41 0-2.44-1.91-4.39-4.3-4.39h-0.02zm0 0.69h0.02c1.94 0 3.51 1.65 3.51 3.72s-1.57 3.72-3.51 3.71c-1.96 0-3.53-1.64-3.53-3.73 0-2.05 1.57-3.7 3.51-3.7zm-86.9 1.2c0.09-0.01 0.19-0.01 0.28 0.01 0.39 0.04 0.71 0.23 0.94 0.55s0.32 0.68 0.28 1.08c-0.05 0.4-0.23 0.73-0.54 0.98-0.3 0.25-0.65 0.36-1.03 0.31-0.39-0.05-0.71-0.23-0.95-0.55-0.23-0.32-0.33-0.68-0.28-1.08s0.23-0.74 0.54-0.99c0.23-0.19 0.48-0.29 0.76-0.31zm86.68 0.04c-0.58 0-0.97 0.06-1.38 0.12v4.9h0.78v-2.11h0.54c0.63 0 0.94 0.23 1.06 0.86 0.09 0.64 0.21 1.09 0.33 1.25h0.82c-0.08-0.16-0.2-0.45-0.31-1.21-0.1-0.73-0.39-1.11-0.82-1.19v-0.04c0.52-0.16 0.95-0.55 0.95-1.19 0-0.47-0.16-0.8-0.45-1.02-0.29-0.21-0.78-0.37-1.52-0.37zm-0.04 0.61c0.88 0 1.19 0.43 1.19 0.85 0 0.61-0.54 0.84-1.19 0.84h-0.56v-1.65c0.13-0.02 0.31-0.04 0.56-0.04z" fill="#036" transform="scale(1.0081)"/>
 <path d="m124 52.885c-4.8458 0.08025-9.5711 0.63715-14.136 1.627l11.045 30.042 3.0918-31.67zm2.459 0 3.1055 31.67 11.027-30.038c-4.5639-0.99309-9.2903-1.5525-14.132-1.6328zm-18.642 2.1035c-4.6738 1.1602-9.1699 2.7746-13.435 4.7969l17.904 27.028-4.4688-31.824zm34.824 0.0037-4.4531 31.82 17.882-27.021c-4.2624-2.0239-8.7576-3.6386-13.43-4.7989zm-50.115 5.7051c-4.247 2.17-8.255 4.743-11.964 7.68l23.829 22.604-11.863-30.284zm65.404 0.0063-11.842 30.278 23.806-22.598c-3.7101-2.935-7.7172-5.51-11.965-7.6798zm-78.965 8.9688c-3.62 3.0318-6.9398 6.4148-9.9042 10.094l28.555 17.072-18.65-27.166zm92.524 0.0037-18.629 27.162 28.525-17.069c-2.9596-3.6774-6.2798-7.0605-9.8965-10.094zm-103.68 11.69c-2.835 3.7265-5.3162 7.7432-7.3926 11.994l31.902 10.726-24.51-22.721zm114.83 0.0063-24.489 22.715 31.872-10.725c-2.0746-4.2492-4.553-8.2604-7.3848-11.99zm-123.07 13.791c-1.9289 4.2411-3.4578 8.7035-4.541 13.338l33.743 3.86-29.202-17.198zm131.31 0.0063-29.176 17.188 33.711-3.8535c-1.0783-4.6311-2.608-9.0945-4.5351-13.334zm-136.29 15.238c-0.93572 4.559-1.4372 9.2755-1.4668 14.101l34.012-3.28-32.539-10.82zm141.22 0.004-32.511 10.818 33.976 3.2774c-0.0279-4.8245-0.53402-9.5368-1.4649-14.096zm-138.08 70.61c-2.5925 0-4.6952 2.1048-4.6952 4.6972 0 2.5941 2.1028 4.6972 4.6952 4.6972 2.5958 0 4.6972-2.1031 4.6972-4.6972 0-2.5925-2.1015-4.6972-4.6972-4.6972zm134.62 0c-2.5958 0-4.6992 2.1048-4.6992 4.6972 0 2.5941 2.1035 4.6972 4.6992 4.6972 2.5958 0 4.6952-2.1031 4.6952-4.6972 0-2.5925-2.0995-4.6972-4.6952-4.6972z" fill="#ccc"/>
</svg>
