<?xml version="1.0" encoding="UTF-8"?>
<svg width="94px" height="44px" viewBox="0 0 94 44" version="1.1" xmlns="http://www.w3.org/2000/svg" xmlns:xlink="http://www.w3.org/1999/xlink">
    <title>RM</title>
    <g id="Page-1" stroke="none" stroke-width="1" fill="none" fill-rule="evenodd">
        <g id="RM" transform="translate(0.000000, 0.000000)" fill="#000000" fill-rule="nonzero">
            <path d="M37.9711562,14.4926353 C37.9711562,-0.0184516007 26.3897594,4.61852778e-14 21.1741324,4.61852778e-14 C18.6011721,4.61852778e-14 11.7433606,0.0246019577 9.43897211,0.0348523544 L9.43897211,4.61852778e-14 L0,4.61852778e-14 L0,43.4000001 L9.43897211,43.4000001 L9.43897211,28.9504183 C11.3968821,28.9504183 17.8426087,28.9504183 19.4294383,28.9504183 C20.0157865,28.9504183 20.8256028,28.9442681 21.7563795,28.8991645 L28.7864044,43.3979509 L39.0187912,43.3979509 L30.736114,26.7300869 C34.6437336,24.7024713 37.9711562,21.988049 37.9711562,14.4926363 L37.9711562,14.4926353 Z M20.4463221,20.5119326 C19.6242043,20.5119326 11.4870884,20.5119326 9.43897116,20.5119326 L9.43897116,8.4507923 C11.9155739,8.4507923 18.871793,8.4507923 20.5918834,8.4507923 C23.5297739,8.4507923 29.2210392,8.4507923 29.2210392,14.4741856 C29.2189891,20.5467827 23.1361416,20.5119326 20.4463211,20.5119326 L20.4463221,20.5119326 Z" id="Shape"></path>
            <polygon id="Path" points="79.8019988 5.94781113e-08 79.8019988 0.0430536178 76.88256 0.0430536178 68.2349526 34.7667441 67.3697812 34.7667441 58.7242239 0.0430536178 56.4341859 0.0430536178 56.4341859 5.94781113e-08 42.5319981 5.94781113e-08 42.5319981 43.4000001 51.9709702 43.4000001 51.9709702 11.0955072 52.8914956 11.0955072 61.1659725 43.4000001 74.7298821 43.4000001 83.004359 11.0955072 83.9248843 11.0955072 83.9248843 43.4000001 93.3638564 43.4000001 93.3638564 5.94781113e-08"></polygon>
        </g>
    </g>
</svg>