<?xml version="1.0" encoding="UTF-8"?>
<svg width="600px" height="235px" viewBox="0 0 600 235" version="1.1" xmlns="http://www.w3.org/2000/svg" xmlns:xlink="http://www.w3.org/1999/xlink">
    <title>logo-large</title>
    <g id="Page-1" stroke="none" stroke-width="1" fill="none" fill-rule="evenodd">
        <g id="logo-large" fill="#000000">
            <path d="M26.0014496,233.941103 C25.9897382,233.946606 25.9763091,233.95206 25.962353,233.957467 L25.920094,233.973549 C25.7888079,234.024043 25.7174141,234.070493 26.7267771,234.114728 C29.5196555,234.155676 30.7533517,234.193227 30.5346888,234.227821 L30.4789517,234.234078 C30.2877691,234.250678 29.7566906,234.266589 28.8978916,234.281861 C28.399736,234.267257 25.5665776,234.251031 26.6261724,234.234804 C21.869823,234.219766 22.3681997,234.203306 23.115397,234.185894 L23.2117499,234.183666 C23.2279054,234.183294 23.2440771,234.182921 23.2602168,234.182548 L23.3562853,234.180305 C23.6568427,234.173187 23.9110336,234.165921 23.788146,234.158539 C26.3572358,234.144959 25.0981556,234.130985 23.6690462,234.116812 L23.3999887,234.114152 C22.0087926,234.100398 20.6725953,234.086468 22.7171926,234.072539 C24.265207,234.041708 19.6098052,234.010878 24.8477407,233.975179 C25.07329,233.963821 25.4968034,233.954085 26.0014496,233.941103 Z M26.1864324,233.751253 C26.1848098,233.751253 26.1913004,233.752875 26.1831871,233.75612 C31.4774332,233.808747 29.6553404,233.860307 27.4885119,233.908205 L27.2709307,233.912983 C27.052702,233.917748 26.8332832,233.922476 26.6194458,233.927163 L26.4077197,233.931838 C26.2681437,233.934945 26.1320515,233.938033 26.0014496,233.941103 C26.0501293,233.918386 26.0679785,233.895669 25.9787324,233.872952 C24.9807986,233.832385 25.4318971,233.791819 26.1864324,233.751253 Z M26.8176458,232.892867 C27.166517,232.905848 27.8009758,232.920452 28.9060049,232.933434 C26.7494943,233.04702 32.6770589,233.160606 29.5096332,233.270946 C28.8589001,233.295286 28.6357989,233.31931 28.8068888,233.343018 L28.896269,233.352485 C29.2086304,233.379258 30.0215813,233.405627 31.2864422,233.431589 C29.4788027,233.483514 28.565247,233.538684 28.2244891,233.587364 C28.4439711,233.628142 27.7361953,233.668034 26.9745754,233.708349 L26.7049549,233.722598 C26.5256137,233.732112 26.3489803,233.741658 26.1864324,233.751253 C26.2789239,233.673365 22.1346589,233.588987 24.7114376,233.502986 C27.2705663,233.475885 26.5573086,233.448784 25.6135792,233.420994 L25.4452654,233.416082 C24.8521277,233.398866 24.2393299,233.381372 24.3236226,233.363438 C26.4622841,233.316381 25.0262329,233.269323 26.4184723,233.219021 C26.0287643,233.210908 25.5348907,233.20275 25.011276,233.194554 L24.7677668,233.190768 L24.7677668,233.190768 L24.5216601,233.186978 C24.4393722,233.185713 24.3569225,233.184448 24.2745818,233.183182 L23.9056996,233.17748 L23.9056996,233.17748 L23.6633063,233.173672 C21.500565,233.139386 19.9112448,233.104561 24.2295086,233.069737 C22.8680997,233.017812 26.4184723,232.964264 23.8903733,232.910716 C25.5162752,232.904226 26.3957551,232.899358 26.8176458,232.892867 Z M29.5453316,232.618638 C30.7298709,232.654337 30.3014896,232.685167 29.2045737,232.720866 C28.565247,232.685167 28.1595829,232.654337 29.5453316,232.618638 Z M32.2941119,232.514788 C32.7598144,232.535883 32.8393245,232.5586 31.8462587,232.581317 C30.7834186,232.594298 30.0516005,232.605657 29.5453316,232.618638 C29.1591393,232.608902 28.6009455,232.597544 27.8382969,232.587808 C27.2022155,232.561845 30.5951904,232.539128 32.2941119,232.514788 Z M423.602622,146.314401 C425.265845,145.955794 426.953408,145.955794 428.478705,146.40527 C430.090003,146.07587 431.717528,146.07587 433.197391,146.504252 C434.77299,146.194324 436.363194,146.199192 437.808981,146.614592 C439.38458,146.304665 440.971539,146.311156 442.417326,146.724933 C443.996171,146.41176 445.591242,146.416628 447.041897,146.832028 C448.622365,146.520478 450.217436,146.526969 451.666468,146.943992 C453.243691,146.634064 454.835517,146.640555 456.281304,147.055955 C457.861771,146.744405 459.456843,146.750896 460.907498,147.169541 C462.486343,146.856368 464.079791,146.862859 465.528824,147.279882 C467.078461,146.974822 468.641079,146.981313 470.069017,147.375618 C471.602427,147.112748 473.015761,147.109503 474.333359,147.412939 C476.373038,147.255542 477.515388,147.249051 478.600945,147.448638 C481.16312,147.375618 482.045845,147.36426 482.894495,147.487582 C483.67337,147.416185 484.471717,147.440525 485.274932,147.550865 C488.104845,147.414562 489.203384,147.448638 490.301922,147.641734 C492.643416,147.417807 493.990221,147.453506 495.330535,147.735848 C497.060287,147.416185 498.585584,147.448638 500.09141,147.784528 C501.551801,147.429166 503.140381,147.455128 504.706245,147.804 C506.166636,147.448638 507.758462,147.476223 509.327571,147.823472 C510.794453,147.466487 512.387901,147.49245 513.963501,147.844566 C515.427137,147.490827 517.018963,147.520035 518.588072,147.870529 C520.041973,147.518412 521.627308,147.54762 523.186681,147.894868 C524.650317,147.537884 526.240521,147.563846 527.80963,147.912718 C529.258662,147.558979 530.834262,147.584941 532.387144,147.925699 C533.787497,147.597922 535.29819,147.619017 536.797525,147.937058 C538.183274,147.594677 539.682608,147.606036 541.168962,147.901359 C542.616372,147.495695 544.204952,147.495695 545.778929,147.807245 C547.227962,147.401581 548.82141,147.399958 550.39701,147.711508 C551.852533,147.304221 553.445982,147.305844 555.028072,147.619017 C556.472236,147.213353 558.064062,147.213353 559.636417,147.524903 C561.090317,147.115993 562.683766,147.115993 564.265856,147.429166 C565.711643,147.023502 567.298601,147.023502 568.870956,147.335052 C569.472961,147.164673 570.104175,147.080295 570.743501,147.042974 L570.743501,149.616507 C573.21643,149.483449 574.787162,149.470468 576.223213,149.859906 C577.789076,149.527261 579.377657,149.51428 580.821821,149.902095 C582.400666,149.566205 583.99736,149.549978 585.456129,149.945906 C587.018747,149.614884 588.605705,149.600281 590.051492,149.989718 C594.272022,149.087521 598.658063,150.518704 600,155.847509 C598.268625,159.767847 592.010039,158.933801 590.716782,163.323088 C593.512351,166.435325 592.266712,170.06313 591.22258,173.689817 L591.078622,174.195807 C589.991515,178.074211 589.360847,181.923832 594.38074,185.112121 C592.548761,187.273499 591.089993,188.201659 588.729027,187.077158 C586.24474,193.494765 585.563224,202.859116 581.835982,211.404026 C584.339741,210.126995 585.658961,211.73667 587.398449,212.947172 C586.215532,215.17508 586.703952,217.574989 587.940416,219.257684 C586.181456,220.12905 585.087786,217.136871 584.445214,219.171683 C588.352571,222.097333 582.197834,226.210767 582.770632,230.333938 C580.508649,230.742847 579.491243,230.895377 578.121721,230.111634 C578.124966,230.226842 578.118476,230.340428 578.134702,230.454014 C575.874341,230.856433 574.85369,231.010585 573.489036,230.236578 C573.495527,230.345296 573.485791,230.454014 573.500395,230.562732 C571.248147,230.968396 570.221006,231.119303 568.86122,230.355032 L568.865066,230.571987 C568.866268,230.607986 568.868792,230.643865 568.874201,230.679564 C566.61384,231.085228 565.586699,231.241003 564.222044,230.470241 C564.228535,230.577336 564.218799,230.684432 564.235026,230.789904 C561.981156,231.192323 560.954014,231.346475 559.600718,230.595185 C557.363075,231.221531 556.332688,231.377306 554.985883,230.634129 C552.744994,231.133907 551.712984,231.28806 550.36618,230.546506 C548.125291,231.047907 547.091658,231.198814 545.741608,230.454014 C543.500719,230.95217 542.467087,231.1047 541.120282,230.361523 C538.921582,230.858056 537.884705,231.008963 536.573598,230.312843 C534.430069,230.739602 533.391569,230.890509 532.181067,230.325824 C529.894744,230.638997 528.859489,230.796395 527.722006,230.317711 C525.375645,230.522166 524.384202,230.650356 523.396004,230.32907 C520.830584,230.415071 519.921896,230.528656 519.066756,230.325824 C518.578336,230.30473 518.033124,230.233333 517.377571,230.119747 C516.311485,230.303107 515.53261,230.398844 514.831622,230.309598 C514.2069,230.325824 513.488063,230.22522 512.563148,230.064577 C511.82484,230.186276 511.227702,230.259295 510.695471,230.251182 C509.90686,230.361523 509.019266,230.234956 507.73899,230.007784 C505.543536,230.397221 504.543979,230.243069 502.900228,229.946123 C501.094211,230.403712 500.054089,230.244692 498.192901,229.908802 C496.638396,230.411825 495.585292,230.252805 493.56833,229.890952 C492.130656,230.402089 491.07593,230.24956 488.950249,229.868235 C487.616426,230.413448 486.566567,230.254428 484.322433,229.852009 C482.9951,230.390731 481.946863,230.230088 479.705975,229.827669 C478.373774,230.374504 477.328783,230.217106 475.087894,229.814688 C473.757315,230.35341 472.707457,230.192767 470.466568,229.79197 C469.135989,230.333938 468.087753,230.174917 465.843619,229.772498 C464.513041,230.309598 463.463182,230.153823 461.222293,229.748159 C459.893337,230.286881 458.845101,230.12786 456.607458,229.725441 C455.276879,230.267409 454.228643,230.108388 451.982886,229.70597 C450.653931,230.244692 449.604072,230.087294 447.363183,229.684875 C446.032605,230.226842 444.985991,230.069445 442.745102,229.668648 C441.416147,230.20737 440.366288,230.045105 438.123776,229.642686 C436.791575,230.184653 435.741716,230.028878 433.497582,229.624837 C432.167004,230.163559 431.12039,230.006161 428.879502,229.605365 C427.550546,230.144087 426.499064,229.983444 424.258175,229.582648 C422.927597,230.126238 421.879361,229.96884 419.635227,229.563176 C418.304648,230.101898 417.258035,229.9445 415.013901,229.542081 C413.684945,230.084049 412.636709,229.923406 410.39582,229.522609 C409.066864,230.061331 408.017005,229.902311 405.776117,229.499892 C404.445538,230.045105 403.397302,229.88933 401.151545,229.488534 C399.82259,230.02401 398.774353,229.861745 396.533465,229.459326 C395.207754,229.998048 394.157895,229.839027 391.917007,229.433363 C390.584805,229.978576 389.536569,229.821178 387.292435,229.418759 C385.961857,229.960727 384.915243,229.800084 382.674354,229.399287 C381.347021,229.942877 380.297163,229.78548 378.054651,229.379816 C376.724073,229.918538 375.672591,229.76114 373.433325,229.355476 C372.101124,229.902311 371.05451,229.743291 368.808754,229.342494 C367.478175,229.881216 366.431562,229.723819 364.185805,229.319777 C362.850359,229.866613 361.8005,229.709215 359.551498,229.303551 C358.220919,229.855254 357.174306,229.694611 354.928549,229.290569 C353.597971,229.839027 352.549734,229.68163 350.310468,229.279211 C348.981513,229.830914 347.931654,229.671894 345.692388,229.269475 C344.361809,229.817933 343.313573,229.65729 341.066194,229.256494 C339.733992,229.806574 338.685756,229.649177 336.441622,229.243512 C335.112666,229.795216 334.06443,229.636195 331.823542,229.230531 C330.496208,229.782234 329.44635,229.623214 327.203838,229.222418 C325.874882,229.762763 324.826646,229.605365 322.585757,229.202946 C321.251934,229.746536 320.203697,229.589138 317.964431,229.186719 C316.536494,229.715706 315.480144,229.55993 313.344728,229.176984 C311.80645,229.683252 310.758213,229.527477 308.749364,229.16887 C307.043952,229.610233 306.042773,229.48042 304.34872,229.180229 C303.777545,229.275966 303.295616,229.340872 302.857498,229.366834 C302.080246,229.496647 301.226728,229.392797 300,229.180229 C298.773272,229.392797 297.918132,229.496647 297.140879,229.366834 C296.702762,229.340872 296.222455,229.275966 295.649658,229.180229 C293.957227,229.48042 292.954425,229.60861 291.94351,229.267852 C289.241787,229.527477 288.191928,229.683252 287.028483,229.186719 C284.519856,229.55993 283.461884,229.715706 282.210816,229.110455 C279.79468,229.589138 278.746444,229.746536 277.41262,229.037435 C275.171731,229.605365 274.123495,229.762763 272.788049,229.050416 C270.552028,229.623214 269.503792,229.782234 268.168345,229.066643 C265.933947,229.636195 264.887334,229.795216 263.550264,229.082869 C261.312621,229.649177 260.264385,229.806574 258.925693,229.087737 C256.684804,229.65729 255.636568,229.817933 254.299499,229.100719 C252.066724,229.671894 251.018487,229.830914 249.681418,229.116945 C247.448643,229.68163 246.400407,229.839027 245.063338,229.123436 C242.825694,229.694611 241.777458,229.855254 240.440389,229.139662 C238.1995,229.709215 237.148019,229.866613 235.806082,229.146153 C233.568438,229.723819 232.520202,229.881216 231.18151,229.164002 C228.94549,229.743291 227.897253,229.902311 226.558562,229.185097 C224.325786,229.76114 223.274305,229.918538 221.937236,229.206191 C219.701215,229.78548 218.652979,229.942877 217.317532,229.227286 C215.083134,229.800084 214.036521,229.960727 212.697829,229.245135 C210.461808,229.821178 209.413572,229.978576 208.07488,229.262984 C205.840482,229.839027 204.792246,229.998048 203.458422,229.285702 C201.225647,229.861745 200.175788,230.02401 198.838719,229.306796 C196.601075,229.88933 195.554462,230.045105 194.21577,229.332759 C191.981372,229.902311 190.933136,230.061331 189.594444,229.34574 C187.363291,229.923406 186.313432,230.084049 184.976363,229.366834 C182.741965,229.9445 181.693729,230.101898 180.35666,229.386306 C178.119016,229.96884 177.072403,230.126238 175.733711,229.412269 C173.499313,229.983444 172.449454,230.144087 171.112385,229.426873 C168.877987,230.006161 167.831374,230.163559 166.494304,229.446345 C164.256661,230.028878 163.206802,230.184653 161.86811,229.469062 C159.63209,230.045105 158.583853,230.20737 157.246784,229.488534 C155.012386,230.069445 153.965773,230.226842 152.628704,229.512873 C150.394306,230.087294 149.344447,230.244692 148.007378,229.532345 C145.769734,230.108388 144.723121,230.267409 143.384429,229.548572 C141.154899,230.12786 140.10504,230.286881 138.769594,229.572912 C136.535195,230.153823 135.485337,230.309598 134.14989,229.595629 C131.912247,230.174917 130.862388,230.333938 129.525319,229.618346 C127.290921,230.192767 126.242685,230.35341 124.903993,229.636195 C122.669595,230.217106 121.624604,230.374504 120.287535,229.658913 C118.053137,230.230088 117.003278,230.390731 115.669454,229.678384 C113.431811,230.254428 112.383574,230.413448 111.041637,229.694611 C108.92407,230.24956 107.867721,230.402089 106.626389,229.80982 C104.413085,230.252805 103.361604,230.411825 102.198159,229.92016 C99.9442888,230.244692 98.9057886,230.403712 97.8397032,230.038614 C95.4560206,230.243069 94.4564641,230.397221 93.502342,230.153823 C90.979111,230.236578 90.0947631,230.361523 89.3029067,230.251182 C88.7706753,230.259295 88.1751604,230.186276 87.4368516,230.064577 C86.5103147,230.22522 85.7931005,230.325824 85.166755,230.309598 C84.4657674,230.398844 83.6885148,230.303107 82.6240521,230.119747 C81.9668762,230.233333 81.4216635,230.30473 80.9332439,230.327447 C80.0764812,230.528656 79.1661709,230.415071 77.7804221,230.170049 C75.6157982,230.650356 74.6259777,230.522166 72.9578867,230.226842 C71.1405112,230.796395 70.1036337,230.638997 68.1321059,230.283635 C66.6084313,230.890509 65.5683084,230.739602 63.4896853,230.366391 C62.1136725,231.008963 61.0800402,230.858056 58.8748499,230.46375 C57.5312902,231.1047 56.4992806,230.95217 54.2551465,230.549751 C52.9099642,231.198814 51.8763319,231.047907 49.6305752,230.642242 C49.2861243,230.747846 49.0828363,230.811038 48.9590537,230.849803 C49.0014715,230.849963 49.0346456,230.850025 49.0611395,230.850124 L49.1358677,230.850957 C49.1393159,230.851565 49.0764379,230.852376 48.9328328,230.853188 L48.9475628,230.853403 C48.7980964,230.900248 48.7713505,230.909339 48.7446047,230.916471 C49.9112948,231.094964 52.721736,231.124171 47.6298396,231.158247 C46.8250019,231.05602 46.2797893,231.047907 46.007183,231.041416 C45.8222001,230.957038 44.9492108,230.945679 44.334224,230.934321 C44.3729875,230.95848 44.4178609,230.980136 44.4632775,230.999563 L44.5311138,231.027067 C44.8653736,231.15658 45.0736145,231.168524 42.8073041,231.179342 C44.0518817,231.202059 38.4228859,231.228021 40.2921864,231.252361 C40.0583957,231.258767 39.1586304,231.265425 38.2024955,231.272136 L37.8184802,231.274823 C36.4740192,231.284233 35.1783841,231.293696 35.6043314,231.302664 C31.3610844,231.36757 35.0526282,231.382174 39.4321784,231.395155 C35.9353534,231.417872 33.2336301,231.440589 35.3301024,231.458439 C35.2469297,231.458717 35.1604613,231.458921 35.0715832,231.459054 L34.5164847,231.459038 C34.4689979,231.45897 34.4213517,231.458887 34.3736567,231.458789 L34.0877878,231.458019 C32.8541656,231.453912 31.7373089,231.440033 32.6835495,231.424363 C32.9327625,231.414086 32.1507603,231.404826 31.1458706,231.394168 L31.063,231.393 C31.2411717,231.419544 31.7175905,231.43692 32.2289204,231.451204 L32.5851758,231.460655 L32.5851758,231.460655 L32.8190405,231.466569 C32.9723407,231.470437 33.1191099,231.474174 33.2514793,231.477911 C34.377603,231.482779 35.2067805,231.487647 35.7925596,231.494137 C32.8295886,231.583383 31.4957649,231.597987 31.1809695,231.614214 C31.0669199,231.632449 30.8903484,231.650862 30.6964012,231.66945 L30.5483883,231.683425 L30.5483883,231.683425 L30.3234103,231.704511 C29.6055465,231.772696 29.0301381,231.843202 30.7477202,231.916028 C33.1909638,231.938077 34.0281479,231.960805 34.7314938,231.984213 L34.9211031,231.990614 C35.2352753,232.00131 35.5494474,232.012146 36.0018823,232.023123 C33.7239674,232.186274 33.7308201,232.261372 33.8383897,232.304033 L33.862186,232.312698 L33.862186,232.312698 L33.8842898,232.320492 C33.9236212,232.33529 33.9241442,232.345589 33.7139365,232.355768 C31.5736524,232.47909 29.9234106,232.445014 29.8098246,232.409315 C29.1266862,232.38173 28.2455837,232.352523 26.0955637,232.323315 C25.9447882,232.322131 25.7923965,232.320946 25.6391501,232.319762 L25.0234104,232.315026 C24.9206289,232.314237 24.8179186,232.313447 24.7155052,232.312658 L24.4093813,232.31029 C21.2091685,232.285423 18.5273616,232.260557 23.4149349,232.235691 C21.6089181,232.175653 23.6859186,232.115615 20.825175,232.055576 C18.7436197,232.021871 19.863036,231.987654 21.1075885,231.953499 L21.3416576,231.947096 C22.2387866,231.922555 23.1012498,231.898065 22.7869668,231.873839 C22.8111592,231.852007 23.4867744,231.82996 24.1617654,231.807777 L24.3635919,231.801118 C25.4663623,231.764472 26.3899136,231.727475 24.2051687,231.690479 C20.7879023,231.659188 21.2183267,231.627897 21.9424782,231.596395 L22.0725954,231.590833 C22.7531459,231.562087 23.5040842,231.533154 21.6316353,231.503873 C23.5142697,231.423446 22.7411459,231.341638 22.0156136,231.2598 L21.8719427,231.243433 C21.5419291,231.205243 21.2615285,231.167066 21.3054813,231.129039 C24.4184695,231.08617 23.1500417,231.0433 21.621377,231.000431 L21.071314,230.98512 C20.5240928,230.96981 20.0062568,230.954499 19.7055419,230.939189 C18.7434124,230.905677 20.1465387,230.872166 21.5140836,230.838394 L21.840382,230.830284 C22.8637117,230.804584 23.7555517,230.778722 23.461992,230.752583 L23.2779329,230.724482 L23.2779329,230.724482 L22.6792419,230.63256 C21.936753,230.517292 21.8600066,230.496697 21.9869971,230.475109 C21.8815244,230.340428 21.8734111,230.226842 21.8799018,230.111634 C20.5087569,230.895377 19.4913512,230.742847 17.2277453,230.333938 C17.3494445,229.460948 17.1612163,228.591204 16.8399303,227.731196 C16.789628,227.598139 16.7490616,227.484553 16.7020045,227.372589 C16.3848911,226.616763 15.9767845,225.872225 15.5847434,225.146221 L15.3905574,224.784797 C14.2713974,222.685893 13.4406965,220.754932 15.5547863,219.171683 C14.9122143,217.136871 13.8185437,220.12905 12.059584,219.257684 C12.2964918,218.934775 12.4960786,218.579413 12.6713255,218.207825 L12.4337383,218.207056 C12.4047983,218.206972 12.3750725,218.206889 12.3446222,218.206806 L12.0526591,218.206072 C12.0184127,218.205992 11.9836254,218.205912 11.9483586,218.205833 L11.6196653,218.205132 C11.5820729,218.205055 11.5441848,218.204979 11.5060623,218.204903 L11.0412605,218.204012 C11.0022428,218.203939 10.9632358,218.203867 10.9243007,218.203795 L10.5774805,218.203156 C10.5395283,218.203086 10.5018318,218.203017 10.4644523,218.202947 L10.0350349,218.202131 C10.0011717,218.202064 9.96787044,218.201998 9.93519255,218.201931 L9.5768993,218.201149 C9.55018841,218.201085 9.52434593,218.201021 9.49943313,218.200957 L9.20312583,218.200017 C9.18904157,218.199956 9.17619333,218.199894 9.16464239,218.199833 L9.09222251,218.199105 C9.09203024,218.199045 9.09338034,218.198985 9.09633408,218.198926 L9.26857193,218.198038 C9.28909382,218.197979 9.31152568,218.19792 9.33592881,218.197862 L9.72730779,218.197162 C9.76846126,218.197104 9.81183107,218.197046 9.85747848,218.196988 L10.3314547,218.196466 C10.7041248,218.195925 11.0356876,218.195384 11.3299895,218.194844 L11.7439772,218.194032 C11.937479,218.193627 12.1111033,218.193221 12.2664727,218.192815 L12.5533523,218.192004 C12.5972692,218.191869 12.639278,218.191733 12.6794388,218.191598 C13.3138975,216.776642 13.4810311,215.262703 12.961781,213.773104 C12.853063,213.476158 12.7410997,213.210042 12.6015513,212.947172 C13.1418959,212.572338 13.6432968,212.165052 14.1511883,211.80969 C14.3377938,211.679877 14.4724743,211.593876 14.6055322,211.512744 C15.5969754,210.948059 16.5575881,210.740359 17.815147,211.2661 C18.0114884,211.030815 17.9530728,210.853945 17.8816759,210.683566 C14.2631516,210.654358 10.2097554,210.626773 15.6992027,210.599188 C13.8915633,210.53915 15.9701864,210.479111 13.1094428,210.419073 C11.0269765,210.385367 12.1459933,210.35115 13.3903705,210.316996 L13.7411224,210.307392 C14.594204,210.283923 15.3702305,210.260508 15.069612,210.237336 C16.6111358,210.164316 17.3478219,210.144844 17.6626172,210.12375 C13.388452,210.052704 13.822243,210.002044 14.4842496,209.960496 L14.5847022,209.954331 C15.1236053,209.921798 15.6652147,209.894736 13.9159031,209.86737 C15.6102741,209.794985 15.1534809,209.721483 14.5162655,209.647846 L14.3724931,209.631481 C14.1789728,209.609658 13.9824287,209.587831 13.8341246,209.566023 L13.7327424,209.549672 C13.6268847,209.5306 13.5677727,209.511549 13.5897491,209.492536 C16.6275455,209.450687 15.4915002,209.408838 14.0134983,209.36699 L13.7952091,209.360865 C13.7219288,209.358824 13.6482797,209.356783 13.5747064,209.354741 L13.3546589,209.348617 C12.8073332,209.333306 12.2892945,209.317996 11.9881871,209.302685 C11.0616979,209.270471 12.3270837,209.238256 13.643122,209.206042 L13.9355385,209.198883 C14.1784633,209.192917 14.4176858,209.186952 14.639608,209.180986 C16.1600372,209.109589 16.4748326,209.103099 16.7425709,209.096608 C16.5624561,208.984645 15.2562175,208.952191 14.681797,208.919738 C13.7455242,208.858077 13.9954133,208.796416 17.1190273,208.73151 C17.054121,208.557886 17.0281585,208.504338 17.0086866,208.450791 C15.3957659,208.304752 15.3097651,208.296638 15.2318776,208.290148 C14.255288,208.279663 13.832005,208.271252 13.7130179,208.264456 L13.6777294,208.261191 C13.6573359,208.255966 13.8194381,208.251809 14.0199326,208.248456 L14.1436835,208.246539 L14.1436835,208.246539 L14.2697316,208.244801 C14.4986985,208.241773 14.7043738,208.239588 14.6949558,208.237893 L14.6673343,208.237015 C14.6417049,208.236598 14.597483,208.236213 14.5307777,208.235852 L14.3662366,208.235162 C14.3334325,208.235051 14.297842,208.234943 14.2593211,208.234837 L13.9918773,208.234221 C13.9410581,208.234121 13.8870203,208.234023 13.8296197,208.233926 L13.44371,208.233355 L13.44371,208.233355 C13.9808094,208.228487 11.1233111,208.223619 11.0632728,208.218751 C10.8663905,208.185757 10.446483,208.16322 10.0037982,208.147594 L9.60463875,208.135301 C8.85947974,208.115245 8.22210924,208.112088 8.67634491,208.10841 C11.4156715,208.082024 13.1435247,208.071595 13.11557,208.065984 L13.0922589,208.065041 C13.0713387,208.064593 13.0364078,208.064177 12.9869549,208.063785 L12.868535,208.063033 C12.7994922,208.062672 12.7155865,208.06233 12.6163067,208.061999 L12.3970965,208.061353 L12.3970965,208.061353 C15.4699553,208.045957 15.1777525,208.038676 15.5312605,208.033897 L15.6011635,208.033078 C15.6402827,208.03268 15.686266,208.0323 15.7418685,208.031932 L15.8667153,208.031213 C15.9131503,208.030979 15.9646769,208.030749 16.0221114,208.030523 C16.7815147,207.79686 16.7815147,207.795237 16.779892,207.791992 C16.6158626,207.735905 16.0920267,207.691397 15.4612952,207.655984 L15.2691217,207.645631 C15.0417682,207.633864 14.804418,207.623182 14.5679149,207.613476 L14.3656583,207.605394 L14.3656583,207.605394 L14.1653339,207.597776 C12.5413731,207.537413 11.2625339,207.521955 14.0481538,207.514873 L14.4098169,207.514045 C14.6010582,207.513649 14.808104,207.51328 15.0318078,207.512927 L15.5016789,207.512244 C15.5837769,207.512133 15.6677889,207.512023 15.7537467,207.511914 L16.2930951,207.511272 L16.2930951,207.511272 C11.506258,207.457725 10.4239461,207.443121 13.2846897,207.426894 C12.2981145,207.363611 14.4075681,207.349007 16.6354756,207.334403 C11.2579916,207.261383 11.246633,207.246779 12.5398903,207.22893 C13.3041616,207.11859 15.551541,207.110476 16.5592107,207.10074 C15.8127887,206.881682 14.8781385,206.876814 13.5962398,206.871946 C12.9731396,206.825464 14.1522318,206.807188 15.3979301,206.796786 L15.7097379,206.794338 C15.9690602,206.792415 16.2249958,206.790761 16.4618513,206.78919 C16.1206878,206.740916 15.8034584,206.70035 15.5260602,206.665564 L15.2625278,206.632634 C14.5983204,206.549578 14.2550383,206.503062 14.5341353,206.456546 C15.0062269,206.324553 14.1151238,206.266926 13.1732513,206.239511 L12.875661,206.231806 C12.3325975,206.219334 11.8188223,206.215429 11.5890135,206.211524 L11.5717427,206.191508 C11.5037704,206.126781 11.3213457,206.116282 9.90794128,206.104429 C11.8908277,206.057372 7.85690332,206.047636 12.48472,206.034655 C10.4693805,205.987598 9.46008806,205.974617 9.34487944,205.964881 L9.63683403,205.964199 C10.4110155,205.962447 11.8027985,205.959607 13.1175561,205.956767 C12.8725349,205.945409 13.7439015,205.93405 15.8355059,205.921069 C15.9013667,205.901024 15.4328456,205.897403 14.4566953,205.895713 L14.039225,205.895106 L14.039225,205.895106 C15.0225549,205.886993 15.707316,205.880503 16.1713958,205.872389 C15.0371588,205.79937 13.7942039,205.796124 13.4112569,205.791256 C13.0975084,205.78843 12.6657281,205.78533 12.2317418,205.782155 L11.9433619,205.780029 C10.9894799,205.772921 10.1518109,205.76566 10.7014204,205.760426 C13.3836717,205.749067 8.13275495,205.737709 8.0483768,205.72635 C8.45084799,205.72232 9.13199736,205.718494 9.82844358,205.714727 L10.2082573,205.712677 C11.3427513,205.706541 12.3899778,205.700492 12.1958871,205.693897 C13.4923897,205.689029 15.1929339,205.684161 16.1097349,205.67767 C14.370247,205.484574 13.1418959,205.479706 13.4972577,205.474838 C14.9787432,205.405064 15.5434277,205.403441 16.0221114,205.401819 C15.9880356,205.288233 15.9458465,205.173024 15.9133934,205.059438 C15.5963775,205.000681 14.8973317,204.989102 13.5778807,204.985942 L13.0535396,204.985075 C12.9611472,204.984971 12.8662151,204.984881 12.7686849,204.984796 C14.8489307,204.915022 15.3779167,204.913399 15.8663364,204.910154 C15.2967839,204.824153 14.1982454,204.817662 12.0109043,204.812794 C10.6754579,204.803059 12.58857,204.793323 15.8322606,204.781964 C10.9496868,204.637548 8.18954793,204.619698 14.0862821,204.603472 C15.7397692,204.441206 15.7089387,204.314639 15.6732402,204.184826 C14.7184752,204.178397 14.8216852,204.171968 15.0021516,204.165538 L15.0549684,204.163701 C15.321092,204.154516 15.5542658,204.145332 12.8952521,204.136147 C11.9687152,203.873276 11.8259214,203.860295 15.5823715,203.844068 C15.5255785,203.62501 15.5028613,203.539009 15.4785214,203.453008 C15.116669,203.44814 14.526022,203.44165 13.453446,203.436782 C11.51356,203.424612 12.6596626,203.411529 14.0617901,203.398903 L14.2973633,203.396803 C14.4553456,203.395406 14.6145476,203.394016 14.7710875,203.392634 L15.0034155,203.390568 C15.1563227,203.389195 15.3046267,203.387832 15.4444456,203.386479 C15.3973886,203.141458 15.3941433,203.131722 15.3925206,203.123609 C15.3519542,202.972702 15.3373503,202.919154 15.3227464,202.863984 C15.2643308,202.638435 15.2513495,202.594623 15.2399909,202.552434 C14.5179087,202.545943 13.4063889,202.53783 12.3613981,202.532962 C7.33416622,202.517081 7.38263804,202.507028 8.25828435,202.499952 L8.37684087,202.499046 C8.47896514,202.498304 8.58867986,202.497596 8.70052902,202.496918 L8.83542336,202.496119 C8.90303362,202.495726 8.97062661,202.495344 9.03702383,202.494971 L9.16787474,202.494238 C9.1893011,202.494118 9.21050731,202.493998 9.23144971,202.49388 L9.35358923,202.493182 C9.37330181,202.493068 9.39266328,202.492954 9.41163001,202.492841 L9.52034416,202.492176 C9.53755729,202.492066 9.55428837,202.491958 9.57049375,202.49185 L9.66106853,202.491213 C9.67499654,202.491109 9.68831156,202.491005 9.70096994,202.490902 L9.76869136,202.490291 C9.77854859,202.49019 9.78766188,202.49009 9.79598759,202.489991 L9.84847571,202.489114 C9.85168309,202.489018 9.85397193,202.488923 9.8552986,202.488828 C9.84866669,202.488172 9.84492059,202.48808 9.84008137,202.487988 L9.76583564,202.48717 C9.75404487,202.48708 9.74103003,202.48699 9.72674748,202.486901 L9.56279776,202.486105 C9.5405161,202.486017 9.51683578,202.48593 9.49171316,202.485842 L9.22548882,202.48506 C9.19131953,202.484973 9.155577,202.484887 9.11821757,202.4848 L8.87430902,202.484282 L8.87430902,202.484282 L9.01944352,202.483999 L9.01944352,202.483999 L9.38543808,202.48315 C9.42053497,202.483056 9.45382919,202.482961 9.48537448,202.482867 L9.72351141,202.482018 C9.74504662,202.481924 9.76499406,202.481829 9.78340748,202.481735 L9.87590944,202.481169 C9.88840164,202.481075 9.89946727,202.48098 9.90916004,202.480886 L9.96077867,202.480037 C9.96271788,202.479943 9.96344542,202.479848 9.96301501,202.479754 L9.94696706,202.479188 C9.94211979,202.479094 9.93622202,202.478999 9.92932749,202.478905 L9.8418147,202.478056 C9.82942313,202.477961 9.81619597,202.477867 9.80218695,202.477773 L9.70918036,202.477207 C9.69225881,202.477112 9.67466287,202.477018 9.65644624,202.476924 L9.47718893,202.476075 C9.45573178,202.47598 9.43381513,202.475886 9.41149271,202.475792 L9.27311874,202.475226 C9.24938813,202.475131 9.22535922,202.475037 9.20108571,202.474943 L8.97747077,202.474093 C8.95221325,202.473999 8.92687232,202.473905 8.90150171,202.47381 L8.74935161,202.473244 C8.72407716,202.47315 8.69888048,202.473056 8.6738153,202.472961 L8.45322963,202.472112 C8.42943695,202.472018 8.40593695,202.471924 8.38278336,202.471829 L8.2484484,202.471263 C8.22689532,202.471169 8.20579609,202.471075 8.18520444,202.47098 L8.01503492,202.470131 C7.9979723,202.470037 7.98157844,202.469942 7.96590707,202.469848 L7.88097852,202.469282 C7.86841201,202.469188 7.85667544,202.469093 7.84582253,202.468999 L7.77345606,202.46815 C7.76838871,202.468056 7.7643662,202.467961 7.76144227,202.467867 C7.77039005,202.466924 7.77580086,202.466829 7.78252515,202.466735 L7.83906247,202.466169 C7.85125559,202.466075 7.86486964,202.46598 7.87995835,202.465886 L8.05702325,202.465037 C8.08144347,202.464942 8.10749953,202.464848 8.13524516,202.464754 L8.32242355,202.464188 C8.35714235,202.464093 8.39365818,202.463999 8.43202475,202.463905 L8.8287447,202.463056 C8.8786993,202.462961 8.93066582,202.462867 8.984698,202.462773 L9.33410872,202.462207 C9.39661842,202.462112 9.46130123,202.462018 9.52821087,202.461924 L10.1919728,202.461074 C10.2727269,202.46098 10.3558691,202.460886 10.4414531,202.460791 L10.9846874,202.460225 C11.0802532,202.460131 11.1783682,202.460037 11.2790861,202.459942 L10.9025055,202.459079 C10.6204443,202.458364 10.4156861,202.457661 10.2725763,202.456966 L10.1294339,202.456136 C10.0716564,202.455723 10.0338181,202.455312 10.0125376,202.454902 L9.99105172,202.454086 C9.99034543,202.453678 10.0039427,202.453272 10.0284621,202.452866 L10.0910619,202.452054 C10.1286414,202.451649 10.1748888,202.451243 10.2264227,202.450836 L10.3355373,202.450022 C10.4306703,202.449342 10.5342263,202.448658 10.6305507,202.447967 L10.741667,202.447134 C10.7944877,202.446716 10.8424508,202.446295 10.8821749,202.44587 L10.949636,202.445014 C11.0131866,202.444009 11.0196073,202.442981 10.9259423,202.441919 L10.8201452,202.441001 C10.5775738,202.439302 10.0575444,202.437515 9.09336766,202.435603 C9.97230666,202.424785 10.2167869,202.416672 10.2798902,202.410361 L10.2977858,202.407573 C10.2991719,202.407129 10.2998972,202.406695 10.3001679,202.406269 C10.2828134,202.39566 10.2490736,202.391292 12.106641,202.386923 C12.6129099,202.35447 14.0229985,202.347979 15.1848206,202.339866 C14.5747017,202.193827 14.0294891,202.192204 13.6319382,202.190581 C14.9712649,202.02761 15.0539099,201.897104 15.0322187,201.770657 L15.0241776,201.734615 L15.0241776,201.734615 C13.6124663,201.721634 11.3829361,201.718388 11.997923,201.711898 L11.2183887,201.711051 C11.1613467,201.710981 11.1062381,201.71091 11.0530278,201.71084 L10.6244487,201.710207 C10.5823145,201.710137 10.541974,201.710067 10.5033922,201.709996 L10.122598,201.709157 C10.0975279,201.709087 10.074077,201.709018 10.0522103,201.708948 L9.8636205,201.708117 C9.8538694,201.708048 9.84556294,201.707979 9.83866623,201.70791 L9.8213395,201.70709 C9.82516228,201.707022 9.83025519,201.706954 9.83658333,201.706886 L9.96957836,201.70608 C9.9852299,201.706013 10.0019771,201.705947 10.019785,201.70588 L10.2821604,201.705091 C10.3078956,201.705026 10.3345519,201.704961 10.3620945,201.704896 L10.732909,201.704126 C10.7669828,201.704063 10.8018031,201.703999 10.8373352,201.703936 L11.4193304,201.703006 C11.4611069,201.702945 11.5034205,201.702884 11.5462365,201.702823 L12.0819035,201.702108 C12.1281793,201.702049 12.1748177,201.701991 12.221784,201.701933 L12.9464974,201.701079 C12.9958687,201.701023 13.0453934,201.700968 13.0950364,201.700913 L13.8441957,201.700108 C13.8941497,201.700056 13.9440476,201.700004 13.9938544,201.699953 L14.8730048,201.699059 C14.9204625,201.699011 14.9676198,201.698963 15.0144416,201.698916 C14.9495354,201.431178 14.9414221,201.392234 14.9316862,201.353291 C14.4043228,201.103401 14.0716782,201.096911 14.1349618,201.093666 C11.332402,200.98857 11.3557085,200.939663 11.6253931,200.915565 L11.6799739,200.911202 C11.6893526,200.910524 11.6988145,200.909869 11.708273,200.909237 L11.7642906,200.905709 C11.9098685,200.896981 12.0102484,200.893513 11.7107737,200.890992 L11.5790348,200.890082 C11.5284123,200.889788 11.4708494,200.889501 11.4056533,200.889211 C13.7230388,200.840995 14.3502784,200.833353 14.7268742,200.829909 L14.8099869,200.829172 L14.8099869,200.829172 C9.37499886,200.734913 10.3543851,200.673496 11.8112363,200.624243 L11.9717741,200.618918 C12.8350325,200.59076 13.7868381,200.566466 13.6579007,200.541962 C13.5637866,200.538068 12.9203059,200.535212 12.2965567,200.532875 L12.0646872,200.532022 C11.9503264,200.531607 11.8391602,200.531208 11.7349401,200.530821 L11.5368725,200.530063 C11.4435809,200.529692 11.3597362,200.52933 11.2890898,200.528976 L11.1665062,200.528275 C11.1493791,200.52816 11.1339963,200.528044 11.1204968,200.52793 L11.0632109,200.527245 C11.0578004,200.527131 11.054551,200.527018 11.0536018,200.526904 L11.0766191,200.526221 C11.0854261,200.526107 11.0968111,200.525993 11.110913,200.525878 L11.2292391,200.525184 C11.2547645,200.525068 11.2832847,200.52495 11.3149387,200.524832 L11.5435791,200.524113 L11.5435791,200.524113 C13.0151812,200.511132 13.7461008,200.506733 14.2438065,200.504675 L14.4205054,200.504001 C14.4484636,200.503903 14.4757587,200.503811 14.5025144,200.503723 L14.7320994,200.503019 L14.7320994,200.503019 C13.2132928,200.245016 11.6393159,200.240148 12.541513,200.23528 C10.8145427,200.228326 8.60574279,200.2222 8.24856911,200.216901 L8.20591311,200.216001 C8.17832514,200.21496 8.23013585,200.213952 8.38001286,200.212978 L8.5329305,200.212151 C8.62183284,200.211741 8.729727,200.211338 8.85808245,200.21094 L8.67439558,200.210165 C8.64876403,200.210036 8.62557343,200.209908 8.60474801,200.20978 L8.50757132,200.209014 C8.4725678,200.208633 8.45748687,200.208255 8.46028258,200.207878 L8.48910332,200.207129 C8.49767729,200.207004 8.50808601,200.20688 8.52025369,200.206756 L8.61376115,200.206015 C8.67046247,200.205647 8.74163051,200.20528 8.82521932,200.204915 L9.00835177,200.204188 C9.04143195,200.204068 9.07574067,200.203947 9.11120214,200.203827 L9.33719786,200.203108 C9.37696726,200.202989 9.41773787,200.20287 9.4594339,200.202751 L9.72010909,200.202039 C9.85539307,200.201685 9.99764195,200.201332 10.1448098,200.200981 L10.4450979,200.200281 C10.4960369,200.200164 10.547371,200.200048 10.5990242,200.199932 L10.9121683,200.199238 C10.9647954,200.199123 11.0175901,200.199008 11.0704768,200.198893 L11.3882931,200.198205 C11.4412442,200.198091 11.4941356,200.197977 11.5468917,200.197863 L11.8611964,200.19718 C11.9131076,200.197067 11.9647318,200.196954 12.0159932,200.19684 L12.3186026,200.196163 C12.3681099,200.19605 12.4171029,200.195938 12.4655058,200.195826 L12.7482359,200.195153 C12.7939754,200.195041 12.8389732,200.194929 12.8831536,200.194818 L13.1378208,200.194149 C13.1784284,200.194038 13.2180671,200.193927 13.256661,200.193816 L13.4750814,200.193151 C13.5091933,200.193041 13.5421088,200.19293 13.5737523,200.19282 L13.7477421,200.192158 C13.7739942,200.192048 13.7988227,200.191938 13.8221518,200.191829 L13.9435273,200.19117 C13.9605556,200.191061 13.9759331,200.190951 13.9895838,200.190842 L14.0501611,200.190186 C14.0566018,200.190077 14.0611642,200.189968 14.0637726,200.189859 C14.049857,200.189096 14.0422404,200.188988 14.0324425,200.188879 L13.9468721,200.188227 C13.9280455,200.188118 13.906886,200.18801 13.8833178,200.187901 L13.7123978,200.187251 C13.6788917,200.187142 13.6428253,200.187034 13.6041228,200.186926 L13.3396695,200.186276 C13.2901198,200.186168 13.2377825,200.18606 13.1825819,200.185952 L12.8164114,200.185302 C12.7494542,200.185194 12.679482,200.185086 12.6064192,200.184978 C13.3934077,200.154147 14.1398297,200.150902 14.6509666,200.149279 C14.6039095,199.949693 14.577947,199.840975 14.5536072,199.733879 C14.4903236,199.471009 14.4838329,199.440178 14.4773423,199.409348 C13.6935992,199.406103 12.7881568,199.402857 11.7561472,199.397989 C12.8303458,199.393121 13.7211843,199.388253 14.4708517,199.383385 C14.4465118,199.277913 14.4205493,199.17244 14.3978321,199.06859 C13.3014155,199.008677 12.0529109,199.001303 12.3497485,198.99797 L12.4571348,198.997193 L12.4571348,198.997193 C12.8878764,198.996456 13.2445256,198.995718 13.5417119,198.99498 L13.8707296,198.994095 C14.072295,198.993505 14.2395494,198.992915 14.3799829,198.992325 C11.5890135,198.878739 10.599193,198.864135 10.7987798,198.844663 C9.70551487,198.754525 10.3346553,198.710527 11.0923013,198.687291 L11.3009206,198.68145 C11.8593481,198.667145 12.4091042,198.662601 12.3370582,198.658058 C12.3434287,198.657697 12.3486951,198.657346 12.3537946,198.657001 L12.3695298,198.655985 C12.3752328,198.655653 12.3817061,198.655325 12.3898869,198.655 L12.420489,198.654032 C12.539552,198.650982 12.8972955,198.648022 14.2972274,198.643454 C12.6428724,198.410999 11.7074359,198.390569 13.7310073,198.384931 L14.0570155,198.384172 C14.1151424,198.384055 14.1751885,198.383942 14.2371891,198.383829 L13.6868058,198.383001 C13.4272901,198.382593 13.1908571,198.382193 12.9755671,198.381801 L12.5726028,198.381028 C12.3846412,198.380646 12.2165293,198.380272 12.0663272,198.379905 L11.789228,198.379181 C11.7468332,198.379062 11.7062847,198.378944 11.6675106,198.378826 L11.4555845,198.378129 C11.4236208,198.378015 11.3932879,198.377901 11.3645138,198.377787 L11.2100015,198.377116 C11.1871757,198.377005 11.165765,198.376896 11.1456978,198.376786 L11.0408397,198.376139 C11.0258585,198.376032 11.012077,198.375926 10.9994233,198.37582 L10.9364601,198.375194 C10.9280303,198.375091 10.9205846,198.374989 10.9140512,198.374887 L10.8852234,198.374281 C10.8820518,198.374181 10.8796487,198.374081 10.8779424,198.373983 C10.8812852,198.373009 10.8835939,198.372914 10.886312,198.372819 L10.906958,198.372253 C10.9110261,198.372159 10.9153599,198.372066 10.9198875,198.371973 L10.9639291,198.371149 C10.9689729,198.371058 10.9739951,198.370968 10.9789237,198.370878 L11.0188148,198.370077 C11.0225353,198.369988 11.0259468,198.3699 11.0289773,198.369813 L11.044026,198.36903 C11.0441241,198.368944 11.0436258,198.368858 11.0424591,198.368772 L11.0119736,198.368003 C11.0061503,198.367918 10.999443,198.367833 10.99178,198.367748 L10.9337586,198.367241 C10.9219853,198.367156 10.9091126,198.367072 10.8950687,198.366988 L10.7351088,198.366232 C10.7133906,198.366148 10.6902856,198.366064 10.6657219,198.36598 C11.6036174,198.340017 13.188953,198.335149 14.2258305,198.330281 C14.1739055,198.096619 14.1236032,197.871069 14.0716782,197.637407 C14.0229985,197.41348 13.9873,197.260951 13.9532242,197.106798 C13.8964312,196.852041 13.8948086,196.840683 13.8915633,196.830947 C12.6846545,196.757116 10.8439409,196.749044 10.9678022,196.746968 L11.0324423,196.746568 L11.0324423,196.746568 C10.972404,196.728719 11.5192393,196.723851 13.0445365,196.720606 C13.46389,196.712463 12.6077254,196.707442 11.7215489,196.703999 L11.4905106,196.703136 C11.37547,196.702721 11.2617614,196.702331 11.1521487,196.701962 L10.9392036,196.701251 C10.9048959,196.701137 10.8712481,196.701025 10.8383625,196.700915 L10.6510142,196.700277 C10.6215868,196.700175 10.5931265,196.700074 10.5657354,196.699974 L10.3508511,196.69912 C10.3307972,196.699029 10.3121197,196.698939 10.294921,196.69885 L10.1828236,196.698078 C10.1754189,196.697995 10.1698001,196.697912 10.1660695,196.69783 L10.1862409,196.697104 C10.1947611,196.697024 10.2054767,196.696944 10.21849,196.696865 L10.4004121,196.696148 C10.4281331,196.696068 10.4584588,196.695987 10.4914918,196.695906 L10.8646464,196.695163 C10.9650412,196.694993 11.0774932,196.69482 11.2028213,196.694643 C8.11003775,196.671926 6.08983027,196.663813 6.86870544,196.654077 C6.84303141,196.652346 6.77504811,196.650667 6.70079563,196.649038 L6.64449392,196.647827 C6.3627393,196.641817 6.11952778,196.636528 7.81541095,196.631961 L8.1810053,196.631057 C8.3772929,196.63061 8.59423849,196.63017 8.8337426,196.629737 C7.58777413,196.621763 9.62130859,196.614401 9.75691777,196.607275 C9.73753655,196.602813 9.20196748,196.599395 7.55322583,196.595986 L7.05134543,196.595012 C6.87360785,196.594688 6.68525252,196.594363 6.48575848,196.594039 C6.2265898,196.586331 5.4278351,196.580626 4.53728651,196.576286 L4.2535316,196.57496 C3.82488911,196.573037 3.38622643,196.571405 2.98513657,196.569997 L2.72383196,196.56909 C2.59648511,196.568653 2.47448815,196.568239 2.35960379,196.567845 L2.13984082,196.567085 C2.10496833,196.566963 2.0710167,196.566843 2.03805121,196.566724 L1.85261431,196.566038 C1.82385454,196.565928 1.79621149,196.565819 1.76975044,196.565712 L1.62569043,196.565091 C1.60421853,196.56499 1.58405919,196.564891 1.56527772,196.564794 L1.46964541,196.564227 C1.4566365,196.564135 1.44513602,196.564044 1.43520925,196.563955 L1.39012127,196.563179 C1.39022435,196.563096 1.39209699,196.563014 1.39580449,196.562932 L1.48047573,196.562219 C1.49577993,196.562141 1.51311483,196.562064 1.53254572,196.561988 L1.87050251,196.561086 C1.90774594,196.561011 1.9473465,196.560937 1.98936948,196.560863 L2.43474443,196.56019 C2.49188952,196.560115 2.55165288,196.560039 2.6140998,196.559963 L3.1757157,196.559036 C4.14434513,196.557336 4.78262493,196.555637 5.17550906,196.553942 L5.36598335,196.553018 C5.67244108,196.551325 5.74894932,196.549637 5.68046201,196.547957 L5.62923619,196.547042 C5.53235972,196.54567 5.34876013,196.544305 5.12496741,196.542948 L4.97032834,196.542044 C4.78416057,196.540992 4.57993351,196.539944 4.37953986,196.538903 L4.20922329,196.538012 C4.01280733,196.536975 3.82647985,196.535943 3.67213358,196.53492 L3.54817951,196.534044 C3.45226226,196.533316 3.37585331,196.532591 3.32693105,196.531871 L3.28192857,196.531009 C3.2562722,196.530293 3.26129389,196.52958 3.30497202,196.528873 L3.3764515,196.528026 C3.45233133,196.527322 3.57005897,196.526624 3.73761281,196.52593 L3.9631046,196.5251 C4.08831941,196.524686 4.23262054,196.524275 4.39773132,196.523865 L4.7562097,196.523048 C4.82075067,196.522913 4.88773148,196.522777 4.95721595,196.522642 C5.10214323,196.501547 5.07290313,196.485061 5.01235374,196.472051 L4.96718849,196.463585 C4.77019643,196.430068 4.58737044,196.42402 7.98671585,196.417169 C5.14814855,196.371761 6.74920081,196.348344 8.47876838,196.332607 L8.73229284,196.330357 L8.73229284,196.330357 L8.98464967,196.328207 C9.73696626,196.321896 10.4329866,196.316796 10.707911,196.311696 C12.3493255,196.271 13.0225644,196.261233 13.432812,196.258889 L13.7649961,196.258149 L13.7649961,196.258149 C13.1026571,196.212419 12.2512318,196.208262 11.1180664,196.206665 L10.7695719,196.206224 C10.9697329,196.206124 11.1566145,196.206024 11.3309569,196.205924 L12.5814573,196.205029 C12.6343406,196.204979 12.6846441,196.204929 12.7324602,196.20488 L13.2747156,196.204143 C13.299971,196.204094 13.3232015,196.204046 13.3444998,196.203997 L13.5391565,196.203133 C13.5405968,196.203086 13.5406598,196.203039 13.5394379,196.202991 L13.3566357,196.202024 C13.3419587,196.201979 13.3266443,196.201934 13.3107851,196.20189 L12.9864574,196.201107 C12.9673901,196.201065 12.9483331,196.201023 12.9293787,196.200981 L12.541544,196.200022 C12.5301522,196.199984 12.519603,196.199946 12.509989,196.199909 C12.5174313,196.199033 12.5303749,196.199001 12.5450862,196.198969 L13.609221,196.198111 L13.609221,196.198111 C13.6806179,195.881692 13.6351835,195.67886 13.5929945,195.485764 C13.5248429,195.179082 13.4729179,194.971382 13.4242382,194.753946 C13.1032344,194.747691 12.7545748,194.741936 12.3920608,194.736635 L12.0782635,194.732202 C11.8144748,194.728598 11.5456293,194.725218 11.2767566,194.722046 L10.7938429,194.716556 C8.01605898,194.686086 5.56173785,194.676905 9.08849969,194.669568 C7.60609152,194.643733 8.48263802,194.628169 9.60132998,194.617774 L9.84398457,194.615624 L9.84398457,194.615624 L10.0894232,194.613621 L10.0894232,194.613621 L10.3330172,194.611753 C11.0162157,194.606645 11.6214667,194.603039 11.6750143,194.599794 C11.5273526,194.50568 12.2948692,194.499189 13.3625772,194.492698 C13.986993,194.450948 12.972419,194.422672 11.7820947,194.402771 L11.3952375,194.396657 L11.3952375,194.396657 L11.1359401,194.392883 C9.36937782,194.367885 7.78623005,194.358895 10.9805173,194.349905 C11.3706503,194.349209 11.7324696,194.348514 12.072234,194.347946 L12.7242109,194.347019 C12.9329706,194.346792 13.1337826,194.346659 13.3285014,194.346659 C11.2158025,194.093525 10.2892656,194.075676 13.2619725,194.057826 C13.1905756,193.751144 13.1694811,193.661898 13.1483865,193.574275 C13.0834803,193.2968 13.070499,193.233517 13.0542725,193.171856 C13.0315553,193.069629 13.0120834,192.982005 12.9926115,192.900872 C12.9260826,192.623398 12.9033654,192.511435 12.8774029,192.41083 C12.6389911,192.387321 12.3906407,192.367114 12.1466315,192.34973 L11.9045983,192.333269 C10.7069566,192.255493 9.73684621,192.244316 10.7792575,192.239983 L11.0151023,192.23919 C11.0590583,192.239067 11.1053827,192.238947 11.1541416,192.238828 C8.93795322,192.203491 8.59843736,192.181615 8.37769374,192.167075 L8.32396495,192.16359 C8.07528308,192.148004 7.78887194,192.141709 4.67325105,192.134978 L4.724848,192.134026 C5.0363957,192.125852 2.21955764,192.11566 4.74953631,192.107964 L5.07236011,192.10707 C5.3627886,192.106336 5.70780357,192.105627 6.1153914,192.104948 L6.63504289,192.104148 L6.63504289,192.104148 C7.37984228,192.091167 10.8036477,192.079808 10.2633031,192.068449 C11.1865947,192.011656 11.1249337,191.987317 12.1780379,191.966222 C12.650231,191.550822 12.5950606,191.359348 12.5431356,191.159762 C11.63818,191.053586 11.4245861,190.991591 11.2577534,190.954369 L11.1817267,190.938878 C10.9882249,190.904193 10.7249489,190.898514 9.40167242,190.892023 L9.26313741,190.891729 L9.26313741,190.891729 L9.0298584,190.89113 C8.99570718,190.891028 8.96387458,190.890926 8.93429207,190.890824 L8.78324989,190.890201 C8.76239364,190.890096 8.74365042,190.88999 8.72695172,190.889883 L8.65074535,190.889237 C8.64195056,190.889128 8.63506323,190.889018 8.63001482,190.888908 C8.62327641,190.888125 8.62701145,190.888012 8.63237984,190.887897 L8.683642,190.887204 C8.69526963,190.887087 8.70839355,190.88697 8.72294522,190.886852 L8.82684011,190.886135 C8.84682869,190.886014 8.86810798,190.885893 8.89060944,190.885771 L9.03973602,190.885031 C9.12108412,190.884657 9.21219826,190.884277 9.31122819,190.883892 L9.5192942,190.883113 C9.62805617,190.88272 9.74350043,190.882321 9.86377671,190.881916 L10.1102237,190.881098 C10.3200515,190.88041 10.5398751,190.879705 10.7611286,190.878985 L11.026771,190.878113 C11.4246193,190.876792 11.8159989,190.87542 12.1509529,190.873994 L12.365348,190.873036 C12.3995045,190.872875 12.4328274,190.872714 12.4652481,190.872552 C12.427927,190.737871 12.4019645,190.637266 12.376002,190.54153 C12.3345537,190.531123 12.3075989,190.521695 12.2868043,190.51314 L12.2642744,190.503287 C12.1301166,190.44188 12.1679492,190.431083 8.42321048,190.421453 C8.82334285,190.418355 8.89130668,190.414929 8.92321166,190.411331 L8.94166834,190.408996 C8.99961817,190.401928 9.15945404,190.394347 11.5452018,190.387377 C2.57551454,190.213149 9.20238206,190.194383 7.00972516,190.181943 L6.83080777,190.181031 C6.73291612,190.180579 6.62209938,190.18013 6.49711708,190.179677 C9.18748175,190.062846 6.6983265,190.05311 10.5975703,190.040129 C12.2234723,189.9736 12.2121137,189.926543 12.1991324,189.881108 C12.1098863,189.561445 12.0774332,189.473822 12.0482254,189.379707 C11.9638472,189.103856 11.8681105,188.855589 11.7821097,188.589474 C10.2016421,188.582983 9.72944905,188.57487 9.48605056,188.566756 C11.7954342,188.542323 11.3185766,188.527951 10.8448485,188.51819 L10.7407609,188.516094 C10.3506475,188.508335 10.1127393,188.503629 11.7512792,188.498605 C8.97351234,188.427651 6.86715319,188.395224 6.61639804,188.378225 L6.5926199,188.375728 C6.55587468,188.365806 7.30657687,188.361736 9.15665127,188.357434 C12.8774029,188.344452 7.37497431,188.334717 11.2239158,188.321735 C11.6052401,188.066978 11.6003721,188.05562 11.5971268,188.044261 C11.5273526,187.839806 11.511126,187.784636 11.4932768,187.735956 C10.9756493,187.568823 10.3882476,187.565577 9.63533497,187.563955 C5.85779037,187.547728 6.3429647,187.529879 7.51776809,187.513652 C8.08732056,187.27999 7.61999546,187.020365 7.15591567,186.650399 C6.26507718,186.591983 3.40757889,186.587115 3.34754059,186.582247 C3.13097002,186.545954 2.64453904,186.522314 2.15477752,186.506607 L1.88890656,186.498798 C1.14374754,186.478742 0.50637704,186.475585 0.960612715,186.471907 C3.77927308,186.444745 5.52702609,186.434492 5.39190995,186.428998 L5.35015125,186.4281 C5.31989818,186.427672 5.2754709,186.427274 5.2163581,186.426899 L5.07840028,186.426175 C5.05209335,186.426058 5.02411683,186.425943 4.99445177,186.425831 L4.79604742,186.42517 C4.75955245,186.425062 4.72133107,186.424956 4.68136433,186.42485 C5.72738779,186.415556 6.22866799,186.41152 6.51555148,186.409813 L6.67369284,186.409008 C6.68870485,186.408948 6.70298417,186.408896 6.71665118,186.408852 L6.8589695,186.408623 L6.8589695,186.408623 C5.66669135,186.168969 5.52796862,186.149152 6.35601538,186.144968 L6.58311788,186.14413 L6.58311788,186.14413 C6.2683225,185.837448 5.9502818,185.503181 5.61925985,185.112121 C6.01843338,184.858986 6.37054986,184.599361 6.69994916,184.338113 C7.18674614,183.935694 7.46746573,183.679315 7.71410954,183.421312 C7.28410554,183.351538 6.42572019,183.349915 5.05295269,183.348293 L4.82750581,183.347897 L4.82750581,183.347897 L4.40963539,183.347101 C4.21154708,183.346701 4.02956825,183.346299 3.86297495,183.345894 L3.55008788,183.345082 C3.40368686,183.344675 3.27218872,183.344266 3.15486953,183.343854 L2.93892187,183.343029 C2.77436236,183.342339 2.64784813,183.341645 2.55602755,183.340947 L2.46228129,183.340107 C2.39767935,183.339406 2.36643041,183.338702 2.36518281,183.337995 L2.37787184,183.337145 C2.39120218,183.33672 2.41485037,183.336294 2.44809245,183.335868 L2.52715398,183.335015 C2.60334096,183.334303 2.70483701,183.33359 2.82829048,183.332878 L2.9867597,183.332022 C3.12724285,183.33131 3.28834276,183.330598 3.46670781,183.329887 L3.68881863,183.329035 C3.88045952,183.328326 4.0880249,183.327618 4.30816311,183.326913 L4.57814943,183.326069 C4.80780965,183.325366 5.04870207,183.324667 5.29747503,183.323972 L5.59957075,183.32314 C5.75229543,183.322725 5.90737448,183.322312 6.06408393,183.321901 L6.37946222,183.321081 C6.5380238,183.320672 6.69773315,183.320265 6.85786632,183.319861 L7.17848326,183.319055 C7.3923186,183.31852 7.60604938,183.317989 7.81795956,183.317462 C8.1830573,182.892326 8.35019093,182.67489 8.501098,182.455832 C8.72826992,182.121564 8.91163012,181.801901 9.05929187,181.480615 C9.18748175,181.209631 9.21831222,181.100913 9.25725598,180.995441 C9.0673613,180.976583 8.73167644,180.960925 8.37590578,180.947635 L8.16103872,180.939938 C7.26409672,180.908997 6.398749,180.89181 7.52912669,180.875364 C4.40713536,180.851024 7.41391807,180.826684 9.32703021,180.803967 C9.5817873,180.033205 9.68239201,179.246217 9.67265607,178.446247 C9.6677881,178.092508 9.64344825,177.746882 9.60450449,177.399634 C9.57529668,177.146499 9.54608886,176.950158 9.51363572,176.755439 C9.48767322,176.593173 9.46495603,176.464983 9.44061618,176.335171 C9.29619974,175.591994 9.10797157,174.863421 8.90189418,174.133226 C8.82725198,173.868733 8.82400666,173.855752 8.81913869,173.84277 C8.77694962,173.696731 8.74936446,173.596127 8.7217793,173.498767 C8.68121288,173.362464 8.64389178,173.231029 8.60657068,173.101216 C8.56762692,172.966536 8.54328707,172.88378 8.51894722,172.799402 C1.92122543,172.786421 8.46864487,172.771817 4.61483541,172.758836 C5.93730055,172.710156 7.54048528,172.705288 8.49136206,172.702043 L8.20920468,172.686595 C8.06828875,172.679023 7.92772241,172.671676 7.78798029,172.664546 L7.50973562,172.650575 C3.72592134,172.46354 0.794281296,172.435252 8.40698391,172.408342 C8.31286983,172.080565 8.28852998,171.984829 8.26256748,171.890714 C8.02890492,171.029084 7.85528067,170.305379 7.73682673,169.589787 C7.54697591,168.42472 7.51290012,167.303464 7.75954393,166.21953 C7.98996116,165.215105 8.45404096,164.246379 9.28321849,163.323088 C9.23291613,163.154331 9.1631419,163.006669 9.09823563,162.850894 C9.00736686,162.631836 8.96193248,162.534476 8.91163012,162.440362 C8.82400666,162.291078 8.7850629,162.229417 8.74611915,162.167756 C6.75674214,159.065237 1.55450504,159.370296 0,155.847509 C1.34031436,150.518704 5.72797785,149.087521 9.9485077,149.989718 C11.3942947,149.600281 12.9812529,149.614884 14.5454939,149.945906 C16.0026395,149.549978 17.6009563,149.566205 19.1765559,149.902095 C20.6239656,149.51428 22.2093011,149.527261 23.7751647,149.859906 C25.2112158,149.470468 26.7835701,149.483449 28.3380751,149.803113 C28.6382666,149.720357 29.2564987,147.042974 29.2564987,147.042974 C29.8974481,147.080295 30.5270389,147.164673 31.1290445,147.335052 C32.7013987,147.023502 34.2899796,147.023502 35.7341439,147.429166 C37.3162341,147.115993 38.9096829,147.115993 40.3652059,147.524903 C41.9375602,147.213353 43.5277637,147.213353 44.9735507,147.619017 C46.5540182,147.305844 48.1490897,147.304221 49.60299,147.711508 C51.1785896,147.399958 52.7720384,147.401581 54.2210707,147.807245 C55.7966703,147.495695 57.3836285,147.495695 58.8326608,147.901359 C60.3190143,147.606036 61.818349,147.594677 63.2024751,147.937058 C64.7018098,147.619017 66.2141258,147.597922 67.6144784,147.925699 C69.1673608,147.584941 70.7429604,147.558979 72.1903701,147.912718 C73.759479,147.563846 75.3496825,147.537884 76.8149414,147.894868 C78.3743144,147.54762 79.9580273,147.518412 81.4135503,147.870529 C82.9810366,147.520035 84.5728627,147.490827 86.036499,147.844566 C87.6120985,147.49245 89.2055473,147.466487 90.6740516,147.823472 C92.2431605,147.476223 93.833364,147.448638 95.2937549,147.804 C96.8596186,147.455128 98.4481994,147.429166 99.9085903,147.784528 C101.412793,147.448638 102.939713,147.416185 104.353047,147.729357 C106.008157,147.453506 107.356584,147.417807 108.63037,147.648225 C110.796616,147.448638 111.893532,147.414562 112.945014,147.565469 C115.52666,147.440525 116.32663,147.416185 117.105505,147.487582 C117.954155,147.36426 118.835257,147.375618 119.72285,147.481091 C122.484612,147.249051 123.626962,147.255542 124.77418,147.434034 C126.982616,147.111125 128.39595,147.112748 129.806038,147.383732 C131.358921,146.981313 132.919916,146.974822 134.469554,147.279882 C135.918586,146.862859 137.512035,146.856368 139.092502,147.169541 C140.541535,146.750896 142.136606,146.744405 143.717074,147.055955 C145.164483,146.640555 146.754687,146.634064 148.331909,146.943992 C149.780941,146.526969 151.376013,146.520478 152.958103,146.832028 C154.408758,146.416628 156.002207,146.41176 157.582674,146.724933 C159.026839,146.311156 160.61542,146.304665 162.189396,146.614592 C163.636806,146.199192 165.22701,146.194324 166.802609,146.504252 C168.280849,146.07587 169.908374,146.07587 171.519672,146.40527 C173.044969,145.955794 174.732532,145.955794 176.395755,146.314401 C177.92592,145.889265 179.613483,145.911982 181.271838,146.281948 C182.728984,145.926586 184.314319,145.955794 185.876938,146.306288 C187.348687,145.946058 188.953495,145.975266 190.53234,146.33225 C191.987863,145.981756 193.56833,146.010964 195.129326,146.361458 C196.589717,146.004473 198.17992,146.033681 199.745784,146.385798 C201.207797,146.028813 202.798001,146.058021 204.365487,146.408515 C205.830746,146.051531 207.425818,146.079116 208.998172,146.434477 C210.460185,146.079116 212.050389,146.108324 213.616253,146.462063 C215.075021,146.108324 216.661979,146.135909 218.22622,146.486402 C219.689856,146.129418 221.281682,146.158626 222.850791,146.512365 C224.311182,146.158626 225.899763,146.187834 227.465627,146.538328 C228.929263,146.181343 230.522712,146.208928 232.093443,146.562667 C233.548966,146.208928 235.132679,146.238136 236.693675,146.587007 C238.162179,146.226777 239.763741,146.255985 241.339341,146.611347 C242.796486,146.260853 244.380199,146.288438 245.942818,146.63731 C247.404831,146.281948 248.996657,146.311156 250.565766,146.663272 C252.02778,146.30791 253.619606,146.335495 255.187092,146.687612 C256.647483,146.333873 258.234441,146.363081 259.800305,146.713574 C261.262319,146.358213 262.855767,146.385798 264.423254,146.736292 C265.88689,146.382552 267.477093,146.41176 269.04458,146.762254 C270.444932,146.424742 271.962116,146.444213 273.466319,146.754141 C275.064636,146.475044 276.452007,146.483157 277.836133,146.737914 C279.744377,146.517233 281.01654,146.518856 282.290326,146.734669 C284.424119,146.557799 285.568092,146.551309 286.720178,146.726556 C289.128201,146.59512 290.139116,146.583762 291.158144,146.721688 C292.430826,146.675734 293.29787,146.648473 293.955059,146.644572 L294.267072,146.644589 C294.810357,146.648268 295.204725,146.672229 295.600978,146.720065 C296.293852,146.664895 296.983481,146.669763 297.652016,146.752518 C298.41791,146.650291 299.204898,146.640555 300,146.720065 C300.793479,146.640555 301.58209,146.650291 302.346361,146.752518 C303.016519,146.669763 303.704525,146.664895 304.399022,146.720065 C305.297974,146.611347 306.190435,146.625951 307.052066,146.750896 C309.859262,146.583762 310.870177,146.59512 311.842148,146.754141 C314.430285,146.551309 315.575881,146.557799 316.664683,146.762254 C318.981837,146.518856 320.255623,146.517233 321.453143,146.768745 C323.54637,146.483157 324.933742,146.475044 326.225376,146.770367 C328.036261,146.444213 329.553445,146.424742 330.953798,146.762254 C332.522907,146.41176 334.11311,146.382552 335.575124,146.736292 C337.144233,146.385798 338.736059,146.358213 340.199695,146.713574 C341.763936,146.363081 343.350894,146.333873 344.811285,146.687612 C346.378771,146.335495 347.970597,146.30791 349.434234,146.663272 C351.00172,146.311156 352.593546,146.281948 354.057182,146.63731 C355.618178,146.288438 357.201891,146.260853 358.659037,146.611347 C360.236259,146.255985 361.836198,146.226777 363.306325,146.587007 C364.867321,146.238136 366.449411,146.208928 367.906557,146.562667 C369.475666,146.208928 371.069114,146.181343 372.532751,146.538328 C374.098614,146.187834 375.687195,146.158626 377.147586,146.512365 C378.716695,146.158626 380.308521,146.129418 381.772157,146.486402 C383.336398,146.135909 384.923357,146.108324 386.382125,146.462063 C387.949611,146.108324 389.539815,146.079116 391.001828,146.434477 C392.57256,146.079116 394.167631,146.051531 395.634513,146.408515 C397.201999,146.058021 398.792203,146.028813 400.252594,146.385798 C401.82008,146.033681 403.408661,146.004473 404.870674,146.361458 C406.430047,146.010964 408.012137,145.981756 409.46766,146.33225 C411.046505,145.975266 412.64969,145.946058 414.12144,146.306288 C415.685681,145.955794 417.271016,145.926586 418.728162,146.281948 C420.386517,145.911982 422.07408,145.889265 423.602622,146.314401 Z M46.8590777,232.005274 C47.8034638,232.023123 46.748737,232.03935 46.385262,232.057199 C49.2800813,232.083162 48.2156186,232.109124 46.8363605,232.133464 C50.8974095,232.164579 49.6421996,232.195147 48.4286373,232.225167 L48.2601125,232.229352 C47.4520935,232.249564 46.7763661,232.269526 47.8764834,232.289239 L47.6054267,232.284739 C42.9256745,232.205309 43.9859583,232.129925 45.6248423,232.057785 L45.8125707,232.049632 C45.8441783,232.048275 45.8759225,232.04692 45.9077687,232.045566 L46.0997923,232.037454 C46.1319077,232.036104 46.1640558,232.034755 46.1962018,232.033408 L46.484525,232.021311 C46.5163468,232.01997 46.5480625,232.01863 46.5796376,232.017292 L46.7671219,232.009273 L46.7671219,232.009273 Z M47.1008535,231.818668 C47.7012365,231.870593 47.769388,231.927386 47.2809684,231.987425 C47.1495332,231.993915 47.0067394,231.998783 46.8590777,232.005274 C46.3414502,231.997161 45.2364211,231.989047 43.0717971,231.979311 C40.9598653,231.964206 41.7185198,231.948551 42.7508002,231.932986 L42.9469254,231.930069 C43.640148,231.919864 44.3813105,231.909714 44.4364514,231.899801 C45.2741692,231.888187 45.0837093,231.876896 44.875969,231.865641 L44.8035774,231.861669 C44.5824905,231.849093 44.4883764,231.836518 45.9325408,231.823536 C46.3592994,231.821914 46.7438691,231.820291 47.1008535,231.818668 Z M47.1122121,231.164738 C47.3864411,231.231267 47.7288216,231.29455 49.8334073,231.359457 C49.9904186,231.369347 51.0886738,231.379238 52.15922,231.389128 L52.4257185,231.391601 C54.0586505,231.406849 55.4338134,231.422096 53.000833,231.437344 C57.399855,231.463307 55.2254952,231.490892 50.5879426,231.516854 C52.2819961,231.541194 49.5705369,231.567157 50.7599442,231.591497 C52.8142275,231.619082 50.4711113,231.645044 47.4643286,231.669384 C46.7357558,231.696969 51.6134616,231.722932 47.991692,231.747272 C50.6431129,231.771611 51.918521,231.794329 47.1008535,231.818668 C46.7227745,231.786215 46.1386181,231.75214 45.3402711,231.722932 C45.3892406,231.719976 45.4384667,231.717029 45.4878414,231.71409 L45.7850098,231.696559 C47.0234441,231.623946 48.2197912,231.556783 47.6866326,231.497382 C44.3893943,231.427608 47.3718372,231.365947 42.779719,231.310777 C44.8843046,231.255607 42.6563971,231.206927 47.1122121,231.164738 Z M33.574388,231.20855 C34.0206186,231.262097 32.165922,231.286437 31.4535758,231.3124 C31.1637595,231.334428 31.0286558,231.353172 31.0060926,231.369326 L31.003,231.376 L31.2173198,231.373108 C38.0435114,231.27734 36.6867732,231.245936 33.574388,231.20855 Z M32.879891,230.989491 C28.8313627,231.05602 28.0670914,231.114436 29.8893348,231.169606 C30.9922777,231.180733 32.1095265,231.191859 33.093935,231.202986 L33.574388,231.20855 L33.574388,231.20855 C36.0781471,231.127417 37.2237427,231.116058 37.9020132,231.106322 C35.138629,231.03168 32.3103385,231.008963 32.879891,230.989491 Z M97.0840009,166.039993 C95.3346588,166.039993 93.8733401,166.455989 92.7000009,167.287993 C91.5266617,168.119997 90.5560048,169.218653 89.7880009,170.583993 L89.7880009,170.583993 L82.9400009,182.743993 C82.0013296,184.408002 81.1800044,185.858654 80.4760009,187.095993 C79.7719974,188.333333 79.1533369,189.453322 78.6200009,190.455993 C78.0866649,191.458665 77.6173363,192.354656 77.2120009,193.143993 C76.8066656,193.933331 76.433336,194.711989 76.0920009,195.479993 L76.0920009,195.479993 L74.9080009,193.111993 C74.5026656,192.301323 74.0333369,191.405332 73.5000009,190.423993 C72.9666649,189.442655 72.3480044,188.322666 71.6440009,187.063993 C70.9399974,185.80532 70.1186723,184.344002 69.1800009,182.679993 L69.1800009,182.679993 L62.3320009,170.583993 C61.5639971,169.175986 60.5933401,168.066664 59.4200009,167.255993 C58.2466617,166.445323 56.8066761,166.039993 55.1000009,166.039993 C53.4359926,166.039993 51.9213411,166.519988 50.5560009,167.479993 C49.1906608,168.439998 48.2093372,169.92265 47.6120009,171.927993 L47.6120009,171.927993 L36.5400009,209.559993 L49.5320009,209.559993 L53.5640009,194.647993 C54.2040041,192.215981 54.7586652,190.072003 55.2280009,188.215993 C55.6973366,186.359984 56.1026659,184.578668 56.4440009,182.871993 C56.785336,183.59733 57.1373324,184.343989 57.5000009,185.111993 C57.8626694,185.879997 58.2893318,186.722655 58.7800009,187.639993 C59.27067,188.557331 59.8146646,189.591988 60.4120009,190.743993 C61.0093372,191.895999 61.6919971,193.197319 62.4600009,194.647993 L62.4600009,194.647993 L68.2200009,205.463993 C68.7746704,206.530665 69.339998,207.373324 69.9160009,207.991993 C70.4920038,208.610663 71.0786646,209.090658 71.6760009,209.431993 C72.2733372,209.773328 72.9133308,209.997326 73.5960009,210.103993 C74.278671,210.21066 75.0253302,210.263993 75.8360009,210.263993 C76.6466716,210.263993 77.3933308,210.21066 78.0760009,210.103993 C78.758671,209.997326 79.3986646,209.773328 79.9960009,209.431993 C80.5933372,209.090658 81.179998,208.610663 81.7560009,207.991993 C82.3320038,207.373324 82.8973315,206.530665 83.4520009,205.463993 L83.4520009,205.463993 L89.2120009,194.711993 C90.6626748,191.938646 91.8359964,189.645336 92.7320009,187.831993 C93.6280054,186.018651 94.438664,184.365334 95.1640009,182.871993 C95.505336,184.621335 95.9106652,186.413317 96.3800009,188.247993 C96.8493366,190.082669 97.4253308,192.215981 98.1080009,194.647993 L98.1080009,194.647993 L102.140001,209.559993 L115.324001,209.559993 L104.508001,171.927993 C103.910665,169.92265 102.940008,168.439998 101.596001,167.479993 C100.251994,166.519988 98.7480092,166.039993 97.0840009,166.039993 Z M456.892001,166.039993 C455.95333,166.039993 455.046672,166.189325 454.172001,166.487993 C453.29733,166.786661 452.529338,167.25599 451.868001,167.895993 C451.206664,168.535996 450.673336,169.367988 450.268001,170.391993 C449.862666,171.415998 449.660001,172.631986 449.660001,174.039993 L449.660001,174.039993 L449.660001,209.559993 L461.692001,209.559993 L461.692001,184.407993 L487.932001,207.959993 C488.956006,208.941332 489.883997,209.570659 490.716001,209.847993 C491.548005,210.125328 492.390663,210.263993 493.244001,210.263993 C494.182672,210.263993 495.099996,210.114661 495.996001,209.815993 C496.892005,209.517325 497.670664,209.03733 498.332001,208.375993 C498.993338,207.714657 499.526666,206.871998 499.932001,205.847993 C500.337336,204.823988 500.540001,203.608 500.540001,202.199993 L500.540001,202.199993 L500.540001,166.743993 L488.444001,166.743993 L488.444001,191.895993 L462.204001,168.343993 C461.137329,167.362655 460.188005,166.733328 459.356001,166.455993 C458.523997,166.178659 457.702672,166.039993 456.892001,166.039993 Z M441.596001,166.743993 L428.348001,166.743993 L428.348001,209.559993 L441.596001,209.559993 L441.596001,166.743993 Z M366.268001,166.743993 L316.668001,166.743993 L316.668001,209.559993 L357.884001,209.559993 L366.396001,198.551993 L329.980001,198.551993 L329.980001,192.727993 L356.284001,192.727993 L363.900001,182.999993 L329.980001,182.999993 L329.980001,177.879993 L357.692001,177.879993 L366.268001,166.743993 Z M563.452001,166.743993 L532.796001,166.743993 C529.083982,166.743993 525.64935,167.245322 522.492001,168.247993 C519.334652,169.250665 516.614679,170.679984 514.332001,172.535993 C512.049323,174.392003 510.257341,176.610647 508.956001,179.191993 C507.654661,181.77334 507.004001,184.621311 507.004001,187.735993 C507.004001,190.850676 507.654661,193.741313 508.956001,196.407993 C510.257341,199.074673 512.049323,201.37865 514.332001,203.319993 C516.614679,205.261336 519.334652,206.786654 522.492001,207.895993 C525.64935,209.005332 529.083982,209.559993 532.796001,209.559993 L532.796001,209.559993 L562.172001,209.559993 L562.172001,182.807993 L534.780001,182.807993 L526.844001,192.343993 L548.988001,192.343993 L548.988001,198.551993 L532.796001,198.551993 C530.961325,198.551993 529.276009,198.306662 527.740001,197.815993 C526.203993,197.325324 524.870673,196.631998 523.740001,195.735993 C522.609329,194.839989 521.734671,193.762666 521.116001,192.503993 C520.497331,191.24532 520.188001,189.848001 520.188001,188.311993 C520.188001,186.775986 520.507998,185.378666 521.148001,184.119993 C521.788004,182.86132 522.673329,181.762665 523.804001,180.823993 C524.934673,179.885322 526.267993,179.159996 527.804001,178.647993 C529.340009,178.135991 531.003992,177.879993 532.796001,177.879993 L532.796001,177.879993 L554.876001,177.879993 L563.452001,166.743993 Z M424.124001,166.743993 L375.484001,166.743993 L366.908001,177.879993 L387.004001,177.879993 L387.004001,209.559993 L400.252001,209.559993 L400.252001,177.879993 L415.548001,177.879993 L424.124001,166.743993 Z M271.612001,166.743993 L258.300001,166.743993 L258.300001,209.559993 L271.612001,209.559993 L271.612001,197.271993 C271.612001,196.247988 271.590668,195.213332 271.548001,194.167993 C271.505334,193.122655 271.462668,192.109332 271.420001,191.127993 C272.145338,191.85333 273.094662,192.749321 274.268001,193.815993 C275.44134,194.882665 277.137323,196.375984 279.356001,198.295993 L279.356001,198.295993 L292.284001,209.559993 L312.316001,209.559993 L294.588001,195.415993 C291.814654,193.154649 289.553343,191.384 287.804001,190.103993 C286.054659,188.823987 284.56134,187.757331 283.324001,186.903993 C284.006671,186.477324 284.699997,186.029329 285.404001,185.559993 C286.108004,185.090658 286.886663,184.55733 287.740001,183.959993 C288.593339,183.362657 289.563995,182.658664 290.652001,181.847993 C290.89378,181.667844 291.143459,181.481375 291.401039,181.288585 L292.197482,180.691253 C292.880937,180.177674 293.613775,179.624589 294.396001,179.031993 L294.396001,179.031993 L310.780001,166.743993 L291.580001,166.743993 L279.228001,177.175993 C277.265324,178.797335 275.676007,180.173321 274.460001,181.303993 C273.243995,182.434666 272.209339,183.383989 271.356001,184.151993 C271.441335,183.042654 271.505334,181.848 271.548001,180.567993 C271.590668,179.287987 271.612001,177.986667 271.612001,176.663993 L271.612001,176.663993 L271.612001,166.743993 Z M228.860001,166.743993 L201.340001,166.743993 L192.700001,177.879993 L229.948001,177.879993 C232.252012,177.879993 234.043995,178.295989 235.324001,179.127993 C236.604007,179.959997 237.244001,181.207985 237.244001,182.871993 C237.244001,184.365334 236.540008,185.538656 235.132001,186.391993 C233.723994,187.245331 231.996011,187.671993 229.948001,187.671993 L229.948001,187.671993 L192.700001,187.671993 L192.700001,209.559993 L205.948001,209.559993 L205.948001,198.231993 L226.300001,198.231993 L235.836001,209.559993 L253.564001,209.559993 L245.692001,201.239993 C244.19866,199.746652 243.004005,198.573331 242.108001,197.719993 C241.211996,196.866656 240.401338,196.162663 239.676001,195.607993 C241.425343,195.266658 242.993327,194.679997 244.380001,193.847993 C245.766675,193.015989 246.939996,192.002666 247.900001,190.807993 C248.860006,189.613321 249.595998,188.269334 250.108001,186.775993 C250.620003,185.282652 250.876001,183.704002 250.876001,182.039993 C250.876001,178.967978 250.182675,176.45067 248.796001,174.487993 C247.409327,172.525317 245.649345,170.967999 243.516001,169.815993 C241.382657,168.663988 239.014681,167.863996 236.412001,167.415993 C233.809321,166.967991 231.292013,166.743993 228.860001,166.743993 L228.860001,166.743993 Z M152.892001,166.039993 C150.801324,166.039993 149.073341,166.530655 147.708001,167.511993 C146.342661,168.493332 145.212005,169.602654 144.316001,170.839993 L144.316001,170.839993 L116.860001,209.559993 L132.540001,209.559993 L152.636001,181.143993 L160.316001,192.471993 C161.041338,193.495998 161.798664,194.594654 162.588001,195.767993 C163.377338,196.941332 164.070665,197.911989 164.668001,198.679993 C163.643996,198.59466 162.438675,198.551993 161.052001,198.551993 L161.052001,198.551993 L146.300001,198.551993 L138.300001,209.559993 L188.092001,209.559993 L161.340001,170.839993 C160.40133,169.474653 159.260008,168.333331 157.916001,167.415993 C156.571994,166.498655 154.897344,166.039993 152.892001,166.039993 Z" id="Marketing"></path>
            <path d="M173.288636,15.0090909 L187.431818,109.681818 C187.431818,109.681818 176.713076,106.521163 165.990211,104.466738 L165.058039,104.290984 C160.55501,103.45599 156.106114,102.83825 152.506818,102.754545 C148.177273,125.268182 160.3,161.636364 160.3,161.636364 C160.3,161.636364 132.013636,151.534091 114.984091,153.265909 C94.4909091,155.575 69.0909091,166.254545 69.0909091,166.254545 L69.095038,166.242479 L69.095038,166.242479 L69.127576,166.146968 C69.9099725,163.844547 82.9541136,125.118091 83.2340909,101.6 L46,114.3 L66.1999969,15.875 C66.1999969,15.875 96.8,30.5954545 125.086364,30.5954545 C147.311364,30.8840909 173.288636,15.0090909 173.288636,15.0090909 Z M81.7909091,45.8931818 L72.8431818,85.725 C72.8431818,85.725 89.2954545,77.3545455 106.613636,77.3545455 C104.694205,105.323409 94.9599432,135.636722 93.9913156,138.598131 L93.941949,138.748522 C93.923248,138.805256 93.9136364,138.834091 93.9136364,138.834091 C99.6863636,134.793182 106.325,133.35 113.540909,133.35 C120.468182,133.35 127.972727,134.793182 135.188636,136.813636 C129.993182,123.247727 132.879545,97.5590909 136.920455,79.0863636 C153.084091,79.9522727 167.227273,87.4568182 167.227273,87.4568182 L158.279545,47.3363636 C152.506818,50.5113636 139.229545,52.2431818 125.086364,52.2431818 C109.211364,52.2431818 92.1818182,50.2227273 81.7909091,45.8931818 Z" id="TM34"></path>
            <path d="M262.765909,0 C262.765909,0 288.165909,17.6068182 305.195455,17.8954545 C319.05,18.1840909 341.275,9.81363636 341.275,9.81363636 L327.997727,47.625 C308.347364,97.5475455 315.325898,163.105407 316.568226,173.275161 L316.640782,173.859148 C316.704541,174.363149 316.740909,174.625 316.740909,174.625 C316.740909,174.625 311.191447,172.22036 309.212589,170.014634 C295.740234,154.997727 279.506818,151.822727 279.506818,151.822727 C245.474609,144.326172 228.418182,152.4 222.068182,154.997727 C211.388636,159.327273 203.595455,161.347727 196.956818,161.347727 C185.411364,161.347727 178.772727,155.286364 176.175,151.822727 C171.268182,145.472727 169.825,137.679545 171.845455,129.597727 C172.988455,125.184477 174.13844,120.67693 175.280043,116.148462 L175.901811,113.676755 C184.902729,77.8197118 193.204545,41.4885909 193.204545,40.9863636 L198.111364,19.6272727 C198.111364,19.6272727 203.168628,21.2193744 208.42861,22.5364444 L209.130716,22.71026 C212.877142,23.6268357 216.616974,24.3623705 218.604545,24.2454545 C249.2,23.0909091 262.765909,0 262.765909,0 Z M274.202015,28.8169334 L251.220455,79.6636364 C251.220455,79.6636364 247.756818,58.0159091 251.797727,34.3477273 C236.211364,44.45 224.377273,45.8931818 218.604545,45.8931818 C215.718182,45.8931818 214.275,45.6045455 214.275,45.6045455 C214.275,45.6045455 206.376408,81.4684218 197.372014,117.57993 L196.742091,120.099291 C195.479,125.137025 194.197455,130.163455 192.915909,135.081818 C192.05,138.545455 193.781818,139.7 196.956818,139.7 C205.615909,139.7 224.088636,130.175 224.088636,130.175 C224.088636,93.0044091 232.504926,79.0423755 233.514881,77.5007455 L233.569136,77.4191076 C233.583766,77.3974484 233.594891,77.3813078 233.602359,77.3705821 L233.613636,77.3545455 L233.613636,77.3545455 C233.613636,77.3545455 234.479545,121.804545 242.561364,121.804545 C242.85,121.804545 243.138636,121.804545 243.715909,121.515909 C260.168182,114.588636 272.579545,77.3545455 272.579545,77.3545455 C272.579545,77.3545455 271.713636,96.4045455 263.054545,126.422727 C265.940909,125.556818 268.538636,124.979545 271.136364,124.979545 C284.990909,124.979545 295.670455,137.390909 295.670455,137.390909 L295.661009,137.264956 C295.464801,134.561551 292.455045,88.7152727 309.813636,36.0795455 C295.776309,42.970597 276.32267,30.9045569 274.202015,28.8169334 Z" id="Combined-Shape"></path>
            <path d="M309.236364,21.9363636 L309.308677,21.9462688 C310.857259,22.1573436 336.948341,25.6626591 355.706818,24.8227273 C358.345779,24.8227273 360.967069,24.775603 363.573211,24.7217466 L364.993256,24.6919456 C380.124705,24.3721255 394.758943,24.0730224 409.393182,31.75 C426.134091,40.6977273 435.370455,56.8613636 435.081818,75.9113636 C434.793182,86.3022727 431.040909,95.25 425.845455,102.177273 C426.134091,103.043182 426.422727,103.909091 426.711364,104.486364 C431.040909,116.897727 429.597727,129.309091 422.381818,139.411364 C412.279545,153.554545 392.652273,161.347727 368.406818,161.347727 C358.015909,161.347727 347.336364,159.904545 337.522727,156.729545 C329.440909,154.420455 320.493182,148.359091 313.854545,139.122727 C299.134091,117.763636 301.154545,90.3431818 301.154545,90.3431818 L308.947727,92.3636364 C308.947727,92.3636364 320.781818,74.4681818 320.204545,53.975 C319.956318,44.0459091 312.022975,27.4990791 309.806504,23.0605769 L309.595986,22.6410803 C309.365586,22.1843311 309.236364,21.9363636 309.236364,21.9363636 Z M340.120455,45.0272727 C343.584091,52.8204545 345.604545,69.5613636 335.213636,84.5704545 C349.934091,75.0454545 372.447727,75.0454545 389.188636,76.7772727 C389.188636,92.3636364 367.252273,95.8272727 355.418182,92.3636364 C355.418182,97.5590909 351.665909,105.640909 345.893182,110.547727 L345.912932,110.543832 C346.332895,110.461587 353.406474,109.104545 362.922727,109.104545 C379.548182,109.104545 378.085142,114.690698 377.941498,115.13759 L377.934414,115.158732 C377.932742,115.163485 377.931818,115.165909 377.931818,115.165909 C378.220455,126.422727 338.1,123.825 327.997727,118.918182 C332.904545,136.525 351.377273,139.411364 368.406818,139.7 C392.075,139.7 412.568182,129.886364 406.218182,111.702273 C404.775,107.372727 400.445455,103.909091 390.920455,101.6 C390.920455,101.6 413.434091,94.0954545 413.434091,75.3340909 C413.434091,51.9545455 393.518182,46.1818182 371.004545,45.8931818 C368.358712,45.8931818 365.69308,46.0317731 363.012835,46.1845063 L361.549464,46.2684699 L361.549464,46.2684699 L360.083383,46.3507504 C353.480195,46.710494 346.800325,46.8827922 340.120455,45.0272727 Z" id="Combined-Shape"></path>
            <path d="M511.570455,17.8954545 C526.579545,17.8954545 534.661364,25.4 538.413636,29.7295455 C542.743182,35.5022727 547.361364,45.6045455 543.609091,61.4795455 C542.743182,65.2318182 539.279545,74.7568182 538.413636,79.375 L554,78.5090909 C554,78.5090909 542.743182,93.8068182 542.454545,112.856818 C542.165909,123.825 546.495455,133.638636 546.495455,133.638636 L533.795455,133.638636 L533.795455,145.472727 L526.290909,151.534091 C526.002273,151.822727 521.961364,154.997727 516.765909,158.172727 C507.529545,163.945455 499.736364,166.831818 492.520455,166.831818 C485.015909,166.831818 478.088636,163.656818 473.181818,158.461364 C470.295455,155.286364 466.831818,149.802273 466.254545,141.431818 L411.125,144.895455 C411.125,144.895455 432.484091,110.547727 435.947727,85.1477273 C436.802091,79.2739773 436.945197,71.2269398 436.786413,63.4189639 L436.758083,62.1552821 C436.44447,49.3369023 435.370455,37.5227273 435.370455,37.5227273 C435.370455,37.5227273 435.875453,37.8500409 436.814749,38.3902019 L437.143836,38.5779818 C441.743545,41.1826364 454.766818,47.7404545 470.006818,48.2022727 L462.213636,33.4818182 L483.861364,24.2454545 C486.170455,23.0909091 498.870455,17.8954545 511.570455,17.8954545 Z M511.570455,39.5431818 C503.504452,39.5431818 493.935742,43.2999501 492.6628,43.8145759 L492.57226,43.8513921 C492.538003,43.8654152 492.520455,43.8727273 492.520455,43.8727273 C492.520455,43.8727273 492.532462,43.8944327 492.554925,43.9388781 L492.596267,44.0227304 C493.360733,45.6076627 499.470818,60.0363636 490.788636,100.734091 L475.779545,102.177273 C484.828295,75.8536364 490.490619,71.4115227 491.03423,71.0331205 L491.070362,71.0088681 C491.074964,71.0059309 491.077273,71.0045455 491.077273,71.0045455 L484.15,71.0045455 C476.645455,71.0045455 464.234091,70.4272727 455.863636,66.0977273 C458.461364,73.3136364 464.522727,81.9727273 446.338636,120.938636 L490.211364,118.052273 C490.211364,118.052273 489.417909,123.493107 488.754429,129.047291 L488.670507,129.756541 L488.670507,129.756541 L488.588424,130.46456 L488.588424,130.46456 L488.508606,131.168884 C488.220619,133.741622 487.986939,136.190182 487.902273,137.968182 C487.325,143.163636 489.345455,145.184091 492.520455,145.184091 C499.736364,145.184091 513.013636,134.504545 513.013636,134.504545 L514.168182,116.897727 L526.290909,116.897727 C524.559091,105.063636 531.197727,96.9818182 531.197727,96.9818182 C531.197727,96.9818182 525.136364,97.8477273 515.9,99.0022727 C517.343182,83.7045455 519.652273,68.1181818 522.538636,56.5727273 C525.713636,43.0068182 519.363636,39.5431818 511.570455,39.5431818 Z" id="Combined-Shape"></path>
        </g>
    </g>
</svg>