<?xml version="1.0" encoding="UTF-8"?>
<svg width="198px" height="198px" viewBox="0 0 198 198" version="1.1" xmlns="http://www.w3.org/2000/svg" xmlns:xlink="http://www.w3.org/1999/xlink">
    <title>algolia-svgrepo-com</title>
    <g id="Page-1" stroke="none" stroke-width="1" fill="none" fill-rule="evenodd">
        <g id="algolia-svgrepo-com" transform="translate(0.000000, 0.081944)" fill-rule="nonzero">
            <path d="M26.0082305,-8.8817842e-16 L171.522634,-8.8817842e-16 C185.843622,-8.8817842e-16 197.530864,11.6296296 197.530864,26.0082304 L197.530864,171.530865 C197.530864,185.851852 185.901234,197.530865 171.522634,197.530865 L26.0082305,197.530865 C11.6872428,197.530865 -6.21724894e-15,185.909465 -6.21724894e-15,171.530865 L-6.21724894e-15,25.9423868 C-6.21724894e-15,11.6296296 11.6213992,-8.8817842e-16 26.0082305,-8.8817842e-16" id="Path" fill="#5468FF"></path>
            <path d="M119.349794,44.0971193 L119.349794,37.3234568 C119.346159,32.5898279 115.507293,28.7546454 110.773662,28.7555554 L90.781893,28.7555554 C86.0482628,28.7546454 82.2093962,32.5898279 82.2057612,37.3234568 L82.2057612,44.2781893 C82.2057612,45.0518518 82.9218106,45.5950618 83.7037037,45.4139918 C89.3589825,43.7811206 95.2165905,42.9554029 101.102881,42.9613168 C106.806584,42.9613168 112.452675,43.7349795 117.909465,45.2329218 C118.633745,45.4139918 119.349794,44.8790123 119.349794,44.0971193 M64.5596708,52.9613168 L61.144033,49.545679 C59.536757,47.9372656 57.3561403,47.0335726 55.0823045,47.0335726 C52.8084687,47.0335726 50.6278519,47.9372656 49.0205761,49.545679 L44.9382716,53.6197531 C43.3263933,55.221841 42.4200219,57.4006231 42.4200219,59.673251 C42.4200219,61.945879 43.3263933,64.124661 44.9382716,65.726749 L48.2962962,69.0847737 C48.8395062,69.6197531 49.6213992,69.4962963 50.0987655,68.9613168 C52.0799442,66.2404146 54.2674656,63.6759242 56.6419753,61.2905349 C59.0364642,58.8878843 61.6240169,56.685712 64.3786008,54.7061729 C64.9777778,54.3440329 65.037037,53.5045268 64.5596708,52.9613168 M101.043621,74.4674898 L101.043621,103.767901 C101.043621,104.607407 101.948971,105.20823 102.722634,104.788477 L128.772016,91.3069959 C129.364609,91.0106996 129.545679,90.2864198 129.249383,89.6938271 C123.850206,80.2205762 113.825514,73.7514404 102.245267,73.3316873 C101.644444,73.3316873 101.043621,73.8090535 101.043621,74.4674898 M101.043621,145.051852 C79.3234567,145.051852 61.6773662,127.430453 61.6773662,105.74321 C61.6773662,84.0559671 79.3234567,66.4427984 101.043621,66.4427984 C122.772016,66.4427984 140.411523,84.0559671 140.411523,105.74321 C140.411523,127.430453 122.831276,145.051852 101.043621,145.051852 M101.043621,49.907819 C70.1958848,49.907819 45.1753086,74.8954732 45.1753086,105.74321 C45.1753086,136.599177 70.1958848,161.529218 101.043621,161.529218 C131.891358,161.529218 156.911934,136.541564 156.911934,105.685597 C156.911934,74.8296296 131.948971,49.907819 101.043621,49.907819" id="Shape" fill="#FFFFFF"></path>
        </g>
    </g>
</svg>