<?xml version="1.0" encoding="UTF-8"?>
<svg width="136px" height="193px" viewBox="0 0 136 193" version="1.1" xmlns="http://www.w3.org/2000/svg" xmlns:xlink="http://www.w3.org/1999/xlink">
    <title>astro</title>
    <defs>
        <linearGradient x1="137.072532%" y1="-40.9964367%" x2="85.9991171%" y2="56.2048592%" id="linearGradient-1">
            <stop stop-color="#FF1639" offset="0%"></stop>
            <stop stop-color="#FF1639" stop-opacity="0" offset="100%"></stop>
        </linearGradient>
    </defs>
    <g id="Page-1" stroke="none" stroke-width="1" fill="none" fill-rule="evenodd">
        <g id="astro" transform="translate(0.194058, 0.000000)" fill-rule="nonzero">
            <path d="M96.1826849,4.833565 C97.7582829,6.78963202 98.5617269,9.42903125 100.168613,14.7078297 L135.273709,130.028388 C122.294758,123.295091 108.184242,118.438927 93.3038409,115.818981 L70.4468799,38.5784973 C70.0728799,37.3146465 68.9121349,36.4476538 67.5941369,36.4476538 C66.2727359,36.4476538 65.1097199,37.3191857 64.7388009,38.5874137 L42.1587329,115.779912 C27.2091081,118.388185 13.0348809,123.253103 0,130.010717 L35.2772624,14.6810807 C36.8891749,9.41136068 37.6952121,6.77650068 39.2708108,4.82404883 C40.6619219,3.10040652 42.4712909,1.76177183 44.5264269,0.9356971 C46.8544029,0 49.6097139,0 55.1204999,0 L80.3172709,0 C85.8351889,0 88.5942289,0 90.9243129,0.937658695 C92.9812319,1.77054227 94.7917349,3.10677765 96.1826849,4.833565 Z" id="Path" fill="#000000"></path>
            <path d="M100.383416,135.516477 C94.5962239,140.464884 83.0453469,143.839801 69.7400579,143.839801 C53.4098589,143.839801 39.722464,138.755865 36.0904328,131.91849 C34.7920513,135.837141 34.5008922,140.321899 34.5008922,143.1868 C34.5008922,143.1868 33.6454098,157.255328 43.4298789,167.038987 C43.4298789,161.958293 47.5485799,157.840565 52.6291119,157.840565 C61.3372969,157.840565 61.3274079,165.437288 61.3194649,171.600911 C61.3193029,171.785723 61.3189779,171.968913 61.3189779,172.150482 C61.3189779,181.506156 67.0369469,189.526 75.1688129,192.907726 C73.9542449,190.409529 73.2728739,187.603313 73.2728739,184.639845 C73.2728739,175.717019 78.5113059,172.393655 84.5993839,168.532069 C89.4435509,165.459984 94.8256169,162.047457 98.5348149,155.199706 C100.470148,151.626685 101.569128,147.535381 101.569128,143.1868 C101.569128,140.512546 101.153626,137.935399 100.383416,135.516477 Z" id="Path" fill="#FF5D01"></path>
            <path d="M100.383416,135.516477 C94.5962239,140.464884 83.0453469,143.839801 69.7400579,143.839801 C53.4098589,143.839801 39.722464,138.755865 36.0904328,131.91849 C34.7920513,135.837141 34.5008922,140.321899 34.5008922,143.1868 C34.5008922,143.1868 33.6454098,157.255328 43.4298789,167.038987 C43.4298789,161.958293 47.5485799,157.840565 52.6291119,157.840565 C61.3372969,157.840565 61.3274079,165.437288 61.3194649,171.600911 C61.3193029,171.785723 61.3189779,171.968913 61.3189779,172.150482 C61.3189779,181.506156 67.0369469,189.526 75.1688129,192.907726 C73.9542449,190.409529 73.2728739,187.603313 73.2728739,184.639845 C73.2728739,175.717019 78.5113059,172.393655 84.5993839,168.532069 C89.4435509,165.459984 94.8256169,162.047457 98.5348149,155.199706 C100.470148,151.626685 101.569128,147.535381 101.569128,143.1868 C101.569128,140.512546 101.153626,137.935399 100.383416,135.516477 Z" id="Path" fill="url(#linearGradient-1)"></path>
        </g>
    </g>
</svg>