<?xml version="1.0" encoding="UTF-8"?>
<svg width="386px" height="400px" viewBox="0 0 386 400" version="1.1" xmlns="http://www.w3.org/2000/svg" xmlns:xlink="http://www.w3.org/1999/xlink">
    <title>hubspot-svgrepo-com</title>
    <g id="Page-1" stroke="none" stroke-width="1" fill="none" fill-rule="evenodd">
        <g id="hubspot-svgrepo-com" transform="translate(0.124956, -0.000315)" fill="#FF7A59">
            <path d="M280.218794,288.23469 C250.351607,288.23469 226.125044,264.273753 226.125044,234.711253 C226.125044,205.148753 250.343794,181.180003 280.218794,181.180003 C310.093794,181.180003 334.328169,205.14094 334.328169,234.711253 C334.328169,264.281565 310.109419,288.23469 280.218794,288.23469 M296.421919,131.656565 L296.421919,84.0003151 C309.358021,78.0759823 317.686168,65.1891414 317.773482,50.9612526 L317.773482,49.8596901 C317.773482,29.7190651 301.117232,13.2503151 280.781294,13.2503151 L279.664107,13.2503151 C259.351607,13.2503151 242.671919,29.7268776 242.671919,49.8596901 L242.671919,50.9612526 C242.763098,65.187988 251.090019,78.0729322 264.023482,84.0003151 L264.023482,131.656565 C245.781453,134.408333 228.579495,141.894121 214.132857,153.367503 L82.0234816,51.6721901 C82.948142,48.3265956 83.4442966,44.8771403 83.5000441,41.4065651 C83.5000441,18.5862526 64.8359816,0.0628151292 41.7812941,0.000157166436 C18.7266066,-0.0621848708 0.0234815763,18.4300026 2.20174107e-05,41.2581276 C-0.0233934237,64.0862526 18.6328566,82.5706276 41.6875441,82.6096901 C48.9086534,82.5785328 55.997493,80.6696885 62.2578566,77.0706276 L192.242232,177.148753 C168.298609,212.813729 168.942676,259.578578 193.859419,294.570628 L154.312544,333.711253 C141.528822,329.704196 127.584208,333.59637 118.723586,343.644724 C109.862963,353.693078 107.746304,368.015124 113.321523,380.196954 C118.896743,392.378784 131.119362,400.138219 144.515669,400.002124 C163.453169,400.002124 178.812544,384.79719 178.812544,366.055003 C178.778964,362.760767 178.252292,359.490128 177.250044,356.351878 L216.312544,317.664378 C234.700835,331.602218 257.145164,339.139451 280.218794,339.125315 C338.507857,339.125315 385.734419,292.383128 385.734419,234.711253 C385.734419,182.508128 346.968794,139.398753 296.414107,131.656565" id="Shape"></path>
        </g>
    </g>
</svg>