<?xml version="1.0" encoding="utf-8"?>
<!-- Generator: Adobe Illustrator 25.0.1, SVG Export Plug-In . SVG Version: 6.00 Build 0)  -->
<svg version="1.0" id="Layer_1" xmlns="http://www.w3.org/2000/svg" xmlns:xlink="http://www.w3.org/1999/xlink" x="0px" y="0px"
	 viewBox="0 0 906 523" style="enable-background:new 0 0 906 523;" xml:space="preserve">
<style type="text/css">
	.st0{fill:#764ABC;}
	.st1{fill:none;}
</style>
<path id="Path_121" class="st0" d="M118.7,200.5c4.4-7,10.3-13.1,17.2-17.7c6.8,4.5,12.6,10.5,17,17.4c11.5,16,17.3,35.3,16.5,55
	c3.6,2.9,7.3,5.7,10.8,8.6c5,4.5,7.4,11.3,6.2,17.9c-1.7,8.2-3.3,16.4-5.1,24.6c-1.2,3.6-5.1,5.5-8.6,4.3c-0.6-0.2-1.2-0.5-1.7-0.9
	c-5.8-4.6-11.4-9.4-17.2-14.1c-9.9,9.4-25.3,9.5-35.3,0.2c-4.1,3-8,6.7-12,10c-1.8,1.7-3.7,3.3-5.9,4.5c-3.5,1.4-7.5-0.4-8.8-3.9
	c-0.1-0.2-0.1-0.4-0.2-0.5c-1.8-8-3.8-16-5.6-24c-1.4-7,1.1-14.1,6.5-18.7c3.1-2.5,6.3-5,9.5-7.5c0.9-0.5,0.4-1.5,0.5-2.2
	C102.1,234.6,107.8,216,118.7,200.5 M124.4,225.3c-4.2,5.4-3.7,13.1,1.2,17.9c5.6,5.4,14.5,5.6,20.3,0.4c4.1-3.7,5.5-9.6,3.6-14.8
	c-2-5-6.6-8.5-12-8.9C132.4,219.3,127.5,221.4,124.4,225.3"/>
<path id="Path_122" class="st0" d="M116.7,312.6c0.1-1.9,1.8-3.3,3.6-3.1c0.5,0,1,0.2,1.4,0.4c8.9,4.3,19.3,4.3,28.3,0
	c1.7-0.9,3.7-0.2,4.6,1.4c0.2,0.3,0.3,0.7,0.4,1.1c0,5,0,10,0,15c-0.2,1.8-1.9,3.2-3.7,3c-0.6-0.1-1.1-0.3-1.6-0.6
	c-1.5-1.3-2.8-2.7-4.3-4c-2.3,4.3-4.4,8.6-6.7,12.9c-1,1.6-3.1,2-4.7,1c0,0,0,0,0,0c-0.4-0.2-0.7-0.6-0.9-0.9
	c-2.3-4.3-4.4-8.6-6.8-12.9c-1.4,1.4-2.8,2.8-4.3,4c-1.5,1.1-3.7,0.7-4.7-0.9c-0.3-0.5-0.5-1-0.6-1.6
	C116.7,322.5,116.7,317.5,116.7,312.6"/>
<path id="Path_123" class="st0" d="M135.8,240.5c3.8,0.1,6.9-2.9,7-6.7l0,0c-0.1-3.8-3.2-6.8-7-6.8c0,0,0,0,0,0l0,0
	c-3.8-0.1-6.9,2.9-7,6.7l0,0C128.8,237.5,132,240.6,135.8,240.5C135.8,240.5,135.8,240.5,135.8,240.5L135.8,240.5"/>
<path id="Path_124" class="st0" d="M212.7,217.4h11v74.1h45.9v10h-56.9L212.7,217.4z M279.2,272.4c0-4.3,0.9-8.6,2.7-12.5
	c1.7-3.8,4.2-7.2,7.2-10c6.3-5.9,14.7-9.1,23.3-8.9c8.4-0.3,16.7,2.8,22.9,8.6c12.1,11.8,12.4,31.1,0.6,43.2
	c-0.4,0.4-0.8,0.8-1.3,1.2c-6.3,5.9-14.7,9-23.3,8.9c-8.5,0.3-16.7-2.7-22.9-8.4C282.3,288.7,278.9,280.7,279.2,272.4 M290.4,271.8
	c0,3,0.5,5.9,1.7,8.6c3.4,8.1,11.5,13.3,20.3,12.9c11.4,0.2,20.7-8.9,20.9-20.3c0-0.2,0-0.5,0-0.7c0.3-11.7-8.9-21.5-20.7-21.8
	c-0.4,0-0.8,0-1.3,0c-5.6-0.1-11,2.1-14.9,6.1C292.5,260.6,290.3,266.1,290.4,271.8 M372.2,277c-1.7,1.7-2.7,4-2.9,6.4
	c-0.2,1.7,0.6,3.3,2,4.2c1.7,0.9,3.5,1.6,5.4,2c2.3,0.5,4.8,1,7.7,1.3s5.8,0.7,8.8,1.1s5.9,0.9,8.7,1.5c2.7,0.5,5.3,1.4,7.7,2.5
	c4.4,1.7,7.4,5.9,7.4,10.6c0,7-3.5,13.5-9.3,17.5c-5.9,4.3-13,6.6-20.4,6.5c-6.5,0.2-12.9-1.3-18.6-4.3c-5.5-2.5-9-8-9-14
	c0.1-4.2,1.7-8.2,4.4-11.4c0.8-1.1,1.7-2.1,2.7-3c-4.9-1.2-8.5-5.6-8.6-10.6c0.1-6.3,2.9-12.3,7.8-16.3c-1.8-2.7-2.7-5.9-2.7-9.2
	c-0.1-3.1,0.6-6.1,2.1-8.9c1.4-2.5,3.3-4.7,5.6-6.5c4.9-3.7,11-5.6,17.2-5.5c6.1-0.2,12.1,1.7,17,5.5c3.5-2.9,7.8-4.7,12.2-5.1
	c1.5-0.2,3.1-0.3,4.6-0.4l-0.5,9.2c-3.8,0.3-7.4,1.2-10.9,2.8c1.3,2.6,2,5.5,2,8.4c0,2.9-0.7,5.8-2.1,8.3c-1.4,2.5-3.3,4.7-5.6,6.4
	c-4.8,3.6-10.7,5.5-16.7,5.3C382.7,281.7,377,280.1,372.2,277 M375.1,256.2c-0.8,1.5-1.2,3.3-1.1,5c0,1.8,0.3,3.5,1.1,5.1
	c0.8,1.4,1.9,2.7,3.2,3.6c3,2,6.6,3,10.2,2.9c5.1,0.6,10.1-1.9,12.7-6.3c0.8-1.5,1.2-3.2,1.1-4.9c0-3.4-1.6-6.7-4.3-8.7
	c-3-2-6.6-3.1-10.2-2.9C382.7,249.3,377.7,251.8,375.1,256.2 M375.2,300.1c-2.7,2.9-4.2,6.8-4.1,10.8c0.1,3.6,2.5,6.7,5.9,7.9
	c3,1.5,6.3,2.3,9.7,2.3c2.6,0,5.3-0.2,7.8-0.7c2-0.4,3.8-1,5.6-2c3.5-1.5,5.7-4.9,5.8-8.7c0-3.5-3.4-5.9-10.2-7.1
	c-2.9-0.5-6.5-1-10.8-1.4C380.6,300.9,377.4,300.5,375.2,300.1 M507.7,243.4c0.7,11.5-6.4,22-17.2,25.8l16,32.4h-12.8l-14.4-29.3
	c-4.1,0.6-8.2,0.9-12.3,0.9h-21.9v28.4h-11v-84.1h34.5c9.6-0.6,19.1,1.2,27.9,5.1C504,226.7,508.4,234.9,507.7,243.4 M468.4,263.2
	c6.8,0.4,13.6-0.9,19.7-3.7c5.4-3.2,8.4-9.2,7.9-15.4c0-9.4-6.1-14.8-18.3-16c-3.6-0.4-7.2-0.6-10.9-0.6h-21.8v35.8L468.4,263.2z
	 M520.9,272.4c0-4.3,0.9-8.6,2.7-12.5c1.7-3.8,4.2-7.2,7.2-10c6.3-5.9,14.7-9.1,23.3-8.9c8.5-0.3,16.7,2.8,22.9,8.5
	c12.1,11.7,12.4,31,0.7,43.1c-0.4,0.4-0.9,0.9-1.3,1.3c-6.3,5.9-14.7,9-23.3,8.9c-8.5,0.3-16.7-2.7-22.9-8.4
	c-6.1-5.6-9.4-13.7-9.1-21.9 M532.3,271.7c0,3,0.5,5.9,1.7,8.6c3.4,8.1,11.5,13.3,20.3,12.9c11.4,0.1,20.7-8.9,20.8-20.3
	c0-0.2,0-0.5,0-0.7c0.3-11.7-9-21.4-20.7-21.7c-0.4,0-0.9,0-1.3,0c-5.6-0.1-11,2.1-14.9,6.1C534.2,260.6,532.1,266.1,532.3,271.7
	 M646.6,288.9l2.1,8.4c-6.5,4.1-14.2,6-21.8,5.5c-8.1,0.4-16-2.6-21.6-8.4c-5.4-6.2-8.1-14.2-7.7-22.3c-0.2-8.2,2.9-16.2,8.6-22.1
	c5.7-5.9,13.6-9.1,21.8-8.9c6.8-0.3,13.5,1.6,19.1,5.4l-3.9,8.9c-4.7-3.4-10.4-5.2-16.3-5c-5.2-0.1-10.1,2.2-13.2,6.3
	c-3.3,4.2-5,9.4-4.8,14.7c-0.2,5.6,1.5,11.1,5,15.6c3.6,4.3,9,6.7,14.5,6.4C634.7,293.2,640.9,291.7,646.6,288.9 M661.6,208.8h11.3
	v59.5l26.7-26.1h13.2l-27.8,27.3l16.6,17.9c3.3,3.6,7.8,5.7,12.6,6.1l-1.7,8c-5.1,1-10.4-0.2-14.6-3.3c-1.2-1-2.3-2.1-3.4-3.3
	l-21.4-23.2v29.8h-11.3L661.6,208.8z M770,247.4c2.2,2.3,3.9,5,4.9,8c1.2,3.2,1.9,6.6,1.8,10c-0.1,4.2-0.5,8.3-1.2,12.4h-41.4
	c0.6,4.3,2.7,8.3,5.8,11.3c3.6,2.9,8.1,4.4,12.8,4.1c7,0.1,13.9-1.3,20.3-4l1.9,8.5c-5.4,2.8-11.4,4.4-17.5,4.7
	c-2.7,0.3-5.5,0.4-8.2,0.4c-3.6,0-7.2-0.7-10.6-2c-3.5-1.2-6.6-3.3-9.1-5.9c-5.2-6.4-7.8-14.6-7.2-22.8c-0.2-8.2,2.9-16.2,8.6-22.1
	c5.7-5.9,13.6-9.1,21.8-8.9C759.1,240.7,765.4,243,770,247.4 M766,269l0.2-3.2c0.7-6.1-2.6-11.9-8.1-14.4c-4.4-1.7-9.2-1.6-13.5,0.3
	c-2.1,1-3.9,2.4-5.5,4c-3.3,3.7-5.1,8.4-5.3,13.3L766,269z M792.2,251.3h-6.4v-7.4l14.6-11h3v9.2h17v9.1h-17v24
	c-0.4,4.7,0.5,9.5,2.6,13.8c2.6,2.8,6.2,4.5,10,4.5l-1.7,8c-11.9,1.5-18.9-3.2-21.1-14.1c-0.7-3.5-1-7-1-10.5L792.2,251.3z"/>
<rect x="53" y="162" class="st1" width="800" height="199"/>
</svg>
